<svg width="588" height="639" viewBox="0 0 588 639" fill="none" xmlns="http://www.w3.org/2000/svg">
<ellipse cx="340.325" cy="206.824" rx="12.4302" ry="15.1735" fill="#394C69"/>
<ellipse cx="340.325" cy="206.824" rx="12.4302" ry="15.1735" fill="#394C69"/>
<ellipse cx="340.325" cy="206.824" rx="12.4302" ry="15.1735" fill="#394C69"/>
<ellipse cx="411.799" cy="237.171" rx="12.4302" ry="15.1735" fill="#394C69"/>
<ellipse cx="411.799" cy="237.171" rx="12.4302" ry="15.1735" fill="#394C69"/>
<ellipse cx="411.799" cy="237.171" rx="12.4302" ry="15.1735" fill="#394C69"/>
<path d="M344.987 4.84794C298.063 13.952 247.099 48.0082 219.442 88.1337C204.526 110.388 199.864 120.167 147.347 242.903C98.2478 358.222 92.9649 376.43 95.7617 427.346C99.18 493.435 128.702 553.792 178.733 595.603C203.283 616.172 248.031 634.043 286.254 638.089C353.688 645.845 432.619 603.359 472.396 537.944C483.894 519.061 569.351 321.806 577.741 294.831C602.602 215.254 581.16 121.178 525.535 64.1932C492.595 30.4743 460.587 12.9405 415.838 4.51075C384.142 -1.55866 377.616 -1.55866 344.987 4.84794ZM425.783 34.5206C506.889 57.7866 560.65 131.631 562.204 221.998C562.825 259.763 556.921 281.68 528.953 346.421L503.471 405.429L481.718 411.835C450.643 421.614 356.174 421.951 320.126 413.184C275.067 401.72 221.306 380.814 178.112 357.548L135.538 334.956L180.598 230.765C205.458 173.443 229.697 120.167 234.669 112.411C256.111 78.6924 298.684 45.985 335.975 34.8578C355.863 29.1256 406.205 28.7884 425.783 34.5206ZM172.829 381.825C282.214 438.473 387.249 459.379 468.667 440.496C476.746 438.81 484.826 437.799 486.38 438.473C488.244 439.148 480.475 459.716 468.977 484.668C450.954 524.456 445.671 532.886 425.472 554.466C390.357 591.894 350.58 609.765 301.481 609.765C239.33 609.428 186.502 580.093 152.63 526.48C126.526 484.668 115.339 431.729 122.797 384.186C124.662 371.035 127.459 360.245 128.702 360.245C130.255 360.245 149.833 370.024 172.829 381.825Z" fill="#394C69"/>
<path d="M360.524 60.1469C326.341 66.2163 298.995 81.727 275.688 108.702C248.342 140.061 234.669 177.489 234.669 222.335C234.669 328.212 326.963 405.091 422.364 378.454C487.933 360.245 533.925 294.831 533.304 220.312C532.682 120.504 450.332 43.9618 360.524 60.1469ZM436.659 99.2609C529.885 148.153 531.75 291.796 439.767 341.7C354.62 387.895 253.003 315.062 260.151 212.556C263.258 170.071 282.214 133.654 312.979 110.725C337.218 92.8543 356.484 86.7849 388.492 87.7964C412.42 88.808 419.257 90.1568 436.659 99.2609Z" fill="#394C69"/>
<path d="M328.827 244.252C326.031 252.007 334.11 265.832 347.783 276.622C357.417 284.04 363.321 286.064 376.062 286.064C386.938 286.064 393.775 284.378 396.261 281.006C402.787 272.576 394.707 265.832 378.237 265.832C365.807 265.832 363.01 264.146 352.755 252.345C340.636 238.183 331.935 235.148 328.827 244.252Z" fill="#394C69"/>
</svg>
