<svg width="26" height="22" viewBox="0 0 26 22" fill="none" xmlns="http://www.w3.org/2000/svg">
<path d="M11.72 5.42997C10.3556 5.70172 9.07437 6.29099 7.98003 7.15C7.25737 7.65471 6.6308 8.28462 6.12999 9.00999C5.49999 10.01 5.61999 10.37 5.12999 10.75C4.21999 11.4 3.38 10.58 2.39 11.17C1.99015 11.4464 1.68154 11.8355 1.50347 12.2878C1.32539 12.7401 1.28591 13.2352 1.39 13.71C1.48686 14.0921 1.67747 14.444 1.94463 14.7339C2.21178 15.0237 2.54707 15.2423 2.92003 15.37C3.77003 15.63 4.11003 15.24 4.79003 15.58C5.47003 15.92 5.52999 16.58 6.06999 17.39C6.69623 18.249 7.52839 18.9368 8.48998 19.39C9.7116 20.0877 11.0733 20.5044 12.4762 20.6099C13.879 20.7154 15.2878 20.5071 16.6 20C17.8823 19.5627 19.0086 18.7597 19.84 17.69C20.65 16.56 20.53 15.81 21.39 15.34C22.46 14.76 23.39 15.53 24.39 14.77C24.6532 14.5964 24.8716 14.3631 25.0275 14.0891C25.1833 13.8151 25.2722 13.5081 25.2868 13.1932C25.3014 12.8782 25.2414 12.5643 25.1116 12.277C24.9818 11.9897 24.786 11.7372 24.54 11.54C23.65 10.78 22.67 11.35 21.77 10.54C21.4691 10.2245 21.2435 9.84502 21.11 9.42997C19.93 6.73997 16.03 5.68995 15.69 5.59995C14.3953 5.25153 13.0397 5.19349 11.72 5.42997Z" stroke="#404E65" stroke-miterlimit="10"/>
<path d="M9.57999 15C9.77707 15.6538 10.1675 16.2325 10.7 16.66C11.2332 17.0232 11.8464 17.2519 12.4872 17.3268C13.128 17.4017 13.7774 17.3204 14.38 17.09C15.2818 16.7248 16.028 16.0564 16.49 15.2" stroke="#404E65" stroke-miterlimit="10"/>
<path d="M9.67998 12C9.51615 12.1913 9.43057 12.4374 9.44029 12.6891C9.45001 12.9408 9.55437 13.1795 9.73247 13.3576C9.91056 13.5356 10.1492 13.64 10.4009 13.6497C10.6526 13.6594 10.8987 13.5739 11.09 13.41C11.277 13.2217 11.3815 12.9668 11.3805 12.7015C11.3796 12.4361 11.2733 12.182 11.085 11.995C10.8967 11.808 10.6418 11.7035 10.3764 11.7045C10.1111 11.7054 9.857 11.8117 9.67003 12H9.67998Z" fill="#404E65"/>
<path d="M15.3 13.7C15.5652 13.7 15.8196 13.5946 16.0071 13.4071C16.1946 13.2196 16.3 12.9652 16.3 12.7C16.3 12.4348 16.1946 12.1805 16.0071 11.9929C15.8196 11.8054 15.5652 11.7 15.3 11.7C15.0347 11.7 14.7804 11.8054 14.5929 11.9929C14.4053 12.1805 14.3 12.4348 14.3 12.7C14.3 12.9652 14.4053 13.2196 14.5929 13.4071C14.7804 13.5946 15.0347 13.7 15.3 13.7Z" fill="#404E65"/>
<path d="M11.93 3.22998C11.7386 3.11904 11.5988 2.93712 11.5407 2.72369C11.4827 2.51026 11.5111 2.28258 11.62 2.09002C11.6899 1.98454 11.7851 1.89818 11.8969 1.8388C12.0086 1.77943 12.1334 1.7489 12.26 1.75C12.9 1.75 13.26 2.30997 13.44 2.84997C13.5055 3.05977 13.5187 3.28243 13.4787 3.49853C13.4386 3.71463 13.3464 3.91767 13.21 4.09002C12.98 4.39002 12.62 4.50999 12.39 4.80999C12 5.30999 12.71 6.03001 13.1 5.52001C13.49 5.01001 14.04 4.81998 14.31 4.16998C14.4437 3.86935 14.5128 3.54404 14.5128 3.21502C14.5128 2.886 14.4437 2.56063 14.31 2.26C14.2142 1.96597 14.0572 1.69554 13.8493 1.46655C13.6415 1.23756 13.3875 1.05521 13.1041 0.931453C12.8207 0.807697 12.5143 0.74533 12.205 0.74853C11.8958 0.75173 11.5908 0.820413 11.31 0.950007C10.31 1.50001 10.23 3.59001 11.37 4.02001C12.51 4.45001 13.6 3.06998 12.48 2.35998C11.94 2.01998 11.43 2.87998 11.98 3.22998H11.93Z" fill="#404E65"/>
</svg>
