<svg width="21" height="20" viewBox="0 0 21 20" fill="none" xmlns="http://www.w3.org/2000/svg">
<path d="M10.27 5.91999C10.66 5.41999 10.1699 4.92004 10.5499 3.72004C10.7879 2.85139 11.3498 2.10697 12.1199 1.64003C12.4061 1.46086 12.7277 1.34572 13.0626 1.30256C13.3974 1.25941 13.7377 1.28927 14.0599 1.39003C14.5099 1.65197 14.866 2.04886 15.0778 2.52449C15.2896 3.00012 15.3463 3.53032 15.2399 4.03999C15.0749 4.68757 14.7077 5.26563 14.1915 5.69007C13.6754 6.11452 13.0372 6.36326 12.3699 6.40004H12.27C11.6555 6.39479 11.0453 6.29698 10.46 6.11C9.35997 5.67 10.29 3.03 8.85999 1.74C8.53824 1.44758 8.14138 1.25058 7.71393 1.17109C7.28648 1.09161 6.8453 1.13277 6.43995 1.28999C5.28995 1.85999 4.95998 3.87001 5.72998 5.12001C6.75998 6.81001 9.57996 6.82999 10.27 5.91999Z" stroke="#404E65" stroke-miterlimit="10"/>
<path d="M18.13 11.21H3.50998C3.20074 11.2394 2.88879 11.2038 2.59409 11.1056C2.29938 11.0074 2.02842 10.8488 1.79861 10.6398C1.56881 10.4308 1.38519 10.1761 1.25955 9.89196C1.13391 9.60786 1.06906 9.30061 1.06906 8.98998C1.06906 8.67935 1.13391 8.37216 1.25955 8.08806C1.38519 7.80397 1.56881 7.54927 1.79861 7.34026C2.02842 7.13126 2.29938 6.97258 2.59409 6.87438C2.88879 6.77618 3.20074 6.74062 3.50998 6.77001H18.13C18.4392 6.74062 18.7512 6.77618 19.0459 6.87438C19.3406 6.97258 19.6115 7.13126 19.8413 7.34026C20.0711 7.54927 20.2548 7.80397 20.3804 8.08806C20.506 8.37216 20.571 8.67935 20.571 8.98998C20.571 9.30061 20.506 9.60786 20.3804 9.89196C20.2548 10.1761 20.0711 10.4308 19.8413 10.6398C19.6115 10.8488 19.3406 11.0074 19.0459 11.1056C18.7512 11.2038 18.4392 11.2394 18.13 11.21V11.21Z" stroke="#404E65" stroke-width="0.78" stroke-miterlimit="10"/>
<path d="M18.95 11.7H2.69V19.12H18.95V11.7Z" stroke="#404E65" stroke-width="0.78" stroke-miterlimit="10"/>
<path d="M13.49 7.10001L13.55 11.12" stroke="#404E65" stroke-miterlimit="10"/>
<path d="M7.76001 7.07001L7.75 10.88" stroke="#404E65" stroke-miterlimit="10"/>
<path d="M12.74 11.84V19.29" stroke="#404E65" stroke-miterlimit="10"/>
<path d="M8.92999 11.85L8.89001 19.12" stroke="#404E65" stroke-miterlimit="10"/>
</svg>
