<svg width="26" height="22" viewBox="0 0 26 22" fill="none" xmlns="http://www.w3.org/2000/svg">
<path d="M11.45 5.94999C10.0841 6.21737 8.80193 6.80703 7.70999 7.66996C6.98506 8.17196 6.3581 8.80238 5.86001 9.53001C5.23001 10.53 5.35001 10.89 4.86001 11.27C3.95001 11.92 3.10996 11.1 2.11996 11.69C1.72011 11.9664 1.41156 12.3555 1.23349 12.8078C1.05542 13.2601 1.01587 13.7551 1.11996 14.23C1.21682 14.6121 1.4075 14.964 1.67465 15.2539C1.94181 15.5437 2.27703 15.7624 2.64999 15.89C3.49999 16.15 3.83999 15.76 4.51999 16.1C5.19999 16.44 5.25996 17.1 5.79996 17.91C6.42619 18.769 7.25842 19.4568 8.22 19.91C9.44137 20.6084 10.8031 21.0255 12.2061 21.131C13.6091 21.2365 15.0179 21.0278 16.33 20.52C17.6123 20.0828 18.7386 19.2797 19.57 18.21C20.38 17.08 20.26 16.33 21.12 15.86C22.19 15.28 23.12 16.05 24.12 15.29C24.5651 14.9834 24.8763 14.5184 24.99 13.99C25.0419 13.6322 25.0032 13.2671 24.8774 12.9281C24.7516 12.5892 24.5428 12.2872 24.27 12.05C23.38 11.3 22.4 11.87 21.5 11.05C21.1975 10.7395 20.9716 10.3629 20.84 9.94999C19.66 7.25999 15.76 6.20997 15.42 6.11997C14.1254 5.77154 12.7697 5.71351 11.45 5.94999Z" stroke="#404E65" stroke-miterlimit="10"/>
<path d="M9.35001 12.63C9.35001 12.8952 9.45532 13.1496 9.64285 13.3371C9.83039 13.5246 10.0848 13.63 10.35 13.63C10.6152 13.63 10.8696 13.5246 11.0571 13.3371C11.2446 13.1496 11.35 12.8952 11.35 12.63C11.35 12.3648 11.2446 12.1104 11.0571 11.9229C10.8696 11.7354 10.6152 11.63 10.35 11.63C10.0848 11.63 9.83039 11.7354 9.64285 11.9229C9.45532 12.1104 9.35001 12.3648 9.35001 12.63Z" fill="#404E65"/>
<path d="M14.39 12.63C14.39 12.8952 14.4954 13.1496 14.6829 13.3371C14.8704 13.5246 15.1248 13.63 15.39 13.63C15.6552 13.63 15.9095 13.5246 16.0971 13.3371C16.2846 13.1496 16.39 12.8952 16.39 12.63C16.39 12.3648 16.2846 12.1104 16.0971 11.9229C15.9095 11.7354 15.6552 11.63 15.39 11.63C15.1248 11.63 14.8704 11.7354 14.6829 11.9229C14.4954 12.1104 14.39 12.3648 14.39 12.63Z" fill="#404E65"/>
<path d="M12.58 8.95002C13.38 7.90002 11.64 7.12003 10.86 7.90003C10.08 8.68003 10.86 10.52 11.86 10.74C13.24 11.04 14.21 9.74002 14.28 8.51002C14.3078 8.19573 14.2726 7.87907 14.1765 7.57856C14.0803 7.27805 13.9251 6.99975 13.72 6.76002C13.5392 6.54075 13.3186 6.35757 13.07 6.22004C12.76 6.05004 12.37 6.03998 12.07 5.84998C11.52 5.50998 11.0699 6.38004 11.5599 6.72004C11.8999 6.93004 12.31 6.92001 12.64 7.13001C12.8485 7.26647 13.0168 7.45613 13.1276 7.67939C13.2383 7.90265 13.2875 8.15143 13.27 8.40003C13.27 8.96003 13.04 9.63004 12.38 9.72004C12.2294 9.72632 12.0801 9.69048 11.9489 9.61659C11.8176 9.54269 11.7095 9.43364 11.6368 9.30171C11.5641 9.16977 11.5296 9.02015 11.5372 8.8697C11.5449 8.71924 11.5943 8.57393 11.6799 8.45002C11.2899 8.96002 12.15 9.45002 12.54 8.95002H12.58Z" fill="#404E65"/>
<path d="M9.31998 15.52C9.52588 16.1721 9.91882 16.7493 10.45 17.18C10.9832 17.5431 11.5964 17.7719 12.2372 17.8467C12.878 17.9216 13.5274 17.8404 14.13 17.61C15.0301 17.2419 15.7754 16.5743 16.24 15.72" stroke="#404E65" stroke-miterlimit="10"/>
<path d="M12.52 4.78996C12.15 4.20996 12.38 3.10996 13.14 3.03996C13.56 3.03996 13.73 3.26997 13.9 3.61997C13.9931 3.80929 14.0571 4.0116 14.09 4.22001V4.44999C14.09 4.65999 14.09 4.68 14.09 4.52C13.19 5.44 14.6 6.84997 15.5 5.92997C15.8309 5.48604 16.0244 4.95476 16.0564 4.40196C16.0884 3.84915 15.9575 3.29913 15.6799 2.81999C15.4903 2.30845 15.1517 1.86547 14.7079 1.5482C14.2641 1.23092 13.7353 1.05389 13.19 1.03996C12.6405 1.02003 12.0983 1.17087 11.6381 1.47172C11.1778 1.77257 10.8222 2.2087 10.6199 2.72001C10.399 3.20736 10.2949 3.73947 10.3157 4.27415C10.3365 4.80883 10.4818 5.33128 10.7399 5.79997C11.4299 6.87997 13.16 5.87997 12.47 4.79997L12.52 4.78996Z" fill="#404E65"/>
<path d="M15.8 3.41006C16.75 2.28006 18.4 0.750008 19.55 2.67001C19.7541 2.98893 19.8882 3.34763 19.9431 3.72231C19.9981 4.097 19.9727 4.47911 19.8687 4.84323C19.7646 5.20734 19.5843 5.54515 19.3397 5.83425C19.0952 6.12335 18.7918 6.35714 18.45 6.52004C17.87 6.80004 18.38 7.66004 18.96 7.39004C19.4337 7.14629 19.8499 6.80414 20.1807 6.3865C20.5115 5.96886 20.7492 5.48538 20.878 4.96841C21.0067 4.45144 21.0236 3.91288 20.9273 3.38888C20.8311 2.86488 20.624 2.3675 20.32 1.93002C20.0495 1.50461 19.6594 1.16854 19.1986 0.963953C18.7379 0.75937 18.227 0.695422 17.73 0.780054C16.644 1.06842 15.7055 1.75349 15.1 2.70004C14.69 3.19004 15.39 3.90006 15.8 3.41006Z" fill="#404E65"/>
<path d="M11.58 3.11C11.0776 2.14139 10.264 1.36999 9.26996 0.919998C8.76698 0.750996 8.2243 0.739954 7.71485 0.888321C7.20539 1.03669 6.75358 1.33738 6.41999 1.75001C6.06892 2.15904 5.81041 2.63912 5.66217 3.15736C5.51394 3.67561 5.47948 4.21977 5.56116 4.75258C5.64284 5.28538 5.83871 5.79423 6.13538 6.24428C6.43205 6.69432 6.8225 7.07492 7.27997 7.36C7.39534 7.42763 7.53284 7.44667 7.66224 7.41292C7.79164 7.37916 7.90234 7.29538 7.96997 7.18001C8.0376 7.06464 8.05665 6.92714 8.02289 6.79774C7.98914 6.66834 7.90535 6.55764 7.78998 6.49001C7.44714 6.27133 7.15786 5.9783 6.94367 5.63264C6.72947 5.28698 6.59584 4.89758 6.55262 4.49324C6.5094 4.0889 6.55774 3.68001 6.69403 3.29689C6.83033 2.91377 7.05109 2.56624 7.33997 2.28004C8.71997 1.00004 9.93997 2.48 10.72 3.61C11.08 4.14 11.94 3.61 11.58 3.11Z" fill="#404E65"/>
</svg>
