<svg width="101" height="89" viewBox="0 0 101 89" fill="none" xmlns="http://www.w3.org/2000/svg">
<path d="M16.7976 1.83096C10.4568 4.10019 7.11953 6.93673 3.33728 13.1771C0.333728 18.056 0 19.6444 0 27.3598C0 35.1887 0.556213 37.004 4.33846 44.9463C9.78935 56.2925 24.3621 71.4963 39.3799 81.5944L49.8367 88.629L53.8414 86.2464C71.6402 75.581 90.2178 57.5406 96.3361 44.9463C103.456 30.1963 102.009 16.1271 92.4426 7.16365C81.6521 -3.04789 67.413 -2.25366 56.2888 8.97904L50.2817 15.106L46.2769 10.3406C39.1574 1.49058 27.1432 -1.91327 16.7976 1.83096ZM34.4852 13.7444C40.1586 16.581 42.9396 19.531 47.0556 27.1329L50.1704 33.0329L52.1728 28.8348C58.9586 14.4252 72.6414 7.50404 82.542 13.7444C87.8817 17.0348 89.9953 21.1194 89.9953 27.8137C89.9953 36.8906 85.5456 45.4002 75.3113 55.6117C65.5219 65.4829 51.5053 75.581 48.9468 74.5598C39.6024 70.929 18.1325 50.7329 13.3491 41.0887C9.67811 33.6002 9.1219 23.6156 12.1254 18.8502C16.6864 11.7021 26.0308 9.54635 34.4852 13.7444Z" fill="#404E65"/>
</svg>
