<svg width="19" height="25" viewBox="0 0 19 25" fill="none" xmlns="http://www.w3.org/2000/svg">
<path d="M9.24002 5.19001C7.70002 5.27001 6.24 5.34003 5.16 6.27003C4.08 7.20003 3.73002 8.91003 3.24002 12.27C2.8877 13.7301 2.81978 15.2443 3.04 16.73C3.46379 18.3577 4.30481 19.8467 5.48001 21.05C6.91001 22.73 7.94 23.94 9.35 23.93C10.76 23.92 11.66 22.8 13.43 20.71C14.81 19.08 15.6 18.16 15.97 16.71C16.34 15.26 15.97 13.88 15.28 11.1C14.53 8.09998 14.14 6.59999 13 5.85999C11.86 5.11999 10.72 5.12001 9.24002 5.19001Z" stroke="#404E65" stroke-miterlimit="10"/>
<path d="M6.26001 11.18C6.09618 11.3713 6.01057 11.6174 6.02029 11.8691C6.03001 12.1208 6.13434 12.3595 6.31244 12.5376C6.49053 12.7157 6.72928 12.82 6.98096 12.8297C7.23263 12.8394 7.47871 12.7539 7.67001 12.59C7.85832 12.4031 7.96464 12.1489 7.96557 11.8836C7.96651 11.6182 7.86199 11.3633 7.67502 11.175C7.48804 10.9867 7.23393 10.8804 6.96856 10.8795C6.7032 10.8785 6.44831 10.983 6.26001 11.17V11.18Z" fill="#404E65"/>
<path d="M11.88 12.89C12.1452 12.89 12.3996 12.7846 12.5871 12.5971C12.7746 12.4096 12.88 12.1552 12.88 11.89C12.88 11.6248 12.7746 11.3705 12.5871 11.1829C12.3996 10.9954 12.1452 10.89 11.88 10.89C11.6148 10.89 11.3604 10.9954 11.1729 11.1829C10.9854 11.3705 10.88 11.6248 10.88 11.89C10.88 12.1552 10.9854 12.4096 11.1729 12.5971C11.3604 12.7846 11.6148 12.89 11.88 12.89Z" fill="#404E65"/>
<path d="M15.58 11.31C16.2365 11.3333 16.8636 11.5884 17.35 12.03C17.7319 12.4168 17.9966 12.9038 18.1134 13.4347C18.2302 13.9656 18.1943 14.5187 18.01 15.03C17.8279 15.4938 17.5393 15.9082 17.1676 16.24C16.7959 16.5718 16.3514 16.8115 15.87 16.94" stroke="#404E65" stroke-miterlimit="10"/>
<path d="M3.06999 17.36C2.4199 17.2372 1.83687 16.8817 1.43001 16.36C1.1183 15.9297 0.932581 15.4211 0.893722 14.8912C0.854864 14.3613 0.964398 13.8311 1.21001 13.36C1.45153 12.9249 1.79179 12.5526 2.20341 12.2729C2.61504 11.9933 3.08654 11.8142 3.58 11.75" stroke="#404E65" stroke-miterlimit="10"/>
<path d="M7.37999 17.15C7.40116 17.4167 7.47566 17.6765 7.59901 17.9139C7.72237 18.1513 7.89209 18.3615 8.09816 18.5322C8.30423 18.7028 8.54244 18.8304 8.79869 18.9073C9.05494 18.9842 9.32403 19.0089 9.59001 18.98" stroke="#404E65" stroke-miterlimit="10"/>
<path d="M11.72 17.15C11.6766 17.6737 11.4288 18.1593 11.0302 18.5017C10.6316 18.8442 10.1143 19.0159 9.59001 18.98" stroke="#404E65" stroke-miterlimit="10"/>
<path d="M13.98 5.76003C14.0948 5.50465 14.1481 5.22591 14.1356 4.94619C14.1231 4.66647 14.0451 4.39356 13.908 4.14944C13.7708 3.90532 13.5784 3.69676 13.346 3.54055C13.1136 3.38434 12.8478 3.28485 12.57 3.25002C11.7166 3.18399 10.8583 3.27901 10.04 3.53005C8.61998 3.89005 4.83999 6.17003 4.10999 3.63003C4.07551 3.49742 3.98977 3.38393 3.87162 3.31454C3.75347 3.24515 3.61259 3.22555 3.47999 3.26003C3.34738 3.29451 3.23391 3.38023 3.16453 3.49838C3.09514 3.61652 3.07551 3.75743 3.10999 3.89004C3.26172 4.51432 3.6359 5.06184 4.16239 5.43002C4.68888 5.79819 5.33157 5.96175 5.97001 5.89004C6.8563 5.78604 7.71852 5.53244 8.51999 5.14004C9.04999 4.93004 13.85 3.22005 12.97 5.53005C12.75 6.13005 13.71 6.39 13.97 5.79L13.98 5.76003Z" fill="#404E65"/>
<path d="M14.42 6.69003C16.87 6.11003 17.1 3.20003 15.32 1.69003C14.7281 1.24016 14.0488 0.918869 13.3256 0.746671C12.6023 0.574473 11.8511 0.555163 11.12 0.690031C8.96001 1.01003 6.39 4.19003 4.24 2.63003C3.72 2.26003 3.23999 3.12003 3.72999 3.50003C4.21901 3.85387 4.79643 4.06547 5.3983 4.11136C6.00016 4.15725 6.60298 4.03565 7.14 3.76004C8.14 3.35004 8.9 2.59006 9.86 2.16006C10.6952 1.72095 11.641 1.53664 12.58 1.63003C12.9964 1.60928 13.4098 1.71001 13.77 1.92001C15.2033 2.34668 15.3333 3.60671 14.16 5.70004C13.53 5.85004 13.8 6.82004 14.42 6.70004V6.69003Z" fill="#404E65"/>
<path d="M16 5.96001C17.7 7.31001 15.25 9.87 15.62 11.57C15.76 12.2 16.72 11.93 16.62 11.3C16.38 10.2 17.5 8.72999 17.62 7.55999C17.68 7.13798 17.6357 6.70775 17.491 6.30681C17.3463 5.90588 17.1056 5.54645 16.79 5.26C16.29 4.86 15.57 5.57001 16.08 5.96001H16Z" fill="#404E65"/>
<path d="M3.39 11.26C3.22163 10.4596 3.11796 9.64703 3.08 8.83002C3.04429 8.49764 3.04429 8.1624 3.08 7.83002C3.16 7.44002 3.77999 5.89001 4.48 6.38001C4.99999 6.75001 5.48 5.89002 4.98 5.52002C4.02999 4.85002 2.69001 5.88003 2.28001 6.78003C1.67001 8.10003 2.14999 10.16 2.43999 11.52C2.56999 12.15 3.53999 11.88 3.43999 11.25L3.39 11.26Z" fill="#404E65"/>
</svg>
