<svg width="20" height="20" viewBox="0 0 20 20" fill="none" xmlns="http://www.w3.org/2000/svg">
<path d="M12.1 9.67H1.38V19.29H12.1V9.67Z" stroke="#404E65" stroke-width="0.78" stroke-miterlimit="10"/>
<path d="M15.1 4.78002C14.89 5.08002 14.52 4.96998 11.97 4.98998C9.58002 4.98998 9.22002 5.10998 8.97002 4.80998C8.30002 3.91998 9.71001 0.640005 11.77 0.520005C13.83 0.400005 15.72 3.87002 15.1 4.78002Z" stroke="#404E65" stroke-width="0.78" stroke-miterlimit="10"/>
<path d="M4.81999 9.63C4.81999 8.75 4.81999 7.85001 4.81999 6.95001C4.81999 6.27001 4.81999 5.61001 4.81999 4.95001H18.82L19 19.23C16.6893 19.3854 14.3707 19.3854 12.06 19.23V9.72998L4.81999 9.63Z" stroke="#404E65" stroke-width="0.78" stroke-miterlimit="10"/>
<path d="M15.06 9.32001C15.4578 9.32001 15.8393 9.16198 16.1207 8.88068C16.402 8.59937 16.56 8.21783 16.56 7.82001C16.56 7.42218 16.402 7.04064 16.1207 6.75934C15.8393 6.47803 15.4578 6.32001 15.06 6.32001C14.6622 6.32001 14.2806 6.47803 13.9993 6.75934C13.718 7.04064 13.56 7.42218 13.56 7.82001C13.56 8.21783 13.718 8.59937 13.9993 8.88068C14.2806 9.16198 14.6622 9.32001 15.06 9.32001Z" fill="#404E65"/>
<path d="M7.36 7.63C7.36 8.02783 7.51803 8.40937 7.79933 8.69067C8.08064 8.97198 8.46218 9.13 8.86 9.13C9.25783 9.13 9.63936 8.97198 9.92067 8.69067C10.202 8.40937 10.36 8.02783 10.36 7.63C10.36 7.23218 10.202 6.85064 9.92067 6.56934C9.63936 6.28803 9.25783 6.13 8.86 6.13C8.46218 6.13 8.08064 6.28803 7.79933 6.56934C7.51803 6.85064 7.36 7.23218 7.36 7.63Z" fill="#404E65"/>
<path d="M3.90001 13.38C4.16958 13.9194 4.56789 14.384 5.05974 14.7329C5.55159 15.0817 6.12184 15.304 6.72002 15.38C7.28448 15.2897 7.81728 15.0593 8.26973 14.7099C8.72218 14.3605 9.07985 13.9033 9.31001 13.38C9.60001 12.8 8.73 12.3 8.45 12.87C8.30671 13.2282 8.0878 13.5512 7.80821 13.817C7.52863 14.0828 7.19495 14.2851 6.83 14.41C6.05 14.54 5.06 13.51 4.76 12.93C4.46 12.35 3.61001 12.86 3.90001 13.43V13.38Z" fill="#404E65"/>
</svg>
