<svg width="37" height="38" viewBox="0 0 37 38" fill="none" xmlns="http://www.w3.org/2000/svg">
<path d="M18.58 14.68C18.2228 14.684 17.8683 14.6175 17.5368 14.4845C17.2053 14.3515 16.9032 14.1544 16.6478 13.9046C16.3925 13.6548 16.1888 13.3571 16.0485 13.0286C15.9082 12.7001 15.8339 12.3472 15.83 11.99L15.74 3.29999C15.7821 2.60581 16.0875 1.95389 16.5939 1.47723C17.1003 1.00058 17.7696 0.735168 18.465 0.735168C19.1605 0.735168 19.8297 1.00058 20.3361 1.47723C20.8425 1.95389 21.1479 2.60581 21.19 3.29999L21.27 11.98C21.2648 12.6927 20.98 13.375 20.477 13.8799C19.9739 14.3849 19.2927 14.6722 18.58 14.68Z" fill="#404D67"/>
<path d="M13.7112 12.5804C13.6304 12.5286 13.5598 12.6427 13.1054 12.6427C14.7773 12.4063 3.22946 15.0441 4.27087 13.6798C1.70633 14.0844 9.17524 15.8087 9 14.0844C12.4539 14.5305 11.3394 20.1139 10.0461 19C13.5 20 14.7888 12.5191 13.1054 12.6427C11.2225 13.0888 7.29454 12.7069 9 14.0844C7.87398 15.3757 5.43489 13.6277 5.5 15.3601C8.77561 20.9043 13.7112 12.9746 6.21951 12.9746C7.43911 14.1729 10.5697 12.6528 12.2573 12.6427C11.2476 12.7671 8.36002 12.7049 8.36002 12.7049C7.17872 12.7049 5.19975 12.7049 1.70633 12.8293C1.37068 12.8558 1.04792 12.9735 0.771142 13.1704C0.494362 13.3672 0.273523 13.6361 0.131261 13.9495C0.131261 15.8268 0.0403864 17.7041 0 19.5711C0.0659944 19.9063 0.249169 20.2051 0.514937 20.4112C0.721662 20.5803 0.969614 20.688 1.23179 20.7223L2.84725 21.0024C3.08957 27.9827 3.23094 32.8989 3.15017 34.1021C3.0867 34.5998 3.15766 35.106 3.35532 35.5651C3.55297 36.0242 3.8697 36.4187 4.27087 36.7054C4.83781 37.1341 5.51619 37.3796 6.21951 37.4107H6.9061L31.6529 36.8299C32.3925 36.6345 33.0597 36.2196 33.5712 35.6371C33.7871 35.3903 33.9528 35.1018 34.0586 34.7883C34.1644 34.4748 34.2081 34.1427 34.1871 33.8116V20.7431H35.7319C35.8684 20.7372 36.0023 20.7029 36.1255 20.6423C36.2487 20.5817 36.3587 20.496 36.4487 20.3904C36.6015 20.2011 36.6838 19.9622 36.681 19.7163C36.6768 18.7391 36.7274 17.7626 36.8324 16.7914C36.9738 15.3705 37.1757 14.5407 36.7113 13.6798C36.5161 13.3349 36.2468 13.0404 35.9237 12.819C34.3184 12.819 33.0159 12.819 32.1173 12.819H29.5326C27.7859 12.819 27.796 12.819 26.3925 12.819H24.0703C24.0703 12.819 23.303 12.736 23.1111 12.9746C22.9193 13.2131 23.1111 13.4517 23.1111 13.9495C23.1339 14.4227 23.0966 14.8968 23.0001 15.3601C22.7982 16.3973 21.6269 17.0818 21.2029 17.3308C18.6383 18.8347 14.741 17.7663 14.1352 16.055C13.9037 15.4251 13.7841 14.7577 13.7819 14.0844C13.8324 13.3376 13.9838 12.7775 13.7112 12.5804Z" fill="#404D67"/>
<rect x="10" y="19" width="1" height="1" fill="#404E65"/>
<rect x="10" y="13" width="3" height="1" fill="#404E65"/>
<path d="M9.57999 34.32C8.82999 34.32 8.19997 33.11 8.18997 31.61L8.09998 22.93C8.09998 21.43 8.68997 20.2 9.43997 20.2C10.19 20.2 10.81 21.41 10.82 22.9L10.91 31.59C10.94 33.08 10.34 34.31 9.57999 34.32Z" fill="white"/>
<path d="M18.58 34.32C17.83 34.32 17.2 33.11 17.19 31.61L17.1 22.93C17.1 21.43 17.69 20.2 18.44 20.2C19.19 20.2 19.81 21.41 19.83 22.9L19.91 31.59C19.96 33.08 19.36 34.31 18.58 34.32Z" fill="white"/>
<path d="M22.78 34.32C22.03 34.32 21.4 33.11 21.39 31.61L21.3 22.93C21.3 21.43 21.89 20.2 22.64 20.2C23.39 20.2 24.01 21.41 24.03 22.9L24.11 31.59C24.13 33.08 23.58 34.31 22.78 34.32Z" fill="white"/>
<path d="M27.58 34.32C26.84 34.32 26.21 33.11 26.2 31.61L26.11 22.93C26.11 21.43 26.7 20.2 27.44 20.2C28.18 20.2 28.82 21.41 28.83 22.9L28.92 31.59C28.89 33.08 28.29 34.31 27.58 34.32Z" fill="white"/>
<path d="M14.1 34.32C13.35 34.32 12.72 33.11 12.71 31.61L12.58 22.93C12.58 21.43 13.17 20.2 13.92 20.2C14.67 20.2 15.29 21.41 15.31 22.9L15.39 31.59C15.45 33.08 14.85 34.31 14.1 34.32Z" fill="white"/>
</svg>
