<svg width="166" height="127" viewBox="0 0 166 127" fill="none" xmlns="http://www.w3.org/2000/svg">
<path fill-rule="evenodd" clip-rule="evenodd" d="M53.929 2.142C53.007 2.34 49.171 2.585 45.404 2.687C41.213 2.8 37.851 3.027 36.739 3.271C35.739 3.49 32.972 3.795 30.589 3.948C25.364 4.284 21.845 4.688 19.408 5.229C18.409 5.451 16.648 5.717 15.495 5.819C14.342 5.921 13.18 6.118 12.913 6.256C12.645 6.394 11.451 6.698 10.257 6.932C9.06399 7.166 7.36399 7.501 6.47999 7.676C5.59099 7.853 4.87299 8.146 4.87299 8.331C4.87299 8.516 4.68399 8.74 4.45399 8.829C4.15299 8.944 4.03398 9.413 4.03398 10.485C4.03398 11.307 3.78599 12.915 3.48199 14.057C3.17799 15.2 2.92598 16.683 2.92298 17.352C2.91898 18.022 2.73798 19.28 2.51998 20.148C2.27298 21.13 2.05598 24.1 1.94598 28.015C1.84798 31.474 1.62998 35.309 1.46198 36.537C1.26298 37.981 1.22398 40.749 1.35098 44.364C1.90098 60.051 2.36698 70.296 2.61498 72.18C2.76598 73.333 3.02499 76.163 3.18999 78.469C3.35499 80.775 3.60599 83.542 3.74799 84.618C3.88999 85.695 4.01198 87.795 4.01998 89.287C4.02798 90.778 4.21199 92.68 4.42799 93.512C4.64499 94.345 4.90798 96.332 5.01298 97.928C5.11698 99.525 5.33399 101.334 5.49499 101.949C5.65599 102.564 5.88298 104.577 5.99898 106.421C6.37098 112.348 7.66198 118.67 8.62498 119.276C8.94398 119.477 10.338 119.73 11.721 119.838C13.105 119.946 14.397 120.165 14.592 120.325C14.787 120.485 16.162 120.727 17.648 120.864C19.133 121 20.501 121.239 20.687 121.394C20.874 121.549 22.329 121.749 23.921 121.84C25.513 121.93 27.193 122.165 27.654 122.363C28.115 122.56 29.981 122.797 31.8 122.89C33.619 122.982 35.357 123.192 35.661 123.354C35.966 123.517 38.88 123.756 42.137 123.884C45.548 124.018 48.415 124.26 48.898 124.454C49.469 124.684 52.675 124.832 58.961 124.917C65.08 125 69.025 125.178 70.68 125.445C73.548 125.909 83.487 125.968 85.935 125.537C86.781 125.388 92.054 125.142 97.654 124.992C104.231 124.815 107.966 124.609 108.205 124.411C108.424 124.229 110.868 124.017 114.236 123.887C117.35 123.767 120.212 123.547 120.596 123.398C120.98 123.248 123.119 123.034 125.348 122.921C127.577 122.808 129.647 122.585 129.947 122.425C130.247 122.265 132.323 121.97 134.559 121.769C136.796 121.568 139.317 121.28 140.163 121.13C141.008 120.98 142.408 120.849 143.273 120.837C144.139 120.826 145.271 120.645 145.789 120.434C146.307 120.224 147.816 119.973 149.14 119.877C150.465 119.78 152.002 119.512 152.556 119.281C153.109 119.049 154.289 118.851 155.178 118.841C157.962 118.807 159.14 117.005 159.185 112.711C159.195 111.711 159.327 110.265 159.479 109.496C159.63 108.727 159.875 106.338 160.025 104.185C160.174 102.033 160.473 99.391 160.69 98.315C160.907 97.239 161.162 94.673 161.258 92.613C161.353 90.553 161.544 88.657 161.682 88.399C161.82 88.142 162.013 85.362 162.111 82.222C162.216 78.839 162.444 75.943 162.669 75.115C162.916 74.21 163.105 71.329 163.206 66.947C163.3 62.803 163.529 59.2 163.795 57.658C164.483 53.673 164.278 41.86 163.503 40.823C162.78 39.856 161.039 39.382 159.714 39.792C158.087 40.295 157.658 41.18 157.496 44.367C157.418 45.904 157.23 47.351 157.078 47.581C156.92 47.822 156.727 52.118 156.624 57.668C156.505 64.06 156.336 67.537 156.125 67.933C155.931 68.295 155.744 70.816 155.649 74.338C155.563 77.532 155.323 81.152 155.115 82.382C154.908 83.612 154.652 86.694 154.546 89.231C154.441 91.767 154.251 94.041 154.124 94.283C153.997 94.525 153.757 96.663 153.591 99.035C152.982 107.752 151.762 109.03 148.549 104.313C148.318 103.974 147.941 103.502 147.71 103.263C147.199 102.733 146.044 101.259 145.474 100.409C145.243 100.065 144.887 99.61 144.683 99.397C144.479 99.184 143.536 98.033 142.587 96.839C140.805 94.596 140.727 94.501 139.31 92.864C138.844 92.326 138.276 91.54 138.048 91.117C137.819 90.695 137.51 90.349 137.36 90.349C137.211 90.349 137.088 90.166 137.088 89.943C137.088 89.72 136.926 89.437 136.728 89.314C136.158 88.96 134.013 86.293 134.013 85.938C134.013 85.761 133.762 85.482 133.454 85.317C133.147 85.153 132.895 84.904 132.895 84.766C132.895 84.627 132.514 84.097 132.048 83.587C131.582 83.078 130.858 82.159 130.44 81.544C130.023 80.929 129.548 80.3 129.386 80.146C128.619 79.42 125.907 75.854 125.907 75.573C125.907 75.398 125.796 75.254 125.661 75.254C125.526 75.254 124.913 74.594 124.3 73.787C123.27 72.432 122.329 71.311 121.29 70.199C121.062 69.956 120.876 69.621 120.876 69.454C120.876 69.288 120.781 69.109 120.666 69.058C120.551 69.007 120.019 68.399 119.486 67.707C118.952 67.015 118.413 66.324 118.289 66.17C115.239 62.39 115.219 61.963 117.996 59.861C118.888 59.187 120.308 58.066 121.151 57.371C121.994 56.676 122.811 56.015 122.968 55.902C123.936 55.205 127.748 52.203 127.864 52.046C127.941 51.942 128.758 51.248 129.681 50.503C130.603 49.759 131.798 48.735 132.336 48.228C132.874 47.721 133.398 47.306 133.5 47.304C133.602 47.303 134.117 46.893 134.644 46.393C135.171 45.894 136.397 44.793 137.369 43.948C140.33 41.369 141.307 40.5 142.556 39.335C143.216 38.72 144.92 37.148 146.343 35.841C149.622 32.831 152.967 29.469 155.117 27.023C156.04 25.974 157.078 24.819 157.423 24.456C157.769 24.093 158.052 23.676 158.052 23.53C158.052 23.383 158.211 23.263 158.405 23.263C158.6 23.263 158.883 23.023 159.034 22.731C159.387 22.052 161.47 18.975 161.703 18.79C161.893 18.64 162.578 17.404 163.096 16.275C165.04 12.046 163.66 8.654 159.59 7.652C158.821 7.462 157.752 7.19 157.214 7.046C156.676 6.902 155.598 6.781 154.819 6.777C154.04 6.774 152.782 6.591 152.023 6.371C151.265 6.152 148.947 5.887 146.871 5.783C144.796 5.68 142.532 5.428 141.84 5.224C141.148 5.02 138.595 4.776 136.167 4.682C133.738 4.588 131.474 4.406 131.135 4.277C130.796 4.149 127.941 3.96 124.789 3.858C118.789 3.664 116.73 3.489 116.263 3.132C116.11 3.014 111.33 2.832 105.642 2.728C98.508 2.597 94.674 2.414 93.284 2.139C90.509 1.589 56.505 1.592 53.929 2.142ZM98.514 9.248C105.816 9.415 112.42 9.674 113.189 9.825C113.957 9.975 117.354 10.238 120.736 10.409C124.118 10.579 127.176 10.778 127.531 10.851C127.887 10.923 130.481 11.103 133.296 11.25C136.111 11.396 140.411 11.777 142.852 12.096C145.293 12.415 148.703 12.845 150.43 13.052C153.433 13.41 155.537 14.166 155.537 14.886C155.537 15.232 153.956 17.57 152.62 19.199C150.981 21.199 140.264 31.928 139.906 31.928C139.74 31.928 139.604 32.071 139.604 32.245C139.604 32.554 138.326 33.885 138.029 33.885C137.947 33.885 137.461 34.294 136.948 34.793C136.436 35.293 135.469 36.236 134.8 36.89C134.131 37.543 133.366 38.078 133.1 38.078C132.834 38.078 132.616 38.266 132.616 38.497C132.616 38.727 132.521 38.918 132.406 38.92C132.291 38.922 131.682 39.393 131.054 39.968C129.24 41.626 127.713 42.924 126.864 43.528C126.432 43.836 125.886 44.307 125.651 44.577C125.416 44.846 125.137 45.066 125.03 45.066C124.924 45.066 124.398 45.474 123.863 45.974C122.56 47.188 121.344 48.132 121.077 48.137C120.957 48.139 120.472 48.581 120 49.119C119.527 49.657 118.965 50.097 118.75 50.097C118.536 50.097 118.36 50.21 118.36 50.348C118.36 50.485 117.761 50.982 117.03 51.451C116.298 51.921 115.324 52.666 114.864 53.107C114.404 53.549 113.461 54.302 112.769 54.78C112.078 55.259 111.028 56.089 110.438 56.625C109.848 57.161 108.998 57.777 108.55 57.994C108.102 58.211 107.327 58.72 106.828 59.126C104.363 61.131 103.018 62.117 102.75 62.117C102.588 62.117 102.354 62.274 102.231 62.467C102.108 62.66 101.442 63.194 100.75 63.655C99.336 64.597 99.26 64.653 98.094 65.616C97.633 65.997 97.109 66.309 96.93 66.309C96.75 66.309 96.562 66.404 96.51 66.519C96.379 66.815 92.959 69.105 92.649 69.105C92.507 69.105 92.291 69.275 92.168 69.483C92.045 69.691 91.638 70.023 91.264 70.22C90.889 70.417 90.449 70.693 90.285 70.833C87.726 73.028 84.274 73.878 82.915 72.649C82.63 72.391 82.186 72.18 81.929 72.18C81.671 72.18 80.991 71.928 80.418 71.621C79.844 71.313 79.231 71.061 79.055 71.061C78.88 71.061 78.579 70.873 78.388 70.642C78.196 70.412 77.835 70.221 77.585 70.219C77.335 70.217 76.816 70.035 76.431 69.816C76.047 69.597 75.355 69.224 74.894 68.987C74.433 68.751 73.835 68.429 73.566 68.272C72.358 67.568 72.057 67.408 71.405 67.13C71.024 66.967 70.647 66.745 70.567 66.636C70.487 66.527 70.107 66.28 69.723 66.087C69.338 65.895 68.143 65.24 67.067 64.632C65.991 64.025 64.94 63.444 64.733 63.341C64.525 63.237 62.964 62.23 61.264 61.102C59.564 59.974 57.942 58.978 57.659 58.888C57.376 58.798 57.144 58.607 57.144 58.464C57.144 58.321 56.975 58.203 56.769 58.203C56.563 58.203 56.091 57.944 55.721 57.627C54.777 56.819 51.379 54.279 48.595 52.301C47.301 51.381 46.242 50.509 46.242 50.363C46.242 50.217 46.108 50.097 45.944 50.097C45.78 50.097 45.183 49.658 44.617 49.121C44.05 48.584 43.503 48.144 43.401 48.143C43.299 48.142 42.762 47.7 42.208 47.162C41.654 46.624 41.109 46.181 40.996 46.177C40.884 46.173 40.163 45.527 39.394 44.742C38.625 43.957 37.556 42.986 37.018 42.584C35.458 41.42 25.605 31.239 25.327 30.505C25.277 30.373 24.793 29.79 24.252 29.21C23.71 28.629 23.059 27.922 22.805 27.637C21.656 26.35 18.988 26.379 17.738 27.692C16.838 28.638 16.692 31.777 17.527 32.244C17.793 32.393 18.01 32.635 18.01 32.781C18.01 32.928 18.425 33.456 18.932 33.955C19.439 34.455 20.602 35.8 21.518 36.945C23.491 39.414 30.704 46.632 33.963 49.398C35.23 50.474 36.761 51.827 37.364 52.403C37.967 52.98 38.531 53.451 38.619 53.451C38.803 53.451 40.872 55.125 42.151 56.308C42.633 56.755 43.971 57.79 45.124 58.609C46.277 59.428 47.499 60.364 47.838 60.688C48.178 61.013 48.572 61.278 48.715 61.278C49.837 61.278 51.344 63.994 50.575 64.632C50.345 64.824 50.156 65.107 50.156 65.263C50.156 65.418 49.716 65.96 49.177 66.467C48.639 66.975 48.199 67.468 48.199 67.564C48.199 67.788 45.159 71.664 44.664 72.071C44.456 72.241 44.286 72.475 44.286 72.591C44.286 72.771 42.754 74.742 41.565 76.093C40.279 77.553 39.85 78.078 38.975 79.263C38.437 79.992 37.591 81.055 37.095 81.625C36.598 82.195 36.19 82.796 36.186 82.961C36.183 83.125 35.897 83.53 35.551 83.86C34.506 84.856 33.943 85.494 33.943 85.681C33.943 85.779 33.56 86.272 33.091 86.776C32.623 87.28 31.522 88.637 30.644 89.79C29.767 90.943 28.799 92.18 28.492 92.539C27.33 93.896 27.065 94.236 25.977 95.76C25.362 96.62 24.702 97.327 24.509 97.331C24.317 97.334 24.16 97.477 24.16 97.647C24.16 97.818 23.657 98.559 23.042 99.294C22.427 100.028 21.924 100.702 21.924 100.791C21.924 100.88 21.546 101.366 21.085 101.87C20.06 102.992 18.01 105.649 18.01 105.858C18.01 106.197 15.216 108.759 14.65 108.939C13.734 109.23 13.516 108.804 13.342 106.389C13.255 105.177 13.062 104.031 12.913 103.842C12.764 103.654 12.498 101.641 12.321 99.37C12.145 97.099 11.886 95.063 11.746 94.845C11.607 94.628 11.437 92.553 11.37 90.233C11.303 87.912 11.085 85.513 10.887 84.898C10.688 84.283 10.433 81.704 10.32 79.168C10.208 76.631 9.99798 74.246 9.85398 73.868C9.71098 73.489 9.47599 69.338 9.33199 64.643C9.18699 59.948 8.94399 55.352 8.78999 54.43C8.44799 52.381 8.44699 43.776 8.78799 41.851C8.92399 41.082 9.11199 37.246 9.20599 33.326C9.29999 29.405 9.55198 24.94 9.76798 23.403C9.98298 21.865 10.225 19.362 10.307 17.839C10.502 14.164 11.363 13.2 14.447 13.2C15.269 13.2 16.075 13.067 16.238 12.904C16.401 12.741 17.59 12.438 18.88 12.231C20.17 12.024 21.98 11.723 22.902 11.563C29.67 10.385 41.523 9.335 48.618 9.283C51.539 9.262 54.495 9.143 55.187 9.019C56.808 8.727 81.425 8.857 98.514 9.248ZM111.579 67.938C112.077 68.503 112.958 69.481 113.536 70.111C114.114 70.741 114.775 71.543 115.006 71.893C115.475 72.605 117.468 75.21 118.018 75.83C118.215 76.052 118.95 76.987 119.653 77.91C120.356 78.832 121.019 79.65 121.127 79.727C121.583 80.051 124.509 83.867 124.509 84.137C124.509 84.299 124.621 84.474 124.758 84.525C125.044 84.632 127.584 87.714 127.584 87.954C127.584 88.124 127.847 88.433 129.557 90.279C130.163 90.933 130.659 91.574 130.659 91.703C130.659 91.833 130.981 92.304 131.375 92.751C131.769 93.198 132.482 94.098 132.96 94.751C133.438 95.405 133.92 95.939 134.032 95.939C134.143 95.939 134.638 96.568 135.131 97.337C135.625 98.106 136.141 98.734 136.279 98.734C136.416 98.734 136.529 98.908 136.529 99.12C136.529 99.332 136.766 99.677 137.055 99.888C137.659 100.329 142.679 106.719 142.679 107.047C142.679 107.167 142.93 107.422 143.238 107.614C143.545 107.806 143.797 108.092 143.797 108.25C143.797 108.408 144.205 108.936 144.705 109.424C147.806 112.454 147.042 113.293 140.442 114.107C135.35 114.735 131.252 115.285 128.842 115.664C127.458 115.881 124.377 116.187 121.994 116.342C119.611 116.498 116.596 116.755 115.295 116.913C113.994 117.071 110.724 117.324 108.028 117.475C105.332 117.627 101.994 117.865 100.61 118.006C97.524 118.319 59.643 118.337 55.187 118.028C48.713 117.577 43.773 117.169 39.813 116.758C37.584 116.526 34.502 116.219 32.965 116.075C21.713 115.025 18.881 114.039 20.954 111.896C21.883 110.935 22.815 109.739 23.208 109.002C23.435 108.577 24.056 107.78 24.589 107.231C25.122 106.682 25.558 106.119 25.558 105.978C25.558 105.838 25.746 105.723 25.977 105.723C26.208 105.723 26.396 105.588 26.396 105.424C26.396 105.087 27.553 103.483 28.701 102.229C29.123 101.767 29.469 101.233 29.47 101.041C29.47 100.848 29.66 100.691 29.89 100.691C30.121 100.691 30.31 100.563 30.31 100.407C30.31 100.16 33.071 96.525 34.02 95.525C34.208 95.325 34.614 94.808 34.922 94.375C35.229 93.942 35.701 93.362 35.97 93.086C36.239 92.81 36.459 92.464 36.459 92.315C36.459 92.167 36.711 91.911 37.018 91.746C37.326 91.582 37.577 91.332 37.577 91.192C37.577 91.051 37.905 90.584 38.306 90.153C38.706 89.723 39.473 88.71 40.01 87.903C40.547 87.096 41.099 86.435 41.238 86.435C41.377 86.435 41.491 86.299 41.491 86.132C41.491 85.965 41.866 85.43 42.325 84.944C42.784 84.457 43.756 83.305 44.485 82.382C45.214 81.46 46.047 80.454 46.335 80.146C46.624 79.839 47.061 79.273 47.306 78.888C47.8 78.117 48.364 77.437 49.108 76.72C49.377 76.46 49.597 76.101 49.597 75.921C49.597 75.741 49.785 75.521 50.016 75.433C50.247 75.344 50.438 75.111 50.442 74.914C50.446 74.717 51.079 73.864 51.848 73.018C52.618 72.173 53.589 70.978 54.008 70.363C56.18 67.169 57.311 66.763 59.463 68.406C60.168 68.944 60.94 69.384 61.18 69.384C61.42 69.384 61.838 69.604 62.109 69.874C62.381 70.143 62.915 70.518 63.297 70.707C63.68 70.897 64.747 71.491 65.669 72.027C66.592 72.564 68.241 73.43 69.334 73.953C70.428 74.475 71.41 75.045 71.517 75.218C71.624 75.392 72.012 75.534 72.378 75.534C72.744 75.534 73.13 75.673 73.234 75.842C73.339 76.011 73.818 76.328 74.299 76.545C74.78 76.762 75.362 77.044 75.593 77.171C76.73 77.799 78.563 78.61 78.843 78.609C79.016 78.609 79.315 78.797 79.506 79.028C79.697 79.259 80.126 79.447 80.459 79.447C80.792 79.447 81.563 79.711 82.172 80.034C83.693 80.84 85.975 80.869 87.612 80.103C88.304 79.779 89.059 79.435 89.289 79.339C89.52 79.242 90.149 78.892 90.687 78.56C91.721 77.923 94.546 76.343 95.715 75.748C96.097 75.553 96.61 75.205 96.856 74.975C97.101 74.744 97.858 74.212 98.537 73.792C99.903 72.948 100.708 72.429 101.154 72.106C101.316 71.988 101.889 71.604 102.427 71.251C103.904 70.283 106.426 68.517 106.899 68.12C108.899 66.443 110.214 66.392 111.579 67.938Z" fill="#37AAD4"/>
<path fill-rule="evenodd" clip-rule="evenodd" d="M55.659 1.082C55.578 1.162 52.64 1.339 49.13 1.474C42.406 1.733 37.055 2.102 33.105 2.578C31.798 2.735 29.299 2.992 27.552 3.149C25.805 3.306 22.409 3.757 20.005 4.151C17.601 4.545 14.943 4.966 14.097 5.086C13.252 5.206 11.742 5.499 10.743 5.738C9.744 5.977 8.438 6.253 7.842 6.351C5.771 6.693 3.792 7.765 3.621 8.638C3.536 9.071 3.338 9.929 3.182 10.544C3.026 11.159 2.768 12.48 2.61 13.479C2.451 14.479 2.139 16.177 1.917 17.253C1.694 18.329 1.533 20.09 1.56 21.166L1.609 23.123L1.79 21.166C1.889 20.09 2.117 18.455 2.295 17.532C2.474 16.61 2.742 15.038 2.891 14.038C3.853 7.568 3.944 7.466 9.752 6.34C10.835 6.13 12.35 5.835 13.119 5.684C15.868 5.144 24.742 3.804 27.235 3.552C45.254 1.729 61.925 1.029 80.345 1.322C95.355 1.56 114.956 2.356 121.435 2.991C123.818 3.224 126.522 3.414 127.444 3.413C129.628 3.411 141.826 4.569 150.925 5.642C162.627 7.022 164.351 7.958 164.327 12.92C164.318 14.848 164.193 15.534 163.664 16.554C162.745 18.329 160.159 22.186 159.092 23.375C158.597 23.926 157.123 25.591 155.816 27.074C153.058 30.204 148.675 34.474 141.558 40.966C138.087 44.132 137.889 44.306 134.992 46.732C133.454 48.02 132.133 49.148 132.057 49.239C131.98 49.331 131.225 49.969 130.379 50.658C129.534 51.347 127.95 52.666 126.859 53.589C124.568 55.529 120.874 58.455 118.883 59.906C118.125 60.459 117.235 61.2 116.906 61.554L116.307 62.197L116.921 63.355C117.259 63.992 118.193 65.279 118.996 66.213C119.799 67.148 121.053 68.716 121.782 69.697C122.511 70.678 124.124 72.739 125.366 74.276C126.608 75.813 128.394 78.07 129.334 79.29C130.274 80.511 131.24 81.712 131.48 81.96C131.72 82.207 132.231 82.86 132.616 83.41C133 83.961 133.776 84.961 134.341 85.633C135.996 87.603 138.055 90.162 138.496 90.798C138.721 91.122 140.404 93.26 142.237 95.55C144.069 97.839 146.315 100.656 147.227 101.809C151.947 107.775 151.996 107.78 152.646 102.409C152.862 100.618 153.096 98.399 153.165 97.477C153.235 96.554 153.417 94.542 153.572 93.004C154.262 86.137 154.693 80.552 155.259 71.174C155.409 68.686 155.59 65.914 155.661 65.013C155.731 64.112 155.93 60.293 156.102 56.526C156.829 40.606 156.822 40.65 158.757 39.509C160.947 38.217 163.847 39.214 164.54 41.498C165.108 43.373 165.025 46.032 163.648 70.223C163.048 80.776 161.408 99.286 160.305 107.959C160.158 109.112 159.893 111.25 159.715 112.711C158.88 119.559 159.666 118.887 151.064 120.105C149.604 120.312 147.654 120.622 146.732 120.793C144.211 121.261 139.238 121.948 136.249 122.243C134.789 122.386 132.902 122.623 132.057 122.769C130.534 123.031 123.589 123.725 113.608 124.612C89.633 126.742 55.135 126.368 34.363 123.752C32.518 123.519 30.568 123.328 30.03 123.326C29.492 123.324 27.983 123.13 26.676 122.894C25.369 122.659 23.419 122.353 22.343 122.215C20.583 121.989 16.332 121.271 12.56 120.562C11.791 120.417 10.448 120.219 9.576 120.121C7.167 119.851 7.036 119.506 5.987 110.614C5.824 109.231 5.557 107.218 5.395 106.142C5.233 105.066 4.929 102.55 4.72 100.551C4.511 98.553 4.209 95.785 4.049 94.402C3.698 91.373 3.275 86.927 2.906 82.382C2.756 80.537 2.49 77.644 2.315 75.953C2.14 74.262 1.91 71.369 1.804 69.524L1.612 66.17L1.582 69.943C1.565 72.019 1.674 74.346 1.824 75.115C1.973 75.883 2.212 78.462 2.354 80.845C2.497 83.228 2.805 86.247 3.039 87.553C3.273 88.86 3.473 91.061 3.482 92.445C3.492 93.829 3.617 95.527 3.76 96.219C3.903 96.911 4.211 99.295 4.444 101.518C4.677 103.741 4.984 105.942 5.125 106.41C5.266 106.877 5.457 108.581 5.548 110.195C5.639 111.809 5.902 113.818 6.132 114.658C6.362 115.499 6.55 116.794 6.55 117.536C6.55 119.191 7.356 120.141 8.965 120.383C9.558 120.473 12.057 120.922 14.516 121.382C16.976 121.842 19.995 122.339 21.225 122.488C22.455 122.637 24.153 122.874 24.999 123.016C28.643 123.628 37.779 124.647 42.888 125.011C44.81 125.148 48.835 125.447 51.833 125.676C68.505 126.946 100.694 126.42 118.36 124.588C120.589 124.357 123.027 124.168 123.778 124.169C124.529 124.17 125.913 124.044 126.853 123.888C129.189 123.502 134.738 122.792 137.787 122.489C140.19 122.251 146.119 121.395 149.387 120.814C150.233 120.664 152.556 120.274 154.549 119.948C156.542 119.622 158.323 119.298 158.507 119.227C159.232 118.949 159.901 115.78 160.561 109.496C160.939 105.898 161.571 100.157 161.961 96.778C162.307 93.784 162.968 85.761 163.359 79.811C163.502 77.628 163.756 74.546 163.923 72.962C164.089 71.379 164.338 67.127 164.475 63.514C164.613 59.901 164.881 53.819 165.071 49.998C165.548 40.392 164.902 38.637 160.886 38.637C157.468 38.637 156.529 40.117 156.276 45.904C156.057 50.936 155.655 57.954 155.078 66.869C154.834 70.635 154.527 75.73 154.396 78.189C154.265 80.649 154.034 83.731 153.882 85.038C153.73 86.345 153.47 89.363 153.304 91.746C153.137 94.129 152.891 96.456 152.757 96.918C152.622 97.379 152.442 99.14 152.356 100.831C152.088 106.107 151.712 106.726 150.02 104.674C148.275 102.559 146.131 99.865 144.495 97.734C143.573 96.532 141.875 94.41 140.722 93.018C139.569 91.627 138.383 90.113 138.087 89.654C137.791 89.195 137.144 88.378 136.65 87.837C136.156 87.297 133.838 84.402 131.5 81.404C129.161 78.406 127.072 75.814 126.857 75.643C126.642 75.472 126.466 75.238 126.466 75.123C126.466 74.919 124.432 72.325 123.829 71.76C123.384 71.342 121.62 69.069 121.092 68.232C120.838 67.83 120.235 67.075 119.752 66.555C118.592 65.307 117.367 63.53 117.118 62.734C116.911 62.074 118.876 59.881 119.674 59.881C119.858 59.881 120.11 59.713 120.233 59.508C120.356 59.304 121.744 58.115 123.318 56.867C124.892 55.619 126.375 54.434 126.612 54.234C126.85 54.034 127.197 53.741 127.384 53.583C127.571 53.425 128.479 52.689 129.401 51.948C130.324 51.206 131.644 50.072 132.336 49.428C133.028 48.784 134.512 47.528 135.634 46.638C136.757 45.748 138.025 44.684 138.452 44.274C138.88 43.864 140.346 42.522 141.71 41.292C146.07 37.361 153.14 30.694 153.713 29.971C154.019 29.587 155.088 28.384 156.091 27.297C163.116 19.681 165.608 15.058 164.737 11.254C164.362 9.612 162.818 7.747 161.475 7.315C160.899 7.129 160.291 6.869 160.123 6.736C159.774 6.461 157.8 6.137 152.602 5.501C150.603 5.256 148.15 4.944 147.151 4.807C146.152 4.67 144.076 4.431 142.539 4.275C141.001 4.12 138.486 3.859 136.948 3.695C135.411 3.531 132.078 3.273 129.541 3.122C127.004 2.971 123.356 2.726 121.435 2.578C113.549 1.968 108.542 1.701 99.911 1.429C89.94 1.114 55.893 0.847001 55.659 1.082ZM53.091 9.58C44.511 9.995 34.302 10.705 33.245 10.96C32.63 11.109 31.372 11.233 30.449 11.237C29.527 11.24 27.326 11.485 25.558 11.781C23.79 12.077 21.463 12.466 20.386 12.645C10.325 14.321 10.988 13.819 10.68 19.989C10.556 22.474 10.327 24.951 10.171 25.493C9.29 28.547 9.275 67.473 10.154 70.083C10.309 70.544 10.57 73.5 10.733 76.652C10.897 79.804 11.141 82.885 11.275 83.5C11.41 84.115 11.599 86.324 11.695 88.409C11.791 90.494 12.005 92.633 12.169 93.161C12.334 93.69 12.573 95.777 12.7 97.799C12.827 99.822 13.053 101.709 13.201 101.992C13.35 102.276 13.539 103.64 13.621 105.024C13.901 109.706 14.259 109.563 19.736 102.584C21.939 99.777 23.934 97.286 24.17 97.049C24.406 96.812 24.968 96.119 25.419 95.51C25.87 94.9 26.817 93.71 27.523 92.864C28.23 92.019 29.652 90.258 30.685 88.951C31.717 87.644 33.029 86.001 33.602 85.3C34.174 84.599 34.894 83.677 35.201 83.252C35.509 82.827 36.012 82.192 36.319 81.842C36.627 81.491 37.067 80.917 37.298 80.566C37.824 79.765 39.012 78.279 39.421 77.91C39.591 77.756 41.591 75.24 43.865 72.319C46.14 69.398 48.486 66.42 49.078 65.7C50.743 63.679 50.626 63.36 47.328 60.96C44.764 59.094 37.918 53.642 37.577 53.195C37.5 53.095 36.431 52.205 35.201 51.218C32.554 49.094 23 39.699 20.806 37.061C19.96 36.045 18.685 34.519 17.972 33.669C15.316 30.506 15.596 27.997 18.786 26.37C20.686 25.4 22.339 26.07 24.501 28.686C29.499 34.733 37.523 42.683 43.284 47.294C44.527 48.289 45.921 49.457 46.382 49.889C46.843 50.321 47.85 51.097 48.618 51.613C49.387 52.129 50.256 52.817 50.549 53.141C50.841 53.466 51.201 53.731 51.347 53.731C51.493 53.731 51.961 54.014 52.386 54.36C52.812 54.706 53.516 55.24 53.95 55.548C54.384 55.855 55.292 56.524 55.968 57.033C56.644 57.543 57.679 58.212 58.269 58.519C58.859 58.827 59.492 59.259 59.675 59.48C59.858 59.7 60.119 59.881 60.256 59.881C60.392 59.881 61.13 60.321 61.896 60.859C62.661 61.397 63.353 61.837 63.433 61.837C63.513 61.837 64.199 62.273 64.957 62.806C65.715 63.339 66.652 63.855 67.039 63.952C67.426 64.049 67.889 64.305 68.068 64.52C68.247 64.736 68.494 64.912 68.617 64.912C68.795 64.912 72.712 67.05 74.754 68.262C77.284 69.763 84.243 72.739 85.224 72.739C86.257 72.739 88.128 71.712 92.085 68.973C93.238 68.175 95.439 66.66 96.976 65.606C100.04 63.506 105.278 59.662 111.029 55.292C113.069 53.742 115.711 51.74 116.899 50.843C118.087 49.946 119.499 48.845 120.037 48.395C120.575 47.945 121.144 47.484 121.3 47.37C121.873 46.953 126.06 43.549 126.523 43.126C126.784 42.886 127.163 42.564 127.364 42.41C128.135 41.82 131.832 38.632 134.332 36.4C134.763 36.016 135.988 34.947 137.054 34.024C140.99 30.619 152.049 19.229 153.526 17.059L154.989 14.908L153.695 14.336C152.888 13.979 151.269 13.657 149.386 13.479C147.727 13.323 145.131 13.008 143.616 12.78C142.101 12.551 140.296 12.368 139.604 12.372C138.912 12.377 135.516 12.126 132.057 11.815C124.256 11.113 118.122 10.741 108.577 10.388C104.502 10.237 100.226 10.061 99.073 9.997C87.135 9.334 62.741 9.112 53.091 9.58ZM91.246 10.082C94.398 10.235 100.498 10.443 104.803 10.545C109.108 10.647 113.307 10.845 114.136 10.984C114.964 11.124 118.612 11.369 122.242 11.528C125.872 11.688 130.419 12.003 132.347 12.23C134.275 12.456 136.874 12.641 138.123 12.641C139.372 12.641 141.35 12.824 142.52 13.048C143.689 13.271 145.933 13.533 147.506 13.629C152.319 13.923 154.876 14.938 153.72 16.095C153.489 16.326 153.3 16.596 153.3 16.696C153.3 17.392 145.146 26.028 139.579 31.229C136.349 34.247 131.435 38.596 128.982 40.61C127.983 41.43 127.102 42.176 127.025 42.267C126.68 42.678 119.391 48.483 115.887 51.138C115.526 51.411 114.681 52.075 114.008 52.613C112.899 53.5 111.233 54.756 105.362 59.128C102.573 61.205 98.821 63.868 95.858 65.873C94.936 66.497 94.118 67.077 94.041 67.161C93.78 67.449 87.476 71.533 86.578 71.997C85.571 72.517 84.76 72.582 84.044 72.2C83.777 72.057 82.993 71.691 82.301 71.386C77.473 69.26 76.037 68.565 73.496 67.122C72.42 66.511 71.194 65.877 70.771 65.714C70.348 65.55 70.002 65.315 70.002 65.191C70.002 65.068 69.656 64.83 69.233 64.664C68.811 64.497 68.276 64.233 68.045 64.077C67.815 63.921 67.312 63.663 66.927 63.504C66.543 63.344 65.474 62.715 64.551 62.105C63.629 61.495 62.56 60.841 62.175 60.651C61.791 60.462 61.338 60.179 61.168 60.024C60.998 59.868 60.145 59.3 59.272 58.762C58.399 58.224 56.777 57.124 55.668 56.318C54.558 55.511 53.004 54.416 52.214 53.884C51.424 53.351 50.564 52.701 50.302 52.44C50.04 52.178 49.344 51.638 48.756 51.24C48.167 50.842 46.827 49.796 45.776 48.915C44.726 48.034 43.3 46.858 42.609 46.302C38.365 42.893 27.439 32.047 25.418 29.237C22.801 25.6 20.218 24.668 17.821 26.496C14.535 29.002 15.301 31.975 20.596 37.266C21.173 37.842 21.644 38.398 21.644 38.502C21.644 38.718 31.214 48.265 33.127 49.957C33.822 50.572 34.933 51.516 35.597 52.054C36.261 52.592 36.947 53.165 37.121 53.328C38.458 54.578 43.037 58.3 44.286 59.152C49.874 62.965 50.291 63.588 48.618 65.629C48.08 66.286 47.64 66.914 47.64 67.025C47.64 67.136 47.466 67.366 47.253 67.537C47.041 67.707 45.196 69.985 43.153 72.599C41.11 75.212 39.052 77.802 38.578 78.354C38.104 78.906 37.465 79.72 37.158 80.162C36.85 80.604 36.211 81.411 35.737 81.954C35.263 82.497 34.361 83.645 33.733 84.506C33.105 85.366 32.417 86.247 32.205 86.463C31.992 86.678 30.576 88.427 29.058 90.349C27.539 92.27 26.221 93.906 26.128 93.983C26.035 94.059 25.586 94.638 25.129 95.269C24.673 95.9 23.774 97.032 23.131 97.785C22.487 98.538 20.683 100.789 19.12 102.788C14.327 108.917 14.271 108.943 13.993 105.094C13.891 103.672 13.621 101.628 13.393 100.551C13.165 99.475 12.978 97.903 12.977 97.057C12.976 96.212 12.793 94.305 12.569 92.82C12.345 91.335 12.033 88.314 11.877 86.107C11.72 83.9 11.464 81.418 11.307 80.592C11.15 79.767 11.015 77.882 11.006 76.404C10.997 74.926 10.808 72.145 10.586 70.223C9.525 61.022 9.522 33.921 10.582 25.918C10.806 24.227 10.997 21.61 11.006 20.102C11.027 16.672 11.422 14.954 12.241 14.736C12.57 14.649 13.468 14.401 14.237 14.186C15.006 13.97 16.389 13.672 17.312 13.524C18.234 13.375 19.838 13.116 20.876 12.947C24.974 12.282 26.647 12.05 29.331 11.778C30.869 11.623 33.573 11.316 35.341 11.097C37.109 10.878 42.078 10.555 46.382 10.38C50.687 10.204 54.901 9.961 55.746 9.839C57.769 9.548 83.92 9.727 91.246 10.082ZM1.129 25.569C1.029 26.683 0.813002 28.727 0.650002 30.111C0.235002 33.634 0.521002 55.958 1.053 61.558C1.545 66.738 1.54 66.039 0.964997 50.377C0.605997 40.576 0.639003 38.769 1.413 25.988C1.591 23.035 1.384 22.729 1.129 25.569ZM107.179 68.706C101.357 72.793 96.3 76.113 94.257 77.191C93.376 77.655 92.149 78.355 91.53 78.746C90.172 79.603 87.75 80.729 86.697 80.994C86.275 81.1 85.861 81.298 85.776 81.435C85.579 81.754 84.338 81.759 84.142 81.442C84.06 81.31 83.42 81.041 82.72 80.845C82.021 80.649 81.381 80.38 81.299 80.247C81.217 80.115 80.957 80.006 80.721 80.006C80.316 80.006 74.265 77.246 73.356 76.647C73.126 76.495 72.623 76.246 72.238 76.092C71.854 75.939 71.351 75.696 71.12 75.552C70.737 75.313 68.498 74.196 67.486 73.74C67.256 73.636 66.564 73.245 65.949 72.871C65.334 72.497 64.516 72.036 64.132 71.848C63.748 71.659 62.907 71.154 62.265 70.724C61.622 70.295 61.006 69.943 60.896 69.943C60.786 69.943 60.033 69.503 59.222 68.965C57.2 67.623 56.85 67.685 55.339 69.648C54.636 70.562 53.898 71.474 53.7 71.675C53.501 71.876 52.062 73.675 50.501 75.674C48.94 77.672 47.252 79.794 46.75 80.389C46.249 80.984 45.365 82.105 44.787 82.879C44.209 83.654 43.384 84.677 42.953 85.152C42.522 85.627 41.452 86.959 40.575 88.113C39.697 89.266 38.507 90.783 37.929 91.484C37.351 92.185 36.627 93.112 36.319 93.545C36.012 93.977 35.559 94.535 35.312 94.786C35.066 95.036 33.887 96.498 32.694 98.036C31.501 99.573 30.157 101.271 29.708 101.809C29.259 102.347 28.55 103.243 28.133 103.799C27.716 104.355 26.746 105.562 25.977 106.481C25.208 107.4 24.391 108.434 24.16 108.779C23.929 109.124 23.466 109.707 23.13 110.075C20.159 113.328 20.375 113.921 24.689 114.373C26.012 114.511 27.284 114.693 27.514 114.775C27.745 114.858 30.058 115.122 32.654 115.363C35.25 115.603 37.461 115.854 37.568 115.92C37.675 115.986 40.457 116.236 43.75 116.475C47.042 116.715 51.12 117.053 52.811 117.227C57.886 117.748 97.208 117.639 104.663 117.083C107.969 116.837 112.434 116.504 114.586 116.343C116.739 116.183 119.191 115.935 120.037 115.793C120.883 115.651 123.021 115.454 124.789 115.355C126.557 115.256 128.884 114.998 129.96 114.781C131.036 114.565 132.508 114.388 133.23 114.388C133.953 114.388 135.84 114.148 137.423 113.854C139.007 113.561 141.296 113.246 142.51 113.156C146.522 112.855 146.478 112.59 141.351 106.124C132.738 95.264 127.761 88.993 125.545 86.211C123.014 83.033 121.72 81.393 120.791 80.187C120.453 79.748 120.011 79.214 119.809 79C119.607 78.787 117.783 76.493 115.756 73.902C110.642 67.367 110.698 67.427 109.783 67.429C109.302 67.43 108.288 67.928 107.179 68.706ZM111.221 68.79C111.535 69.191 111.98 69.712 112.21 69.95C112.441 70.187 113.375 71.383 114.286 72.608C115.777 74.613 118.25 77.69 118.658 78.05C118.865 78.232 120.856 80.795 121.574 81.805C121.882 82.237 122.33 82.795 122.569 83.045C122.809 83.296 123.93 84.695 125.061 86.156C126.191 87.616 127.289 89 127.501 89.231C127.713 89.461 128.415 90.346 129.063 91.197C130.267 92.78 130.438 92.989 131.642 94.346C132.024 94.777 132.336 95.217 132.336 95.325C132.336 95.432 132.745 95.982 133.245 96.548C133.744 97.113 134.342 97.846 134.572 98.177C135.107 98.943 136.153 100.251 137.243 101.517C140.935 105.801 145.206 111.661 144.903 112.026C144.431 112.595 142.796 112.986 140.862 112.994C139.939 112.997 138.304 113.188 137.228 113.417C136.152 113.646 133.914 113.954 132.256 114.101C130.597 114.248 129.096 114.457 128.919 114.567C128.742 114.676 126.954 114.853 124.946 114.96C122.938 115.067 119.723 115.357 117.801 115.606C114.466 116.036 110.188 116.344 99.352 116.932C87.306 117.586 54.101 117.217 49.317 116.376C48.472 116.227 46.27 116.096 44.426 116.084C42.581 116.072 39.876 115.867 38.416 115.629C36.955 115.39 34.377 115.086 32.686 114.954C30.994 114.822 28.793 114.58 27.794 114.416C26.795 114.253 25.12 114.043 24.072 113.95C20.781 113.657 20.89 113.26 25.946 107.12C26.642 106.275 27.934 104.639 28.817 103.486C29.699 102.333 30.499 101.327 30.595 101.25C30.69 101.173 31.544 100.104 32.492 98.874C33.441 97.644 34.375 96.453 34.569 96.226C34.763 95.999 35.717 94.804 36.689 93.57C37.661 92.337 38.878 90.824 39.393 90.209C39.908 89.594 40.985 88.21 41.787 87.134C42.588 86.058 43.334 85.115 43.444 85.038C43.706 84.855 45.422 82.716 49.162 77.91C50.837 75.758 52.281 73.934 52.371 73.857C52.461 73.78 52.902 73.214 53.35 72.599C53.799 71.984 54.364 71.278 54.607 71.029C54.849 70.781 55.236 70.298 55.467 69.957C55.697 69.615 56.224 69.093 56.636 68.795L57.386 68.255L59.832 69.728C63.675 72.043 64.593 72.556 68.465 74.551C70.463 75.581 72.287 76.535 72.518 76.671C73.421 77.204 79.38 80.004 79.615 80.005C79.752 80.006 80.381 80.242 81.013 80.53C83.56 81.69 84.306 81.963 84.931 81.963C85.826 81.963 89.867 80.223 91.881 78.97C92.461 78.61 93.699 77.909 94.632 77.413C95.565 76.918 96.537 76.385 96.792 76.229C97.46 75.822 98.886 74.876 99.212 74.624C99.366 74.505 99.995 74.073 100.61 73.664C101.225 73.254 102.483 72.417 103.405 71.803C104.328 71.19 105.145 70.614 105.222 70.524C105.428 70.284 108.647 68.157 109.136 67.939C109.777 67.653 110.591 67.985 111.221 68.79Z" fill="#A5DDF0"/>
<path fill-rule="evenodd" clip-rule="evenodd" d="M58.821 1.448C50.003 1.702 41.273 2.195 35.76 2.751C33.454 2.984 30.31 3.285 28.772 3.42C25.277 3.727 16.952 4.932 13.119 5.684C12.35 5.835 10.835 6.13 9.75201 6.34C3.92901 7.469 3.79902 7.618 2.88202 14.178C2.73102 15.254 2.43101 17.015 2.21401 18.092C1.99701 19.168 1.73901 21.432 1.64101 23.123C1.54201 24.814 1.41201 26.764 1.35201 27.456C0.420011 38.147 0.904014 62.144 2.33301 76.093C2.49801 77.707 2.75601 80.537 2.90601 82.382C3.27401 86.92 3.69802 91.369 4.04902 94.402C4.20902 95.785 4.51101 98.553 4.72001 100.551C4.92901 102.55 5.23301 105.066 5.39501 106.142C5.55701 107.218 5.82401 109.231 5.98701 110.614C7.03601 119.506 7.16701 119.851 9.57601 120.121C10.448 120.219 11.791 120.417 12.56 120.562C16.332 121.271 20.583 121.989 22.343 122.215C23.419 122.353 25.369 122.659 26.676 122.894C27.983 123.13 29.492 123.324 30.03 123.326C30.568 123.328 32.518 123.519 34.363 123.752C55.135 126.368 89.633 126.742 113.608 124.612C123.589 123.725 130.534 123.031 132.057 122.769C132.902 122.623 134.789 122.386 136.249 122.243C139.238 121.948 144.211 121.261 146.732 120.793C147.654 120.622 149.604 120.312 151.064 120.105C159.666 118.887 158.88 119.559 159.715 112.711C159.893 111.25 160.158 109.112 160.305 107.959C161.408 99.286 163.048 80.776 163.648 70.223C165.025 46.032 165.108 43.373 164.54 41.498C163.847 39.214 160.947 38.217 158.757 39.509C156.822 40.65 156.829 40.606 156.102 56.526C155.93 60.293 155.731 64.112 155.661 65.013C155.59 65.914 155.409 68.686 155.259 71.174C154.693 80.552 154.262 86.137 153.572 93.004C153.417 94.542 153.235 96.554 153.165 97.477C153.096 98.399 152.862 100.618 152.646 102.409C151.996 107.78 151.947 107.775 147.227 101.809C146.315 100.656 144.069 97.839 142.237 95.55C140.404 93.26 138.721 91.122 138.496 90.798C138.055 90.162 135.996 87.603 134.341 85.633C133.776 84.961 133 83.961 132.616 83.41C132.231 82.86 131.72 82.207 131.48 81.96C131.24 81.712 130.274 80.511 129.334 79.29C128.394 78.07 126.608 75.813 125.366 74.276C124.124 72.739 122.511 70.678 121.782 69.697C121.053 68.716 119.799 67.148 118.996 66.213C118.193 65.279 117.259 63.992 116.921 63.355L116.307 62.197L116.906 61.554C117.235 61.2 118.125 60.459 118.883 59.906C120.874 58.455 124.568 55.529 126.859 53.589C127.95 52.666 129.534 51.347 130.379 50.658C131.225 49.969 131.98 49.331 132.057 49.239C132.133 49.148 133.454 48.02 134.992 46.732C137.889 44.306 138.087 44.132 141.558 40.966C148.675 34.474 153.058 30.204 155.816 27.074C157.123 25.591 158.597 23.926 159.092 23.375C160.159 22.186 162.745 18.329 163.664 16.554C164.193 15.534 164.318 14.848 164.327 12.92C164.351 7.958 162.627 7.022 150.925 5.642C141.826 4.569 129.628 3.411 127.444 3.413C126.522 3.414 123.818 3.224 121.435 2.991C119.052 2.757 114.209 2.445 110.673 2.297C107.137 2.148 101.288 1.905 97.675 1.756C88.391 1.373 67.252 1.205 58.821 1.448ZM93.284 2.139C94.674 2.414 98.508 2.597 105.642 2.728C111.33 2.832 116.11 3.01401 116.263 3.13201C116.73 3.48901 118.789 3.664 124.789 3.858C127.941 3.96 130.796 4.149 131.135 4.277C131.474 4.406 133.738 4.588 136.167 4.682C138.595 4.776 141.148 5.02 141.84 5.224C142.532 5.428 144.796 5.68 146.871 5.783C148.947 5.887 151.265 6.152 152.023 6.371C152.782 6.591 154.04 6.774 154.819 6.777C155.598 6.781 156.676 6.902 157.214 7.046C157.752 7.19 158.821 7.462 159.59 7.652C163.66 8.654 165.04 12.046 163.096 16.275C162.578 17.404 161.893 18.64 161.703 18.79C161.47 18.975 159.387 22.052 159.034 22.731C158.883 23.023 158.6 23.263 158.405 23.263C158.211 23.263 158.052 23.383 158.052 23.53C158.052 23.676 157.769 24.093 157.423 24.456C157.078 24.819 156.04 25.974 155.117 27.023C152.967 29.469 149.622 32.831 146.343 35.841C144.92 37.148 143.216 38.72 142.556 39.335C141.307 40.5 140.33 41.369 137.369 43.948C136.397 44.793 135.171 45.894 134.644 46.393C134.117 46.893 133.602 47.303 133.5 47.304C133.398 47.306 132.874 47.721 132.336 48.228C131.798 48.735 130.603 49.759 129.681 50.503C128.758 51.248 127.941 51.942 127.864 52.046C127.748 52.203 123.936 55.205 122.968 55.902C122.811 56.015 121.994 56.676 121.151 57.371C120.308 58.066 118.888 59.187 117.996 59.861C115.219 61.963 115.239 62.39 118.289 66.17C118.413 66.324 118.952 67.015 119.486 67.707C120.019 68.399 120.551 69.007 120.666 69.058C120.781 69.109 120.876 69.288 120.876 69.454C120.876 69.621 121.062 69.956 121.29 70.199C122.329 71.311 123.27 72.432 124.3 73.787C124.913 74.594 125.526 75.254 125.661 75.254C125.796 75.254 125.907 75.398 125.907 75.573C125.907 75.854 128.619 79.42 129.386 80.146C129.548 80.3 130.023 80.929 130.44 81.544C130.858 82.159 131.582 83.078 132.048 83.587C132.514 84.097 132.895 84.627 132.895 84.766C132.895 84.904 133.147 85.153 133.454 85.317C133.762 85.482 134.013 85.761 134.013 85.938C134.013 86.293 136.158 88.96 136.728 89.314C136.926 89.437 137.088 89.72 137.088 89.943C137.088 90.166 137.211 90.349 137.36 90.349C137.51 90.349 137.819 90.695 138.048 91.117C138.276 91.54 138.844 92.326 139.31 92.864C140.727 94.501 140.805 94.596 142.587 96.839C143.536 98.033 144.479 99.184 144.683 99.397C144.887 99.61 145.243 100.065 145.474 100.409C146.044 101.259 147.199 102.733 147.71 103.263C147.941 103.502 148.318 103.974 148.549 104.313C151.762 109.03 152.982 107.752 153.591 99.035C153.757 96.663 153.997 94.525 154.124 94.283C154.251 94.041 154.441 91.767 154.546 89.231C154.652 86.694 154.908 83.612 155.115 82.382C155.323 81.152 155.563 77.532 155.649 74.338C155.744 70.816 155.931 68.295 156.125 67.933C156.336 67.537 156.505 64.06 156.624 57.668C156.727 52.118 156.92 47.822 157.078 47.581C157.23 47.351 157.418 45.904 157.496 44.367C157.658 41.18 158.087 40.295 159.714 39.792C161.039 39.382 162.78 39.856 163.503 40.823C164.278 41.86 164.483 53.673 163.795 57.658C163.529 59.2 163.3 62.803 163.206 66.947C163.105 71.329 162.916 74.21 162.669 75.115C162.444 75.943 162.216 78.839 162.111 82.222C162.013 85.362 161.82 88.142 161.682 88.399C161.544 88.657 161.353 90.553 161.258 92.613C161.162 94.673 160.907 97.239 160.69 98.315C160.473 99.391 160.174 102.033 160.025 104.185C159.875 106.338 159.63 108.727 159.479 109.496C159.327 110.265 159.195 111.711 159.185 112.711C159.14 117.005 157.962 118.807 155.178 118.841C154.289 118.851 153.109 119.049 152.556 119.281C152.002 119.512 150.465 119.78 149.14 119.877C147.816 119.973 146.307 120.224 145.789 120.434C145.271 120.645 144.139 120.826 143.273 120.837C142.408 120.849 141.008 120.98 140.163 121.13C139.317 121.28 136.796 121.568 134.559 121.769C132.323 121.97 130.247 122.265 129.947 122.425C129.647 122.585 127.577 122.808 125.348 122.921C123.119 123.034 120.98 123.248 120.596 123.398C120.212 123.547 117.35 123.767 114.236 123.887C110.868 124.017 108.424 124.229 108.205 124.411C107.966 124.609 104.231 124.815 97.654 124.992C92.054 125.142 86.781 125.388 85.935 125.537C83.487 125.968 73.548 125.909 70.68 125.445C69.025 125.178 65.08 125 58.961 124.917C52.675 124.832 49.469 124.684 48.898 124.454C48.415 124.26 45.548 124.018 42.137 123.884C38.88 123.756 35.966 123.517 35.661 123.354C35.357 123.192 33.619 122.982 31.8 122.89C29.981 122.797 28.115 122.56 27.654 122.363C27.193 122.165 25.513 121.93 23.921 121.84C22.329 121.749 20.874 121.549 20.687 121.394C20.501 121.239 19.133 121 17.648 120.864C16.162 120.727 14.787 120.485 14.592 120.325C14.397 120.165 13.105 119.946 11.721 119.838C10.338 119.73 8.94401 119.477 8.62501 119.276C7.66201 118.67 6.37101 112.348 5.99901 106.421C5.88301 104.577 5.65602 102.564 5.49502 101.949C5.33402 101.334 5.11701 99.525 5.01301 97.928C4.90801 96.332 4.64501 94.345 4.42801 93.512C4.21201 92.68 4.02801 90.778 4.02001 89.287C4.01201 87.795 3.89001 85.695 3.74801 84.618C3.60601 83.542 3.35502 80.775 3.19002 78.469C3.02502 76.163 2.76601 73.333 2.61501 72.18C2.36701 70.296 1.90101 60.051 1.35101 44.364C1.22401 40.749 1.26301 37.981 1.46201 36.537C1.63001 35.309 1.84801 31.474 1.94601 28.015C2.05601 24.1 2.27301 21.13 2.52001 20.148C2.73801 19.28 2.91901 18.022 2.92301 17.352C2.92601 16.683 3.17802 15.2 3.48202 14.057C3.78602 12.915 4.03401 11.307 4.03401 10.485C4.03401 9.413 4.15302 8.944 4.45402 8.829C4.68402 8.74 4.87301 8.516 4.87301 8.331C4.87301 8.146 5.59102 7.853 6.48002 7.676C7.36402 7.501 9.06402 7.166 10.257 6.932C11.451 6.698 12.645 6.394 12.913 6.256C13.18 6.118 14.342 5.921 15.495 5.819C16.648 5.717 18.409 5.451 19.408 5.229C21.845 4.688 25.364 4.284 30.589 3.948C32.972 3.795 35.739 3.49001 36.739 3.27101C37.851 3.02701 41.213 2.8 45.404 2.687C49.171 2.585 53.007 2.34 53.929 2.142C56.505 1.592 90.509 1.589 93.284 2.139ZM55.187 9.019C54.495 9.143 51.539 9.262 48.618 9.283C41.523 9.335 29.67 10.385 22.902 11.563C21.98 11.723 20.17 12.024 18.88 12.231C17.59 12.438 16.401 12.741 16.238 12.904C16.075 13.067 15.269 13.2 14.447 13.2C11.363 13.2 10.502 14.164 10.307 17.839C10.225 19.362 9.98301 21.865 9.76801 23.403C9.55201 24.94 9.30001 29.405 9.20601 33.326C9.11201 37.246 8.92402 41.082 8.78802 41.851C8.44702 43.776 8.44801 52.381 8.79001 54.43C8.94401 55.352 9.18701 59.948 9.33201 64.643C9.47601 69.338 9.71101 73.489 9.85401 73.868C9.99801 74.246 10.208 76.631 10.32 79.168C10.433 81.704 10.688 84.283 10.887 84.898C11.085 85.513 11.303 87.912 11.37 90.233C11.437 92.553 11.607 94.628 11.746 94.845C11.886 95.063 12.145 97.099 12.321 99.37C12.498 101.641 12.764 103.654 12.913 103.842C13.062 104.031 13.255 105.177 13.342 106.389C13.516 108.804 13.734 109.23 14.65 108.939C15.216 108.759 18.01 106.197 18.01 105.858C18.01 105.649 20.06 102.992 21.085 101.87C21.546 101.366 21.924 100.88 21.924 100.791C21.924 100.702 22.427 100.028 23.042 99.294C23.657 98.559 24.16 97.818 24.16 97.647C24.16 97.477 24.317 97.334 24.509 97.331C24.702 97.327 25.362 96.62 25.977 95.76C27.065 94.236 27.33 93.896 28.492 92.539C28.799 92.18 29.767 90.943 30.644 89.79C31.522 88.637 32.623 87.28 33.091 86.776C33.56 86.272 33.943 85.779 33.943 85.681C33.943 85.494 34.506 84.856 35.551 83.86C35.897 83.53 36.183 83.125 36.186 82.961C36.19 82.796 36.598 82.195 37.095 81.625C37.591 81.055 38.437 79.992 38.975 79.263C39.85 78.078 40.279 77.553 41.565 76.093C42.754 74.742 44.286 72.771 44.286 72.591C44.286 72.475 44.456 72.241 44.664 72.071C45.159 71.664 48.199 67.788 48.199 67.564C48.199 67.468 48.639 66.975 49.177 66.467C49.716 65.96 50.156 65.418 50.156 65.263C50.156 65.107 50.345 64.824 50.575 64.632C51.344 63.994 49.837 61.278 48.715 61.278C48.572 61.278 48.178 61.013 47.838 60.688C47.499 60.364 46.277 59.428 45.124 58.609C43.971 57.79 42.633 56.755 42.151 56.308C40.872 55.125 38.803 53.451 38.619 53.451C38.531 53.451 37.967 52.98 37.364 52.403C36.761 51.827 35.23 50.474 33.963 49.398C30.704 46.632 23.491 39.414 21.518 36.945C20.602 35.8 19.439 34.455 18.932 33.955C18.425 33.456 18.01 32.928 18.01 32.781C18.01 32.635 17.793 32.393 17.527 32.244C16.692 31.777 16.838 28.638 17.738 27.692C18.988 26.379 21.656 26.35 22.805 27.637C23.059 27.922 23.71 28.629 24.252 29.21C24.793 29.79 25.277 30.373 25.327 30.505C25.605 31.239 35.458 41.42 37.018 42.584C37.556 42.986 38.625 43.957 39.394 44.742C40.163 45.527 40.884 46.173 40.996 46.177C41.109 46.181 41.654 46.624 42.208 47.162C42.762 47.7 43.299 48.142 43.401 48.143C43.503 48.144 44.05 48.584 44.617 49.121C45.183 49.658 45.78 50.097 45.944 50.097C46.108 50.097 46.242 50.217 46.242 50.363C46.242 50.509 47.301 51.381 48.595 52.301C51.379 54.279 54.777 56.819 55.721 57.627C56.091 57.944 56.563 58.203 56.769 58.203C56.975 58.203 57.144 58.321 57.144 58.464C57.144 58.607 57.376 58.798 57.659 58.888C57.942 58.978 59.564 59.974 61.264 61.102C62.964 62.23 64.525 63.237 64.733 63.341C64.94 63.444 65.991 64.025 67.067 64.632C68.143 65.24 69.338 65.895 69.723 66.087C70.107 66.28 70.487 66.527 70.567 66.636C70.647 66.745 71.024 66.967 71.405 67.13C72.057 67.408 72.358 67.568 73.566 68.272C73.835 68.429 74.433 68.751 74.894 68.987C75.355 69.224 76.047 69.597 76.431 69.816C76.816 70.035 77.335 70.217 77.585 70.219C77.835 70.221 78.196 70.412 78.388 70.642C78.579 70.873 78.88 71.061 79.055 71.061C79.231 71.061 79.844 71.313 80.418 71.621C80.991 71.928 81.671 72.18 81.929 72.18C82.186 72.18 82.63 72.391 82.915 72.649C84.274 73.878 87.726 73.028 90.285 70.833C90.449 70.693 90.889 70.417 91.264 70.22C91.638 70.023 92.045 69.691 92.168 69.483C92.291 69.275 92.507 69.105 92.649 69.105C92.959 69.105 96.379 66.815 96.51 66.519C96.562 66.404 96.75 66.309 96.93 66.309C97.109 66.309 97.633 65.997 98.094 65.616C99.26 64.653 99.336 64.597 100.75 63.655C101.442 63.194 102.108 62.66 102.231 62.467C102.354 62.274 102.588 62.117 102.75 62.117C103.018 62.117 104.363 61.131 106.828 59.126C107.327 58.72 108.102 58.211 108.55 57.994C108.998 57.777 109.848 57.161 110.438 56.625C111.028 56.089 112.078 55.259 112.769 54.78C113.461 54.302 114.404 53.549 114.864 53.107C115.324 52.666 116.298 51.921 117.03 51.451C117.761 50.982 118.36 50.485 118.36 50.348C118.36 50.21 118.536 50.097 118.75 50.097C118.965 50.097 119.527 49.657 120 49.119C120.472 48.581 120.957 48.139 121.077 48.137C121.344 48.132 122.56 47.188 123.863 45.974C124.398 45.474 124.924 45.066 125.03 45.066C125.137 45.066 125.416 44.846 125.651 44.577C125.886 44.307 126.432 43.836 126.864 43.528C127.713 42.924 129.24 41.626 131.054 39.968C131.682 39.393 132.291 38.922 132.406 38.92C132.521 38.918 132.616 38.727 132.616 38.497C132.616 38.266 132.834 38.078 133.1 38.078C133.366 38.078 134.131 37.543 134.8 36.89C135.469 36.236 136.436 35.293 136.948 34.793C137.461 34.294 137.947 33.885 138.029 33.885C138.326 33.885 139.604 32.554 139.604 32.245C139.604 32.071 139.74 31.928 139.906 31.928C141.105 31.928 155.537 16.193 155.537 14.886C155.537 14.166 153.433 13.41 150.43 13.052C148.703 12.845 145.293 12.415 142.852 12.096C140.411 11.777 136.111 11.396 133.296 11.25C130.481 11.103 127.887 10.923 127.531 10.851C127.176 10.778 124.118 10.579 120.736 10.409C117.354 10.238 113.957 9.975 113.189 9.825C110.161 9.232 58.031 8.507 55.187 9.019ZM89.569 9.592C93.643 9.751 97.92 9.933 99.073 9.997C100.226 10.061 104.502 10.237 108.577 10.388C118.122 10.741 124.256 11.113 132.057 11.815C135.516 12.126 138.912 12.377 139.604 12.372C140.296 12.368 142.101 12.551 143.616 12.78C145.131 13.008 147.727 13.323 149.386 13.479C151.269 13.657 152.888 13.979 153.695 14.336L154.989 14.908L153.526 17.059C152.049 19.229 140.99 30.619 137.054 34.024C135.988 34.947 134.763 36.016 134.332 36.4C131.832 38.632 128.135 41.82 127.364 42.41C127.163 42.564 126.784 42.886 126.523 43.126C126.06 43.549 121.873 46.953 121.3 47.37C121.144 47.484 120.575 47.945 120.037 48.395C119.499 48.845 118.087 49.946 116.899 50.843C115.711 51.74 113.069 53.742 111.029 55.292C105.278 59.662 100.04 63.506 96.976 65.606C95.439 66.66 93.238 68.175 92.085 68.973C88.128 71.712 86.257 72.739 85.224 72.739C84.243 72.739 77.284 69.763 74.754 68.262C72.712 67.05 68.795 64.912 68.617 64.912C68.494 64.912 68.247 64.736 68.068 64.52C67.889 64.305 67.426 64.049 67.039 63.952C66.652 63.855 65.715 63.339 64.957 62.806C64.199 62.273 63.513 61.837 63.433 61.837C63.353 61.837 62.661 61.397 61.896 60.859C61.13 60.321 60.392 59.881 60.256 59.881C60.119 59.881 59.858 59.7 59.675 59.48C59.492 59.259 58.859 58.827 58.269 58.519C57.679 58.212 56.644 57.543 55.968 57.033C55.292 56.524 54.384 55.855 53.95 55.548C53.516 55.24 52.812 54.706 52.386 54.36C51.961 54.014 51.493 53.731 51.347 53.731C51.201 53.731 50.841 53.466 50.549 53.141C50.256 52.817 49.387 52.129 48.618 51.613C47.85 51.097 46.843 50.321 46.382 49.889C45.921 49.457 44.527 48.289 43.284 47.294C37.523 42.683 29.499 34.733 24.501 28.686C22.339 26.07 20.686 25.4 18.786 26.37C15.596 27.997 15.316 30.506 17.972 33.669C18.685 34.519 19.96 36.045 20.806 37.061C23 39.699 32.554 49.094 35.201 51.218C36.431 52.205 37.5 53.095 37.577 53.195C37.918 53.642 44.764 59.094 47.328 60.96C50.626 63.36 50.743 63.679 49.078 65.7C48.486 66.42 46.14 69.398 43.865 72.319C41.591 75.24 39.591 77.756 39.421 77.91C39.012 78.279 37.824 79.765 37.298 80.566C37.067 80.917 36.627 81.491 36.319 81.842C36.012 82.192 35.509 82.827 35.201 83.252C34.894 83.677 34.174 84.599 33.602 85.3C33.029 86.001 31.717 87.644 30.685 88.951C29.652 90.258 28.23 92.019 27.523 92.864C26.817 93.71 25.87 94.9 25.419 95.51C24.968 96.119 24.406 96.812 24.17 97.049C23.934 97.286 21.939 99.777 19.736 102.584C14.259 109.563 13.901 109.706 13.621 105.024C13.539 103.64 13.35 102.276 13.201 101.992C13.053 101.709 12.827 99.822 12.7 97.799C12.573 95.777 12.334 93.69 12.169 93.161C12.005 92.633 11.791 90.494 11.695 88.409C11.599 86.324 11.41 84.115 11.275 83.5C11.141 82.885 10.897 79.804 10.733 76.652C10.57 73.5 10.309 70.544 10.154 70.083C9.27501 67.473 9.29001 28.547 10.171 25.493C10.327 24.951 10.556 22.474 10.68 19.989C10.988 13.819 10.325 14.321 20.386 12.645C21.463 12.466 23.79 12.077 25.558 11.781C27.326 11.485 29.527 11.24 30.449 11.237C31.372 11.233 32.63 11.109 33.245 10.96C34.302 10.705 44.511 9.995 53.091 9.58C59.437 9.272 81.562 9.28 89.569 9.592ZM108.43 67.18C107.819 67.503 107.13 67.926 106.899 68.12C106.426 68.517 103.904 70.283 102.427 71.251C101.889 71.604 101.316 71.988 101.154 72.106C100.708 72.429 99.903 72.948 98.537 73.792C97.858 74.212 97.101 74.744 96.856 74.975C96.61 75.205 96.097 75.553 95.715 75.748C94.546 76.343 91.721 77.923 90.687 78.56C90.149 78.892 89.52 79.242 89.289 79.339C89.059 79.435 88.304 79.779 87.612 80.103C85.975 80.869 83.693 80.84 82.172 80.034C81.563 79.711 80.792 79.447 80.459 79.447C80.126 79.447 79.697 79.259 79.506 79.028C79.315 78.797 79.016 78.609 78.843 78.609C78.563 78.61 76.73 77.799 75.593 77.171C75.362 77.044 74.78 76.762 74.299 76.545C73.818 76.328 73.339 76.011 73.234 75.842C73.13 75.673 72.744 75.534 72.378 75.534C72.012 75.534 71.624 75.392 71.517 75.218C71.41 75.045 70.428 74.475 69.334 73.953C68.241 73.43 66.592 72.564 65.669 72.027C64.747 71.491 63.68 70.897 63.297 70.707C62.915 70.518 62.381 70.143 62.109 69.874C61.838 69.604 61.42 69.384 61.18 69.384C60.94 69.384 60.168 68.944 59.463 68.406C57.311 66.763 56.18 67.169 54.008 70.363C53.589 70.978 52.618 72.173 51.848 73.018C51.079 73.864 50.446 74.717 50.442 74.914C50.438 75.111 50.247 75.344 50.016 75.433C49.785 75.521 49.597 75.741 49.597 75.921C49.597 76.101 49.377 76.46 49.108 76.72C48.364 77.437 47.8 78.117 47.306 78.888C47.061 79.273 46.624 79.839 46.335 80.146C46.047 80.454 45.214 81.46 44.485 82.382C43.756 83.305 42.784 84.457 42.325 84.944C41.866 85.43 41.491 85.965 41.491 86.132C41.491 86.299 41.377 86.435 41.238 86.435C41.099 86.435 40.547 87.096 40.01 87.903C39.473 88.71 38.706 89.723 38.306 90.153C37.905 90.584 37.577 91.051 37.577 91.192C37.577 91.332 37.326 91.582 37.018 91.746C36.711 91.911 36.459 92.167 36.459 92.315C36.459 92.464 36.239 92.81 35.97 93.086C35.701 93.362 35.229 93.942 34.922 94.375C34.614 94.808 34.208 95.325 34.02 95.525C33.071 96.525 30.31 100.16 30.31 100.407C30.31 100.563 30.121 100.691 29.89 100.691C29.66 100.691 29.47 100.848 29.47 101.041C29.469 101.233 29.123 101.767 28.701 102.229C27.553 103.483 26.396 105.087 26.396 105.424C26.396 105.588 26.208 105.723 25.977 105.723C25.746 105.723 25.558 105.838 25.558 105.978C25.558 106.119 25.122 106.682 24.589 107.231C24.056 107.78 23.435 108.577 23.208 109.002C22.815 109.739 21.883 110.935 20.954 111.896C18.881 114.039 21.713 115.025 32.965 116.075C34.502 116.219 37.584 116.526 39.813 116.758C43.773 117.169 48.713 117.577 55.187 118.028C59.643 118.337 97.524 118.319 100.61 118.006C101.994 117.865 105.332 117.627 108.028 117.475C110.724 117.324 113.994 117.071 115.295 116.913C116.596 116.755 119.611 116.498 121.994 116.342C124.377 116.187 127.458 115.881 128.842 115.664C131.252 115.285 135.35 114.735 140.442 114.107C147.042 113.293 147.806 112.454 144.705 109.424C144.205 108.936 143.797 108.408 143.797 108.25C143.797 108.092 143.545 107.806 143.238 107.614C142.93 107.422 142.679 107.167 142.679 107.047C142.679 106.719 137.659 100.329 137.055 99.888C136.766 99.677 136.529 99.332 136.529 99.12C136.529 98.908 136.416 98.734 136.279 98.734C136.141 98.734 135.625 98.106 135.131 97.337C134.638 96.568 134.143 95.939 134.032 95.939C133.92 95.939 133.438 95.405 132.96 94.751C132.482 94.098 131.769 93.198 131.375 92.751C130.981 92.304 130.659 91.833 130.659 91.703C130.659 91.574 130.163 90.933 129.557 90.279C127.847 88.433 127.584 88.124 127.584 87.954C127.584 87.714 125.044 84.632 124.758 84.525C124.621 84.474 124.509 84.299 124.509 84.137C124.509 83.867 121.583 80.051 121.127 79.727C121.019 79.65 120.356 78.832 119.653 77.91C118.95 76.987 118.215 76.052 118.018 75.83C117.468 75.21 115.475 72.605 115.006 71.893C114.775 71.543 114.114 70.741 113.536 70.111C112.958 69.481 112.077 68.503 111.579 67.938C110.403 66.606 109.793 66.459 108.43 67.18ZM111.32 68.31C111.733 68.796 113.729 71.312 115.756 73.902C117.783 76.493 119.607 78.787 119.809 79C120.011 79.214 120.453 79.748 120.791 80.187C121.72 81.393 123.014 83.033 125.545 86.211C127.761 88.993 132.738 95.264 141.351 106.124C146.478 112.59 146.522 112.855 142.51 113.156C141.296 113.246 139.007 113.561 137.423 113.854C135.84 114.148 133.953 114.388 133.23 114.388C132.508 114.388 131.036 114.565 129.96 114.781C128.884 114.998 126.557 115.256 124.789 115.355C123.021 115.454 120.883 115.651 120.037 115.793C119.191 115.935 116.739 116.183 114.586 116.343C112.434 116.504 107.969 116.837 104.663 117.083C97.208 117.639 57.886 117.748 52.811 117.227C51.12 117.053 47.042 116.715 43.75 116.475C40.457 116.236 37.675 115.986 37.568 115.92C37.461 115.854 35.25 115.603 32.654 115.363C30.058 115.122 27.745 114.858 27.514 114.775C27.284 114.693 26.012 114.511 24.689 114.373C20.375 113.921 20.159 113.328 23.13 110.075C23.466 109.707 23.929 109.124 24.16 108.779C24.391 108.434 25.208 107.4 25.977 106.481C26.746 105.562 27.716 104.355 28.133 103.799C28.55 103.243 29.259 102.347 29.708 101.809C30.157 101.271 31.501 99.573 32.694 98.036C33.887 96.498 35.066 95.036 35.312 94.786C35.559 94.535 36.012 93.977 36.319 93.545C36.627 93.112 37.351 92.185 37.929 91.484C38.507 90.783 39.697 89.266 40.575 88.113C41.452 86.959 42.522 85.627 42.953 85.152C43.384 84.677 44.209 83.654 44.787 82.879C45.365 82.105 46.249 80.984 46.75 80.389C47.252 79.794 48.94 77.672 50.501 75.674C52.062 73.675 53.501 71.876 53.7 71.675C53.898 71.474 54.636 70.562 55.339 69.648C56.85 67.685 57.2 67.623 59.222 68.965C60.033 69.503 60.786 69.943 60.896 69.943C61.006 69.943 61.622 70.295 62.265 70.724C62.907 71.154 63.748 71.659 64.132 71.848C64.516 72.036 65.334 72.497 65.949 72.871C66.564 73.245 67.256 73.636 67.486 73.74C68.498 74.196 70.737 75.313 71.12 75.552C71.351 75.696 71.854 75.939 72.238 76.092C72.623 76.246 73.126 76.495 73.356 76.647C74.265 77.246 80.316 80.006 80.721 80.006C80.957 80.006 81.217 80.115 81.299 80.247C81.381 80.38 82.021 80.649 82.72 80.845C83.42 81.041 84.06 81.31 84.142 81.442C84.338 81.759 85.579 81.754 85.776 81.435C85.861 81.298 86.275 81.1 86.697 80.994C87.75 80.729 90.172 79.603 91.53 78.746C92.149 78.355 93.376 77.655 94.257 77.191C96.3 76.113 101.357 72.793 107.179 68.706C109.392 67.153 110.265 67.069 111.32 68.31Z" fill="#72BDD7"/>
<path fill-rule="evenodd" clip-rule="evenodd" d="M53.79 0.674004C53.252 0.825004 49.072 1.046 44.501 1.165C39.76 1.289 36.039 1.501 35.836 1.66C35.641 1.813 33.481 2.088 31.037 2.27C28.593 2.453 26.369 2.723 26.094 2.87C25.819 3.017 24.674 3.144 23.549 3.154C22.425 3.163 20.876 3.296 20.107 3.45C19.338 3.604 17.514 3.916 16.054 4.144C14.593 4.372 13.147 4.671 12.839 4.808C12.532 4.945 11.463 5.18 10.463 5.33C5.90401 6.017 3.54301 7.046 3.31701 8.444C3.23001 8.984 2.98601 9.867 2.77501 10.405C2.56401 10.943 2.30901 12.138 2.20801 13.06C2.10601 13.983 1.88401 14.907 1.71301 15.115C1.53401 15.333 1.36101 16.997 1.30501 19.029C1.24701 21.135 1.01601 23.298 0.734012 24.381C0.0270124 27.095 0.0540096 59.927 0.76701 64.332C1.05701 66.125 1.24501 68.921 1.25301 71.6C1.26101 73.994 1.39101 76.834 1.54101 77.91C1.69201 78.986 1.94501 81.565 2.10401 83.64C2.26301 85.716 2.57401 88.231 2.79501 89.231C3.01601 90.23 3.20501 92.054 3.21401 93.284C3.22301 94.514 3.34301 96.4 3.48001 97.477C3.61701 98.553 3.90901 101.068 4.12901 103.067C4.34901 105.066 4.65201 107.015 4.80201 107.4C4.95201 107.784 5.16302 109.671 5.27102 111.593C5.38902 113.681 5.62901 115.413 5.86901 115.898C6.09001 116.345 6.27001 117.315 6.27001 118.054C6.27001 119.469 6.99001 120.537 7.94401 120.537C8.19201 120.537 8.51402 120.652 8.66002 120.792C8.80602 120.933 10.026 121.18 11.371 121.341C12.716 121.503 14.1 121.791 14.446 121.981C14.792 122.172 16.208 122.421 17.591 122.535C20.71 122.793 26.419 123.676 26.874 123.971C27.06 124.092 28.696 124.259 30.508 124.342C32.321 124.426 34.759 124.677 35.926 124.901C37.094 125.125 40.113 125.422 42.635 125.562C45.157 125.701 47.85 125.932 48.618 126.076C53.403 126.971 104.863 126.962 108.437 126.065C109.052 125.911 111.63 125.679 114.167 125.55C116.704 125.421 119.848 125.126 121.155 124.895C122.462 124.664 125.103 124.418 127.025 124.349C128.947 124.281 130.853 124.094 131.261 123.935C131.67 123.776 133.537 123.505 135.411 123.333C137.285 123.16 139.129 122.901 139.509 122.757C139.888 122.612 140.977 122.487 141.928 122.477C142.879 122.468 144.223 122.351 144.915 122.216C149.065 121.408 153.191 120.748 155.285 120.557C157.961 120.312 159.344 119.596 159.623 118.311C159.708 117.921 159.95 117.141 160.161 116.578C160.372 116.015 160.615 114.38 160.702 112.944C160.789 111.509 161.042 109.203 161.264 107.819C161.485 106.435 161.794 103.983 161.948 102.368C162.103 100.754 162.35 98.741 162.497 97.896C162.643 97.05 162.773 94.952 162.784 93.232C162.795 91.512 162.943 89.751 163.112 89.319C163.282 88.886 163.534 85.89 163.674 82.662C163.813 79.433 164.07 76.477 164.244 76.093C164.439 75.661 164.636 72.25 164.76 67.148C164.87 62.613 165.095 58.494 165.26 57.995C165.548 57.123 165.755 51.156 165.725 44.59C165.713 42.05 165.621 41.359 165.236 40.934C164.975 40.646 164.761 40.294 164.761 40.152C164.761 39.798 163.072 38.48 162.306 38.237C160.816 37.764 158.736 38.352 157.383 39.63L156.096 40.846L156.092 43.166C156.091 44.441 155.909 46.161 155.689 46.988C155.406 48.052 155.233 51.11 155.096 57.47C154.99 62.409 154.786 66.677 154.642 66.956C154.498 67.235 154.259 70.664 154.111 74.577C153.963 78.49 153.727 81.996 153.585 82.369C153.444 82.741 153.248 85.16 153.151 87.745C153.039 90.742 152.829 92.832 152.573 93.513C152.32 94.187 152.114 96.198 152.015 98.964C151.777 105.635 151.793 105.624 148.199 101.774C147.93 101.486 147.71 101.124 147.71 100.971C147.71 100.817 147.605 100.691 147.478 100.691C147.35 100.691 146.831 100.052 146.325 99.272C145.819 98.491 145.232 97.786 145.02 97.704C144.809 97.623 144.635 97.377 144.635 97.158C144.635 96.939 144.447 96.688 144.216 96.599C143.985 96.511 143.797 96.293 143.797 96.116C143.797 95.938 143.347 95.292 142.798 94.678C142.249 94.065 141.055 92.62 140.144 91.467C137.929 88.663 137.061 87.612 136.368 86.895C136.049 86.566 135.402 85.73 134.929 85.038C134.456 84.346 133.551 83.214 132.918 82.522C132.284 81.83 131.319 80.601 130.774 79.791C129.875 78.455 129.165 77.565 128.044 76.372C127.828 76.142 127.351 75.509 126.986 74.965C126.249 73.869 125.907 73.453 124.579 72.027C124.08 71.49 123.671 70.986 123.671 70.905C123.671 70.64 122.428 69.008 121.505 68.061C121.005 67.549 120.596 67.064 120.596 66.983C120.596 66.903 119.967 66.06 119.198 65.11C117.306 62.771 117.639 61.033 120.165 60.064C120.402 59.973 120.596 59.768 120.596 59.61C120.596 59.451 120.778 59.321 121 59.321C121.221 59.321 121.567 59.09 121.768 58.807C121.969 58.523 122.273 58.24 122.445 58.178C122.788 58.052 124.45 56.68 126.226 55.059C126.857 54.482 127.473 54.01 127.595 54.01C127.716 54.01 128.269 53.57 128.823 53.032C129.377 52.494 129.923 52.054 130.037 52.054C130.151 52.054 130.648 51.614 131.141 51.075C131.635 50.537 132.113 50.097 132.203 50.097C132.293 50.097 132.768 49.713 133.26 49.243C133.751 48.773 134.499 48.204 134.922 47.978C135.345 47.752 135.69 47.444 135.69 47.295C135.69 47.145 135.81 47.022 135.956 47.022C136.341 47.022 137.647 45.756 137.647 45.383C137.647 45.208 137.808 45.066 138.004 45.066C138.201 45.066 138.556 44.846 138.794 44.577C139.032 44.307 139.762 43.647 140.415 43.109C143.755 40.358 150.229 34.156 156.317 27.875C158.106 26.029 160.848 22.585 160.848 22.184C160.848 22.008 160.958 21.865 161.094 21.865C161.229 21.865 161.95 20.953 162.696 19.839C163.442 18.724 164.149 17.742 164.267 17.656C164.647 17.379 165.659 12.886 165.514 12.122C164.688 7.787 161.22 5.567 154.683 5.187C153.077 5.094 151.531 4.898 151.248 4.752C150.965 4.607 149.029 4.367 146.947 4.221C144.864 4.074 142.902 3.816 142.586 3.646C142.27 3.477 139.74 3.238 136.964 3.115C134.188 2.992 130.848 2.761 129.541 2.602C128.234 2.443 124.964 2.183 122.273 2.024C119.583 1.865 116.187 1.622 114.726 1.484C113.266 1.346 108.36 1.219 103.825 1.202C97.671 1.179 95.153 1.069 93.901 0.766999C91.877 0.277999 55.497 0.194004 53.79 0.674004ZM99.911 1.429C108.542 1.701 113.549 1.968 121.435 2.578C123.356 2.726 127.004 2.971 129.541 3.122C132.078 3.273 135.411 3.531 136.948 3.695C138.486 3.859 141.001 4.12 142.539 4.275C144.076 4.431 146.152 4.67 147.151 4.807C148.15 4.944 150.603 5.256 152.602 5.501C157.8 6.137 159.774 6.461 160.123 6.736C160.291 6.869 160.899 7.129 161.475 7.315C162.818 7.747 164.362 9.612 164.737 11.254C165.608 15.058 163.116 19.681 156.091 27.297C155.088 28.384 154.019 29.587 153.713 29.971C153.14 30.694 146.07 37.361 141.71 41.292C140.346 42.522 138.88 43.864 138.452 44.274C138.025 44.684 136.757 45.748 135.634 46.638C134.512 47.528 133.028 48.784 132.336 49.428C131.644 50.072 130.324 51.206 129.401 51.948C128.479 52.689 127.571 53.425 127.384 53.583C127.197 53.741 126.85 54.034 126.612 54.234C126.375 54.434 124.892 55.619 123.318 56.867C121.744 58.115 120.356 59.304 120.233 59.508C120.11 59.713 119.858 59.881 119.674 59.881C118.876 59.881 116.911 62.074 117.118 62.734C117.367 63.53 118.592 65.307 119.752 66.555C120.235 67.075 120.838 67.83 121.092 68.232C121.62 69.069 123.384 71.342 123.829 71.76C124.432 72.325 126.466 74.919 126.466 75.123C126.466 75.238 126.642 75.472 126.857 75.643C127.072 75.814 129.161 78.406 131.5 81.404C133.838 84.402 136.156 87.297 136.65 87.837C137.144 88.378 137.791 89.195 138.087 89.654C138.383 90.113 139.569 91.627 140.722 93.018C141.875 94.41 143.573 96.532 144.495 97.734C146.131 99.865 148.275 102.559 150.02 104.674C151.712 106.726 152.088 106.107 152.356 100.831C152.442 99.14 152.622 97.379 152.757 96.918C152.891 96.456 153.137 94.129 153.304 91.746C153.47 89.363 153.73 86.345 153.882 85.038C154.034 83.731 154.265 80.649 154.396 78.189C154.527 75.73 154.834 70.635 155.078 66.869C155.655 57.954 156.057 50.936 156.276 45.904C156.529 40.117 157.468 38.637 160.886 38.637C164.902 38.637 165.548 40.392 165.071 49.998C164.881 53.819 164.613 59.901 164.475 63.514C164.338 67.127 164.089 71.379 163.923 72.962C163.756 74.546 163.502 77.628 163.359 79.811C162.968 85.761 162.307 93.784 161.961 96.778C161.571 100.157 160.939 105.898 160.561 109.496C159.901 115.78 159.232 118.949 158.507 119.227C158.323 119.298 156.542 119.622 154.549 119.948C152.556 120.274 150.233 120.664 149.387 120.814C146.119 121.395 140.19 122.251 137.787 122.489C134.738 122.792 129.189 123.502 126.853 123.888C125.913 124.044 124.529 124.17 123.778 124.169C123.027 124.168 120.589 124.357 118.36 124.588C100.694 126.42 68.505 126.946 51.833 125.676C48.835 125.447 44.81 125.148 42.888 125.011C37.779 124.647 28.643 123.628 24.999 123.016C24.153 122.874 22.455 122.637 21.225 122.488C19.995 122.339 16.976 121.842 14.516 121.382C12.057 120.922 9.55801 120.473 8.96501 120.383C7.35601 120.141 6.55001 119.191 6.55001 117.536C6.55001 116.794 6.36202 115.499 6.13202 114.658C5.90202 113.818 5.63901 111.809 5.54801 110.195C5.45701 108.581 5.26601 106.877 5.12501 106.41C4.98401 105.942 4.67701 103.741 4.44401 101.518C4.21101 99.295 3.90301 96.911 3.76001 96.219C3.61701 95.527 3.49201 93.829 3.48201 92.445C3.47301 91.061 3.27301 88.86 3.03901 87.553C2.80501 86.247 2.49701 83.228 2.35401 80.845C2.21201 78.462 1.97301 75.883 1.82401 75.115C1.67401 74.346 1.54401 72.283 1.53501 70.529C1.52601 68.776 1.29801 64.688 1.02901 61.445C0.407011 53.941 0.331015 32.407 0.910015 27.595C1.11401 25.904 1.33701 23.389 1.40701 22.005C1.47601 20.621 1.71001 18.546 1.92501 17.393C2.14101 16.24 2.44801 14.479 2.60801 13.479C2.76701 12.48 3.02601 11.159 3.18201 10.544C3.33801 9.929 3.53601 9.071 3.62101 8.638C3.79201 7.765 5.77101 6.693 7.84201 6.351C8.43801 6.253 9.74401 5.977 10.743 5.738C11.742 5.499 13.252 5.206 14.097 5.086C14.943 4.966 17.601 4.545 20.005 4.151C22.409 3.757 25.805 3.306 27.552 3.149C29.299 2.992 31.798 2.735 33.105 2.578C37.055 2.102 42.406 1.733 49.13 1.474C52.64 1.339 55.578 1.162 55.659 1.082C55.893 0.847001 89.94 1.114 99.911 1.429ZM55.746 9.839C54.901 9.961 50.687 10.204 46.382 10.38C42.078 10.555 37.109 10.878 35.341 11.097C33.573 11.316 30.869 11.623 29.331 11.778C26.647 12.05 24.974 12.282 20.876 12.947C19.838 13.116 18.234 13.375 17.312 13.524C16.389 13.672 15.006 13.97 14.237 14.186C13.468 14.401 12.57 14.649 12.241 14.736C11.422 14.954 11.027 16.672 11.006 20.102C10.997 21.61 10.806 24.227 10.582 25.918C9.52201 33.921 9.52501 61.022 10.586 70.223C10.808 72.145 10.997 74.926 11.006 76.404C11.015 77.882 11.15 79.767 11.307 80.592C11.464 81.418 11.72 83.9 11.877 86.107C12.033 88.314 12.345 91.335 12.569 92.82C12.793 94.305 12.976 96.212 12.977 97.057C12.978 97.903 13.165 99.475 13.393 100.551C13.621 101.628 13.891 103.672 13.993 105.094C14.271 108.943 14.327 108.917 19.12 102.788C20.683 100.789 22.487 98.538 23.131 97.785C23.774 97.032 24.673 95.9 25.129 95.269C25.586 94.638 26.035 94.059 26.128 93.983C26.221 93.906 27.539 92.27 29.058 90.349C30.576 88.427 31.992 86.678 32.205 86.463C32.417 86.247 33.105 85.366 33.733 84.506C34.361 83.645 35.263 82.497 35.737 81.954C36.211 81.411 36.85 80.604 37.158 80.162C37.465 79.72 38.104 78.906 38.578 78.354C39.052 77.802 41.11 75.212 43.153 72.599C45.196 69.985 47.041 67.707 47.253 67.537C47.466 67.366 47.64 67.136 47.64 67.025C47.64 66.914 48.08 66.286 48.618 65.629C50.291 63.588 49.874 62.965 44.286 59.152C43.037 58.3 38.458 54.578 37.121 53.328C36.947 53.165 36.261 52.592 35.597 52.054C34.933 51.516 33.822 50.572 33.127 49.957C31.214 48.265 21.644 38.718 21.644 38.502C21.644 38.398 21.173 37.842 20.596 37.266C15.301 31.975 14.535 29.002 17.821 26.496C20.218 24.668 22.801 25.6 25.418 29.237C27.439 32.047 38.365 42.893 42.609 46.302C43.3 46.858 44.726 48.034 45.776 48.915C46.827 49.796 48.167 50.842 48.756 51.24C49.344 51.638 50.04 52.178 50.302 52.44C50.564 52.701 51.424 53.351 52.214 53.884C53.004 54.416 54.558 55.511 55.668 56.318C56.777 57.124 58.399 58.224 59.272 58.762C60.145 59.3 60.998 59.868 61.168 60.024C61.338 60.179 61.791 60.462 62.175 60.651C62.56 60.841 63.629 61.495 64.551 62.105C65.474 62.715 66.543 63.344 66.927 63.504C67.312 63.663 67.815 63.921 68.045 64.077C68.276 64.233 68.811 64.497 69.233 64.664C69.656 64.83 70.002 65.068 70.002 65.191C70.002 65.315 70.348 65.55 70.771 65.714C71.194 65.877 72.42 66.511 73.496 67.122C76.037 68.565 77.473 69.26 82.301 71.386C82.993 71.691 83.777 72.057 84.044 72.2C84.76 72.582 85.571 72.517 86.578 71.997C87.476 71.533 93.78 67.449 94.041 67.161C94.118 67.077 94.936 66.497 95.858 65.873C98.821 63.868 102.573 61.205 105.362 59.128C111.233 54.756 112.899 53.5 114.008 52.613C114.681 52.075 115.526 51.411 115.887 51.138C119.391 48.483 126.68 42.678 127.025 42.267C127.102 42.176 127.983 41.43 128.982 40.61C131.435 38.596 136.349 34.247 139.579 31.229C145.146 26.028 153.3 17.392 153.3 16.696C153.3 16.596 153.489 16.326 153.72 16.095C154.876 14.938 152.319 13.923 147.506 13.629C145.933 13.533 143.689 13.271 142.52 13.048C141.35 12.824 139.372 12.641 138.123 12.641C136.874 12.641 134.275 12.456 132.347 12.23C130.419 12.003 125.872 11.688 122.242 11.528C118.612 11.369 114.964 11.124 114.136 10.984C113.307 10.845 109.108 10.647 104.803 10.545C100.498 10.443 94.398 10.235 91.246 10.082C83.92 9.727 57.769 9.548 55.746 9.839ZM84.916 10.388C85.509 10.526 91.483 10.724 98.193 10.828C106.731 10.96 110.969 11.133 112.312 11.401C113.439 11.627 117.244 11.862 121.536 11.972C125.554 12.075 129.157 12.282 129.541 12.432C129.925 12.582 132.378 12.763 134.992 12.834C138.139 12.918 140.099 13.096 140.797 13.36C141.377 13.58 142.761 13.767 143.872 13.776C150.655 13.834 154.145 15.092 152.48 16.878C152.163 17.219 151.903 17.606 151.903 17.737C151.903 18.431 134.991 35.282 134.294 35.282C134.167 35.282 133.722 35.691 133.305 36.191C132.888 36.69 132.32 37.225 132.043 37.379C131.61 37.618 128.575 40.257 126.985 41.775C126.706 42.04 126.004 42.606 125.424 43.033C124.844 43.459 124.055 44.08 123.671 44.413C122.141 45.738 115.784 50.656 115.602 50.656C115.495 50.656 114.76 51.274 113.968 52.029C113.177 52.784 112.3 53.475 112.02 53.564C111.741 53.654 111.008 54.164 110.393 54.699C108.825 56.061 108.876 56.023 107.249 57.072C106.442 57.592 105.78 58.091 105.779 58.181C105.778 58.27 105.307 58.654 104.731 59.035C104.156 59.415 103.169 60.138 102.538 60.642C101.907 61.146 101.305 61.558 101.199 61.558C100.954 61.558 99.479 62.619 98.539 63.473C98.141 63.834 97.437 64.323 96.976 64.56C96.515 64.796 96.075 65.067 95.998 65.161C95.742 65.475 92.968 67.368 90.834 68.686C90.087 69.147 89.268 69.713 89.014 69.943C86.859 71.903 84.537 72.036 81.372 70.382C80.324 69.833 79.293 69.384 79.081 69.384C78.87 69.384 77.946 68.944 77.028 68.406C76.11 67.868 75.167 67.428 74.933 67.428C74.699 67.428 74.422 67.289 74.317 67.12C74.212 66.95 73.733 66.632 73.252 66.413C72.772 66.194 71.875 65.699 71.26 65.313C70.645 64.928 69.576 64.329 68.884 63.984C68.192 63.638 67.06 62.983 66.368 62.529C65.676 62.075 64.796 61.548 64.412 61.357C64.027 61.165 63.475 60.85 63.184 60.654C60.366 58.764 58.096 57.365 57.849 57.365C57.683 57.365 57.136 56.988 56.632 56.528C56.127 56.067 55.447 55.547 55.119 55.372C54.478 55.029 54.331 54.917 53.167 53.885C52.747 53.514 51.678 52.732 50.791 52.149C49.903 51.565 49.009 50.926 48.804 50.728C48.598 50.53 47.969 50.025 47.406 49.605C46.843 49.186 46.319 48.775 46.242 48.692C46.166 48.609 45.474 48.042 44.705 47.432C43.936 46.822 43.245 46.247 43.168 46.154C43.091 46.06 42.235 45.327 41.267 44.525C36.843 40.859 27.52 31.428 25.771 28.849C22.775 24.433 19.152 23.887 16.191 27.407C14.13 29.857 15.182 32.449 20.317 37.569C20.893 38.144 21.365 38.714 21.365 38.835C21.367 39.366 31.893 49.715 34.946 52.187C35.702 52.799 36.445 53.439 36.599 53.609C36.753 53.78 37.885 54.721 39.115 55.702C40.345 56.682 41.42 57.581 41.505 57.7C41.844 58.177 44.691 60.16 45.035 60.16C45.238 60.16 45.404 60.26 45.404 60.382C45.404 60.504 46.045 61.093 46.828 61.69C49.187 63.489 49.402 64.218 48.024 65.751C47.817 65.981 47.14 66.799 46.519 67.567C45.899 68.336 45.237 69.146 45.048 69.368C44.859 69.589 44.423 70.155 44.078 70.626C43.007 72.088 42.487 72.754 41.98 73.315C41.711 73.613 41.491 73.983 41.491 74.136C41.491 74.29 41.391 74.416 41.268 74.416C41.146 74.416 40.551 75.076 39.944 75.883C39.338 76.69 38.771 77.414 38.684 77.491C38.597 77.567 37.579 78.825 36.422 80.286C35.265 81.746 34.108 83.114 33.851 83.325C33.594 83.536 33.384 83.824 33.384 83.966C33.384 84.107 33.119 84.5 32.795 84.84C32.471 85.179 31.92 85.897 31.571 86.435C31.221 86.973 30.606 87.719 30.203 88.091C29.801 88.464 29.471 88.908 29.471 89.077C29.471 89.247 29.251 89.592 28.982 89.843C28.275 90.504 26.98 92.061 24.491 95.24C23.288 96.778 22.092 98.208 21.834 98.419C21.576 98.63 21.365 98.966 21.365 99.165C21.365 99.364 21.253 99.568 21.116 99.62C20.744 99.759 18.29 102.846 18.29 103.174C18.29 103.331 18.131 103.559 17.937 103.682C17.742 103.805 17.033 104.573 16.36 105.389C14.692 107.412 14.686 107.4 14.093 100.691C13.936 98.923 13.619 96.156 13.388 94.542C12.641 89.332 12.429 87.272 11.822 79.307C11.495 75.003 11.121 70.223 10.993 68.686C10.077 57.729 10.091 34.528 11.018 26.757C11.165 25.527 11.415 22.591 11.573 20.233C11.955 14.545 11.64 14.841 18.313 13.92C19.785 13.716 21.232 13.425 21.527 13.273C21.822 13.121 23.234 12.918 24.664 12.821C26.094 12.724 27.479 12.53 27.741 12.389C28.004 12.249 29.979 12.049 32.129 11.946C34.28 11.843 36.669 11.593 37.437 11.391C38.342 11.152 41.703 10.958 46.972 10.84C51.447 10.739 55.472 10.548 55.916 10.415C56.992 10.093 83.538 10.069 84.916 10.388ZM109.136 67.939C108.647 68.157 105.428 70.284 105.222 70.524C105.145 70.614 104.328 71.19 103.405 71.803C102.483 72.417 101.225 73.254 100.61 73.664C99.995 74.073 99.366 74.505 99.212 74.624C98.886 74.876 97.46 75.822 96.792 76.229C96.537 76.385 95.565 76.918 94.632 77.413C93.699 77.909 92.461 78.61 91.881 78.97C89.867 80.223 85.826 81.963 84.931 81.963C84.306 81.963 83.56 81.69 81.013 80.53C80.381 80.242 79.752 80.006 79.615 80.005C79.38 80.004 73.421 77.204 72.518 76.671C72.287 76.535 70.463 75.581 68.465 74.551C64.593 72.556 63.675 72.043 59.832 69.728L57.386 68.255L56.636 68.795C56.224 69.093 55.697 69.615 55.467 69.957C55.236 70.298 54.849 70.781 54.607 71.029C54.364 71.278 53.799 71.984 53.35 72.599C52.902 73.214 52.461 73.78 52.371 73.857C52.281 73.934 50.837 75.758 49.162 77.91C45.422 82.716 43.706 84.855 43.444 85.038C43.334 85.115 42.588 86.058 41.787 87.134C40.985 88.21 39.908 89.594 39.393 90.209C38.878 90.824 37.661 92.337 36.689 93.57C35.717 94.804 34.763 95.999 34.569 96.226C34.375 96.453 33.441 97.644 32.492 98.874C31.544 100.104 30.69 101.173 30.595 101.25C30.499 101.327 29.699 102.333 28.817 103.486C27.934 104.639 26.642 106.275 25.946 107.12C20.89 113.26 20.781 113.657 24.072 113.95C25.12 114.043 26.795 114.253 27.794 114.416C28.793 114.58 30.994 114.822 32.686 114.954C34.377 115.086 36.955 115.39 38.416 115.629C39.876 115.867 42.581 116.072 44.426 116.084C46.27 116.096 48.472 116.227 49.317 116.376C54.101 117.217 87.306 117.586 99.352 116.932C110.188 116.344 114.466 116.036 117.801 115.606C119.723 115.357 122.938 115.067 124.946 114.96C126.954 114.853 128.742 114.676 128.919 114.567C129.096 114.457 130.597 114.248 132.256 114.101C133.914 113.954 136.152 113.646 137.228 113.417C138.304 113.188 139.939 112.997 140.862 112.994C142.796 112.986 144.431 112.595 144.903 112.026C145.206 111.661 140.935 105.801 137.243 101.517C136.153 100.251 135.107 98.943 134.572 98.177C134.342 97.846 133.744 97.113 133.245 96.548C132.745 95.982 132.336 95.432 132.336 95.325C132.336 95.217 132.024 94.777 131.642 94.346C130.438 92.989 130.267 92.78 129.063 91.197C128.415 90.346 127.713 89.461 127.501 89.231C127.289 89 126.191 87.616 125.061 86.156C123.93 84.695 122.809 83.296 122.569 83.045C122.33 82.795 121.882 82.237 121.574 81.805C120.856 80.795 118.865 78.232 118.658 78.05C118.25 77.69 115.777 74.613 114.286 72.608C113.375 71.383 112.441 70.187 112.21 69.95C111.98 69.712 111.535 69.191 111.221 68.79C110.591 67.985 109.777 67.653 109.136 67.939ZM110.764 69.175C112.925 71.523 114.726 73.745 114.726 74.062C114.726 74.254 114.978 74.568 115.285 74.76C115.593 74.952 115.844 75.261 115.844 75.447C115.844 75.633 116.014 75.886 116.221 76.009C116.428 76.132 117.174 76.987 117.877 77.91C118.581 78.832 119.543 80.004 120.016 80.513C120.489 81.022 120.876 81.511 120.876 81.599C120.876 81.853 125.133 87.11 125.54 87.358C125.742 87.481 125.909 87.732 125.911 87.917C125.914 88.209 127.231 89.851 128.552 91.211C128.788 91.454 128.982 91.737 128.982 91.84C128.982 92.034 129.1 92.183 130.936 94.293C131.552 95.002 132.057 95.655 132.057 95.744C132.057 95.832 132.438 96.321 132.904 96.83C133.37 97.34 134.093 98.252 134.511 98.859C134.929 99.466 135.523 100.238 135.83 100.576C136.792 101.632 137.892 103.006 139.167 104.744C139.843 105.667 140.629 106.673 140.913 106.98C141.197 107.288 141.91 108.2 142.497 109.007C143.084 109.814 143.68 110.474 143.82 110.474C144.385 110.474 144.028 111.56 143.307 112.035C142.726 112.418 141.7 112.592 139.099 112.745C137.207 112.857 135.509 113.072 135.325 113.223C135.142 113.374 133.671 113.582 132.057 113.686C130.442 113.79 128.367 114.044 127.444 114.25C126.522 114.456 123.988 114.694 121.813 114.779C119.575 114.867 117.331 115.107 116.642 115.333C115.796 115.61 113.464 115.776 108.996 115.876C104.977 115.966 102.148 116.153 101.449 116.374C99.828 116.888 55.555 116.886 53.929 116.372C53.28 116.167 50.177 115.927 46.522 115.8C43.063 115.68 39.901 115.447 39.495 115.283C39.089 115.119 37.202 114.902 35.302 114.802C33.402 114.703 31.281 114.449 30.589 114.239C29.897 114.029 28.022 113.789 26.421 113.706C23.139 113.535 22.241 113.126 22.812 112.059C23.118 111.487 27.01 106.496 27.714 105.772C27.912 105.569 28.073 105.312 28.073 105.2C28.073 105.088 28.51 104.563 29.043 104.032C29.576 103.501 30.016 102.966 30.021 102.843C30.031 102.593 33.05 98.755 33.583 98.315C33.769 98.161 34.209 97.633 34.561 97.14C35.766 95.455 41.279 88.532 41.665 88.221C41.876 88.051 42.05 87.822 42.05 87.713C42.05 87.446 44.563 84.363 44.876 84.246C45.013 84.195 45.124 83.974 45.124 83.757C45.124 83.539 45.239 83.361 45.38 83.361C45.521 83.361 46.116 82.7 46.703 81.893C47.29 81.086 47.867 80.384 47.985 80.332C48.103 80.281 48.199 80.089 48.199 79.905C48.199 79.722 48.419 79.359 48.688 79.1C49.442 78.373 49.985 77.73 50.872 76.512C51.32 75.897 52.102 74.968 52.609 74.447C53.117 73.926 53.962 72.857 54.487 72.071C55.711 70.242 56.781 69.105 57.28 69.105C57.907 69.105 61.232 70.972 62.125 71.827C62.329 72.021 62.686 72.18 62.92 72.18C63.154 72.18 63.665 72.431 64.056 72.739C64.447 73.046 64.938 73.298 65.148 73.298C65.358 73.298 65.53 73.399 65.53 73.524C65.53 73.648 66.379 74.155 67.416 74.651C68.454 75.146 69.492 75.673 69.723 75.822C69.953 75.971 70.456 76.224 70.841 76.384C71.225 76.544 72.231 77.044 73.077 77.497C73.922 77.95 74.834 78.322 75.103 78.324C75.372 78.327 75.593 78.434 75.593 78.561C75.593 78.782 78.696 80.286 79.151 80.286C79.27 80.286 80.247 80.724 81.323 81.26C83.532 82.359 85.936 82.587 87.29 81.825C87.698 81.596 88.346 81.281 88.73 81.127C89.421 80.849 89.738 80.686 90.827 80.045C91.134 79.864 91.763 79.527 92.224 79.298C92.686 79.068 93.252 78.756 93.482 78.604C93.713 78.453 94.216 78.201 94.6 78.045C94.985 77.889 95.676 77.516 96.138 77.215C96.599 76.915 97.322 76.473 97.745 76.234C98.168 75.995 98.514 75.677 98.514 75.527C98.514 75.377 98.649 75.254 98.814 75.254C98.979 75.254 100.113 74.563 101.333 73.717C102.554 72.871 103.622 72.18 103.707 72.18C103.928 72.18 105.902 70.684 106.014 70.433C106.065 70.317 106.26 70.223 106.447 70.223C106.774 70.223 107.08 70.024 108.577 68.838C109.53 68.083 109.798 68.124 110.764 69.175Z" fill="#C4ECF8"/>
</svg>
