<svg width="179" height="242" viewBox="0 0 179 242" fill="none" xmlns="http://www.w3.org/2000/svg">
<path fill-rule="evenodd" clip-rule="evenodd" d="M84.8 1.65499C82.057 1.96299 75.086 3.07899 73.6 3.44799C72.72 3.66599 71.01 4.00299 69.8 4.19699C64.878 4.98499 57.84 7.55199 50.49 11.24C48.999 11.988 47.529 12.6 47.223 12.6C46.917 12.6 46.607 12.735 46.533 12.9C46.368 13.272 43.259 15.4 42.882 15.4C42.629 15.4 40.506 16.906 37.65 19.112C37.017 19.6 36.048 20.27 35.497 20.6C32.874 22.169 20.2 34.664 20.2 35.681C20.2 35.793 19.747 36.45 19.194 37.142C18.641 37.834 18.038 38.588 17.855 38.818C17.671 39.048 17.446 39.408 17.354 39.618C16.853 40.765 15.271 43 14.96 43C14.762 43 14.6 43.272 14.6 43.604C14.6 43.936 13.97 45.105 13.2 46.2C12.43 47.295 11.8 48.359 11.8 48.563C11.8 49.134 9.823 52.938 9.387 53.208C9.174 53.34 8.99999 53.732 8.99999 54.08C8.99999 54.428 8.66 55.452 8.246 56.356C6.746 59.624 6.44199 60.432 5.97299 62.4C5.71099 63.5 5.102 65.66 4.62 67.2C4.138 68.74 3.489 71.8 3.178 74C2.866 76.2 2.44199 78.99 2.23499 80.2C1.63499 83.707 1.727 94.441 2.382 97.216C2.695 98.544 3.077 101.064 3.23 102.816C3.383 104.567 3.72999 106.45 4.00099 107C4.27099 107.55 4.62 108.72 4.775 109.6C5.214 112.095 7.61099 119.739 8.47499 121.4C8.76099 121.95 8.996 122.745 8.998 123.166C8.999 123.587 9.63 125.259 10.4 126.881C11.17 128.503 11.8 130.263 11.8 130.792C11.8 131.32 11.974 131.86 12.187 131.992C12.67 132.29 14.6 136.095 14.6 136.749C14.6 137.014 15.23 138.44 16 139.917C16.77 141.393 17.4 142.951 17.4 143.377C17.4 143.804 17.557 144.25 17.748 144.368C17.939 144.486 18.589 145.622 19.193 146.891C19.796 148.161 20.446 149.47 20.639 149.8C20.831 150.13 21.242 150.963 21.553 151.651C21.864 152.339 22.317 153.025 22.559 153.175C22.802 153.325 23 153.887 23 154.424C23 154.961 23.184 155.4 23.41 155.4C23.635 155.4 24.007 155.805 24.236 156.3C24.465 156.795 25.357 158.46 26.22 160C27.082 161.54 28.066 163.34 28.407 164C28.747 164.66 29.379 165.74 29.811 166.4C30.242 167.06 30.939 168.32 31.358 169.2C31.778 170.08 32.589 171.42 33.161 172.178C33.732 172.935 34.2 173.88 34.2 174.278C34.2 174.675 34.37 175 34.578 175C34.928 175 35.29 175.548 36.68 178.185C36.966 178.727 37.566 179.566 38.014 180.051C38.462 180.535 39.089 181.442 39.408 182.066C39.727 182.69 40.288 183.65 40.654 184.2C41.02 184.75 42.169 186.55 43.209 188.2C45.023 191.079 47.169 194.274 51.7 200.842C52.855 202.516 53.8 204.047 53.8 204.243C53.8 204.439 53.962 204.6 54.161 204.6C54.36 204.6 55.15 205.545 55.918 206.7C56.686 207.855 58.099 209.818 59.057 211.061C60.016 212.305 61.07 213.73 61.4 214.227C61.73 214.725 62.27 215.424 62.6 215.78C62.93 216.137 64.271 217.772 65.579 219.414C66.888 221.056 68.104 222.501 68.281 222.625C68.458 222.748 69.008 223.396 69.502 224.064C74.667 231.048 84.088 239.4 86.799 239.4C87.115 239.4 87.972 239.686 88.704 240.035C90.097 240.699 94.998 238.951 97.021 237.067C97.415 236.7 98.905 235.41 100.332 234.2C101.759 232.99 103.078 231.696 103.263 231.323C103.448 230.951 104.59 229.585 105.8 228.287C108.836 225.03 112.448 220.793 113.888 218.8C114.047 218.58 114.652 217.86 115.233 217.2C115.814 216.54 116.845 215.19 117.524 214.2C118.724 212.452 122.552 207.423 124.224 205.4C124.679 204.85 125.342 203.815 125.699 203.1C126.056 202.385 126.495 201.8 126.674 201.8C126.853 201.8 127 201.539 127 201.22C127 200.901 127.229 200.496 127.508 200.32C127.788 200.144 128.237 199.55 128.506 199C128.961 198.07 131.288 194.615 132.199 193.517C132.42 193.251 132.6 192.855 132.6 192.637C132.6 192.418 132.829 192.096 133.108 191.92C133.388 191.744 133.837 191.15 134.106 190.6C134.85 189.076 135.552 188.031 136.048 187.709C136.294 187.55 136.721 186.875 136.996 186.209C137.272 185.544 137.655 185 137.849 185C138.042 185 138.2 184.724 138.2 184.387C138.2 184.051 138.459 183.676 138.776 183.554C139.092 183.433 139.469 182.796 139.613 182.14C139.757 181.483 140.128 180.849 140.438 180.73C140.747 180.612 141 180.273 141 179.977C141 179.682 141.512 178.666 142.138 177.72C142.765 176.774 143.704 175.19 144.226 174.2C144.748 173.21 145.434 172.084 145.752 171.697C146.385 170.927 147.046 169.84 148.002 168C148.345 167.34 148.974 166.26 149.4 165.6C149.826 164.94 150.452 163.86 150.791 163.2C151.701 161.428 153.936 157.587 154.427 156.952C154.662 156.648 155.376 155.275 156.013 153.9C156.651 152.525 157.314 151.4 157.486 151.4C157.659 151.4 157.81 151.085 157.823 150.7C157.836 150.315 158.358 149.1 158.985 148C160.053 146.125 161.062 144.139 162.135 141.8C162.388 141.25 162.749 140.53 162.939 140.2C163.128 139.87 163.597 138.88 163.982 138C165.09 135.462 166.252 132.895 166.849 131.668C167.152 131.045 167.4 130.23 167.4 129.857C167.4 129.483 167.632 128.823 167.915 128.389C168.542 127.428 169.776 124.28 171.205 120C171.792 118.24 172.437 116.629 172.637 116.42C172.836 116.211 173 115.552 173 114.956C173 114.359 173.337 112.91 173.749 111.736C175.041 108.054 175.754 105.278 175.992 103C176.118 101.79 176.507 99.362 176.857 97.603C177.932 92.192 176.905 77.525 174.868 69.2C173.688 64.378 172.642 60.653 172.266 59.935C172.055 59.531 171.563 58.39 171.173 57.4C170.484 55.651 168.026 50.207 166.67 47.426C166.302 46.67 165.685 45.725 165.3 45.326C164.915 44.927 164.6 44.42 164.6 44.201C164.6 43.981 163.97 42.925 163.2 41.853C162.43 40.781 161.8 39.801 161.8 39.674C161.8 39.548 161.171 38.76 160.402 37.922C159.633 37.085 159.002 36.22 159 36C158.991 34.908 145.263 21 144.195 21C143.979 21 143.105 20.37 142.253 19.6C141.4 18.83 140.578 18.2 140.425 18.2C140.176 18.2 137.5 16.321 137 15.794C136.89 15.678 136.35 15.36 135.8 15.088C135.25 14.815 134.26 14.242 133.6 13.815C132.94 13.388 131.185 12.455 129.7 11.743C128.215 11.03 127 10.301 127 10.123C127 9.946 126.705 9.8 126.344 9.8C125.983 9.8 124.858 9.421 123.844 8.957C120.383 7.374 119.6 7.067 118.4 6.82C117.74 6.684 116.66 6.332 116 6.038C113.897 5.101 110.73 4.19999 109.544 4.19999C108.912 4.19999 107.766 4.008 106.997 3.774C102.306 2.344 89.527 1.12399 84.8 1.65499ZM105.8 15.738C108.11 16.395 110.63 17.055 111.4 17.204C112.17 17.353 113.925 17.998 115.301 18.637C116.677 19.277 117.999 19.8 118.24 19.8C118.482 19.8 120.146 20.498 121.939 21.351C123.733 22.204 125.401 22.969 125.646 23.051C130.687 24.736 144.693 36.984 150.059 44.4C151.332 46.16 152.515 47.66 152.687 47.733C152.859 47.807 153 48.1 153 48.384C153 48.669 153.252 49.111 153.561 49.367C153.869 49.623 154.243 50.319 154.392 50.912C154.541 51.506 154.784 52.084 154.932 52.196C155.437 52.58 157 54.967 157 55.355C157 55.568 157.625 56.94 158.388 58.405C159.152 59.87 159.897 61.728 160.045 62.535C160.193 63.341 160.558 64.355 160.857 64.789C161.156 65.223 161.4 66.038 161.4 66.6C161.4 67.162 161.653 67.983 161.963 68.425C162.272 68.867 162.65 70.122 162.803 71.214C162.955 72.306 163.324 73.946 163.621 74.857C165.681 81.173 165.666 95.313 163.59 102.8C163.285 103.9 162.926 105.493 162.792 106.34C162.658 107.187 162.314 108.447 162.027 109.14C161.23 111.063 160.569 113.033 160.127 114.8C159.749 116.314 159.388 117.252 158.014 120.3C157.691 121.015 157.306 122.14 157.158 122.8C157.009 123.46 156.283 125.182 155.544 126.626C154.805 128.07 154.2 129.533 154.2 129.877C154.2 130.221 153.93 130.726 153.6 131C153.27 131.274 153 131.904 153 132.4C153 132.896 152.73 133.526 152.4 133.8C152.07 134.074 151.798 134.501 151.796 134.749C151.793 134.997 150.91 136.91 149.832 139C148.755 141.09 147.4 143.79 146.821 145C146.243 146.21 145.604 147.47 145.401 147.8C145.199 148.13 144.482 149.48 143.809 150.8C143.135 152.12 142.23 153.74 141.796 154.4C141.363 155.06 140.785 156.05 140.512 156.6C140.24 157.15 139.889 157.694 139.733 157.808C139.577 157.923 139.255 158.463 139.016 159.008C138.777 159.554 138.18 160.671 137.691 161.491C137.201 162.31 136.285 163.93 135.655 165.091C135.026 166.251 134.261 167.484 133.955 167.831C133.65 168.179 133.4 168.652 133.4 168.883C133.4 169.113 133.134 169.523 132.81 169.792C132.485 170.061 131.76 171.253 131.198 172.441C130.636 173.628 130.002 174.6 129.788 174.6C129.575 174.6 129.4 174.815 129.4 175.078C129.4 175.342 128.973 176.197 128.452 176.978C125.316 181.68 124.325 183.196 123.696 184.257C123.309 184.91 122.544 185.927 121.996 186.518C121.448 187.109 121 187.809 121 188.074C121 188.339 120.371 189.24 119.602 190.078C118.833 190.915 118.203 191.799 118.202 192.042C118.201 192.286 117.57 193.31 116.8 194.318C116.03 195.327 115.4 196.258 115.4 196.387C115.4 196.58 111.658 201.547 110.204 203.283C109.982 203.549 109.8 203.952 109.8 204.18C109.8 204.407 109.44 204.818 109 205.093C108.56 205.368 108.2 205.819 108.2 206.096C108.2 206.373 108.055 206.6 107.877 206.6C107.699 206.6 107.024 207.332 106.377 208.227C105.73 209.121 105.016 210.066 104.792 210.327C104.567 210.587 103.673 211.7 102.805 212.8C101.936 213.9 100.95 215.084 100.613 215.43C100.276 215.777 99.64 216.566 99.2 217.184C97.197 219.996 90.716 226.197 89.532 226.434C88.084 226.723 82.972 221.898 77.42 215C76.977 214.45 76.388 213.736 76.111 213.413C75.834 213.091 75.217 212.253 74.741 211.551C74.265 210.849 73.49 209.853 73.019 209.338C72.548 208.822 71.901 208.115 71.581 207.766C71.262 207.418 71 206.998 71 206.834C71 206.589 68.532 203.326 67.798 202.6C67.11 201.92 65.4 199.386 65.4 199.047C65.4 198.823 65.175 198.496 64.9 198.32C64.297 197.934 63.539 196.79 62.898 195.3C62.638 194.695 62.309 194.2 62.167 194.2C62.025 194.2 61.39 193.435 60.756 192.5C60.123 191.565 58.927 189.928 58.1 188.862C56.785 187.166 54.741 183.874 53.078 180.773C52.791 180.238 52.398 179.8 52.205 179.8C52.012 179.8 51.729 179.405 51.575 178.923C51.422 178.44 50.69 177.182 49.948 176.127C49.207 175.072 48.6 174.115 48.6 174C48.6 173.885 48.004 172.939 47.275 171.896C46.547 170.853 45.823 169.73 45.667 169.4C45.511 169.07 44.942 168.08 44.402 167.2C43.861 166.32 43.304 165.285 43.163 164.9C43.022 164.515 42.765 164.2 42.592 164.2C42.42 164.2 42.074 163.705 41.823 163.1C41.573 162.495 40.938 161.28 40.413 160.4C39.887 159.52 38.891 157.72 38.2 156.4C37.509 155.08 36.515 153.28 35.992 152.4C35.469 151.52 34.852 150.44 34.622 150C34.391 149.56 34.049 148.93 33.863 148.6C33.677 148.27 33.316 147.595 33.062 147.1C32.808 146.605 32.392 145.795 32.138 145.3C31.884 144.805 31.522 144.13 31.335 143.8C31.148 143.47 30.887 142.93 30.756 142.6C30.624 142.27 30.185 141.28 29.779 140.4C29.374 139.52 28.944 138.53 28.824 138.2C28.703 137.87 28.444 137.33 28.247 137C28.05 136.67 27.408 135.41 26.819 134.2C26.231 132.99 25.602 131.73 25.422 131.4C24.877 130.404 23.4 126.416 23.4 125.941C23.4 125.697 23.13 125.274 22.8 125C22.47 124.726 22.2 124.116 22.2 123.645C22.2 123.174 21.84 122.116 21.4 121.296C20.96 120.475 20.6 119.464 20.6 119.05C20.6 118.637 20.33 118.074 20 117.8C19.67 117.526 19.399 116.829 19.398 116.251C19.396 115.673 19.118 114.668 18.779 114.018C18.44 113.368 18.056 112.065 17.927 111.122C17.798 110.18 17.447 109.205 17.146 108.955C16.846 108.706 16.6 107.888 16.6 107.138C16.6 106.388 16.323 105.112 15.985 104.302C15.647 103.493 15.268 101.744 15.143 100.415C15.018 99.087 14.665 97.112 14.358 96.027C13.582 93.283 13.608 83.506 14.4 80.465C14.73 79.198 15 77.563 15 76.833C15 76.102 15.36 74.377 15.8 73C16.24 71.623 16.606 69.934 16.613 69.248C16.62 68.562 16.89 67.651 17.213 67.224C17.536 66.796 17.806 66.166 17.814 65.824C17.821 65.481 18.175 64.48 18.6 63.6C19.025 62.72 19.379 61.617 19.386 61.149C19.394 60.681 19.658 60.083 19.974 59.821C20.29 59.559 20.662 58.83 20.8 58.2C20.938 57.57 21.31 56.841 21.626 56.579C21.942 56.317 22.2 55.777 22.2 55.38C22.2 54.982 22.47 54.387 22.8 54.057C23.13 53.727 23.4 53.305 23.4 53.119C23.4 52.934 24.03 51.825 24.8 50.656C25.57 49.487 26.2 48.388 26.2 48.214C26.2 48.04 26.49 47.657 26.845 47.363C27.199 47.069 27.608 46.507 27.753 46.116C28.995 42.758 46.669 25.8 48.927 25.8C49.156 25.8 49.589 25.554 49.889 25.253C50.533 24.61 54.227 22.6 54.765 22.6C54.97 22.6 55.421 22.357 55.769 22.06C56.116 21.762 57.48 21.109 58.8 20.607C60.12 20.105 62.46 19.182 64 18.555C65.54 17.929 67.52 17.241 68.4 17.027C69.28 16.812 71.44 16.254 73.2 15.786C80.837 13.753 98.732 13.727 105.8 15.738ZM84.8 38.424C83.48 38.721 81.59 38.974 80.6 38.985C79.61 38.996 78.339 39.245 77.776 39.539C77.213 39.833 75.976 40.198 75.026 40.35C74.076 40.501 72.921 40.89 72.46 41.213C71.999 41.536 71.234 41.8 70.76 41.8C70.286 41.8 69.686 42.056 69.426 42.369C69.166 42.682 68.255 43.056 67.4 43.2C66.545 43.344 65.634 43.718 65.374 44.031C65.114 44.344 64.663 44.6 64.371 44.6C64.079 44.6 63.696 44.829 63.52 45.108C63.344 45.388 62.75 45.845 62.2 46.124C60.706 46.883 59.691 47.524 58.8 48.273C58.36 48.643 56.968 49.813 55.706 50.873C54.444 51.933 52.673 53.7 51.77 54.8C50.867 55.9 49.395 57.657 48.498 58.705C46.766 60.731 46.661 60.894 44.801 64.485C44.142 65.758 43.377 67.038 43.101 67.329C42.826 67.619 42.599 68.159 42.597 68.529C42.596 68.898 42.237 69.74 41.8 70.4C41.363 71.06 41.004 71.983 41.003 72.451C41.001 72.919 40.73 73.526 40.4 73.8C40.057 74.085 39.8 74.957 39.8 75.835C39.8 76.68 39.485 78.233 39.1 79.286C38.094 82.038 38.108 96.263 39.12 99.114C39.494 100.167 39.8 101.9 39.8 102.965C39.8 104.199 40.018 105.083 40.4 105.4C40.73 105.674 41 106.194 41 106.555C41 106.916 41.36 107.884 41.8 108.704C42.24 109.525 42.6 110.455 42.6 110.77C42.6 111.085 42.825 111.584 43.1 111.879C43.375 112.173 44.05 113.31 44.6 114.405C45.513 116.221 46.902 118.502 47.4 119C47.51 119.11 48.042 119.83 48.582 120.6C49.471 121.869 51.242 123.935 53.1 125.871C53.485 126.272 53.8 126.78 53.8 127C53.8 127.22 53.983 127.4 54.206 127.4C54.664 127.4 59.128 130.933 59.333 131.459C59.407 131.647 59.634 131.8 59.837 131.8C60.041 131.8 61.105 132.43 62.2 133.2C63.295 133.97 64.442 134.6 64.747 134.6C65.052 134.6 65.517 134.858 65.779 135.174C66.041 135.49 66.77 135.862 67.4 136C68.03 136.138 68.759 136.51 69.021 136.826C69.283 137.142 69.976 137.4 70.56 137.4C71.144 137.4 71.977 137.644 72.411 137.943C72.845 138.242 73.911 138.617 74.78 138.776C75.648 138.936 76.723 139.321 77.169 139.633C77.633 139.958 78.932 140.2 80.219 140.2C81.451 140.2 84.099 140.482 86.103 140.826C88.904 141.307 90.101 141.352 91.274 141.019C92.113 140.781 94.51 140.483 96.6 140.356C98.69 140.23 101.436 139.783 102.702 139.363C103.967 138.943 105.25 138.6 105.553 138.6C105.855 138.6 106.326 138.33 106.6 138C106.874 137.67 107.52 137.4 108.037 137.4C108.866 137.4 111.269 136.419 113 135.374C113.33 135.175 114.14 134.758 114.8 134.448C115.46 134.138 116.62 133.416 117.378 132.842C118.135 132.269 118.883 131.8 119.039 131.8C119.816 131.8 126.941 124.933 130.384 120.867C132.44 118.438 132.517 118.32 134.585 114.4C135.282 113.08 136.107 111.55 136.42 111C136.732 110.45 136.991 109.707 136.994 109.349C136.997 108.991 137.27 108.474 137.6 108.2C137.93 107.926 138.2 107.314 138.2 106.84C138.2 106.366 138.446 105.623 138.746 105.189C139.046 104.755 139.42 103.32 139.576 102C139.733 100.68 140.117 98.829 140.43 97.886C141.202 95.566 141.206 85.565 140.436 82.584C140.126 81.383 139.747 79.32 139.594 78C139.441 76.68 139.064 75.201 138.758 74.714C138.451 74.227 138.2 73.496 138.2 73.091C138.2 72.685 137.936 72.004 137.613 71.576C137.29 71.149 137.02 70.564 137.013 70.275C136.996 69.595 135.05 65.478 134.619 65.212C134.437 65.099 134.171 64.539 134.027 63.966C133.077 60.18 118.955 45.8 116.187 45.8C115.974 45.8 115.8 45.638 115.8 45.439C115.8 45.241 115.305 44.883 114.7 44.645C114.095 44.407 113.33 44.029 113 43.806C112.67 43.582 111.95 43.22 111.4 43.001C110.85 42.781 110.13 42.445 109.8 42.254C108.87 41.715 106.582 40.963 104.6 40.544C103.61 40.334 102.322 39.901 101.738 39.582C101.154 39.262 99.894 38.994 98.938 38.986C97.982 38.978 96.03 38.715 94.6 38.4C91.412 37.699 87.975 37.707 84.8 38.424ZM98.646 51.611C99.831 51.987 101.31 52.543 101.932 52.847C102.555 53.151 103.337 53.4 103.671 53.4C104.004 53.4 104.754 53.65 105.338 53.955C105.922 54.26 106.85 54.719 107.4 54.974C109.566 55.981 110.836 56.78 111.992 57.864C112.657 58.487 113.411 58.997 113.67 58.998C114.896 59.003 121.451 66.534 123.478 70.267C123.851 70.954 124.346 71.706 124.578 71.938C124.81 72.17 125 72.752 125 73.231C125 73.71 125.265 74.322 125.589 74.591C125.914 74.86 126.289 75.737 126.425 76.54C126.56 77.343 126.924 78.567 127.235 79.26C127.546 79.954 127.8 81.14 127.8 81.897C127.8 82.654 128.068 84.156 128.396 85.236C129.179 87.817 129.181 93.392 128.4 95.262C128.07 96.051 127.794 97.351 127.786 98.149C127.778 98.947 127.514 100.05 127.2 100.6C126.886 101.15 126.61 102.05 126.588 102.6C126.565 103.15 126.023 104.5 125.383 105.6C124.743 106.7 123.949 108.14 123.618 108.8C122.723 110.585 122.059 111.562 121.5 111.92C121.225 112.096 121 112.493 121 112.802C121 114.805 112.003 122.1 106 124.964C104.9 125.489 103.64 126.106 103.2 126.334C102.76 126.563 101.32 126.975 100 127.251C98.68 127.526 96.88 127.938 96 128.166C93.566 128.797 84.158 128.709 82.114 128.036C81.171 127.725 79.59 127.345 78.6 127.19C77.61 127.036 76.35 126.68 75.8 126.4C75.25 126.119 74.35 125.691 73.8 125.448C73.25 125.205 72.53 124.837 72.2 124.632C71.87 124.426 71.33 124.148 71 124.013C68.72 123.084 65.14 120.39 62.002 117.243C58.613 113.844 57.434 112.293 55.587 108.8C54.597 106.929 54.006 105.932 53.537 105.343C53.299 105.044 52.975 104.086 52.818 103.214C52.66 102.341 52.277 101.135 51.966 100.534C51.655 99.932 51.4 98.733 51.4 97.869C51.4 97.005 51.112 95.609 50.76 94.767C50.005 92.959 50.078 84.318 50.857 83.361C51.108 83.053 51.401 81.99 51.508 81C51.615 80.01 52.023 78.3 52.416 77.2C52.808 76.1 53.189 75.02 53.262 74.8C53.335 74.58 53.559 74.13 53.759 73.8C53.959 73.47 54.543 72.255 55.056 71.1C55.569 69.945 56.132 69 56.307 69C56.482 69 56.755 68.655 56.913 68.233C57.555 66.518 64.059 59.625 65.453 59.183C65.864 59.053 66.2 58.812 66.2 58.649C66.2 58.103 71.171 55.117 73.6 54.204C74.92 53.708 76.478 53.054 77.062 52.751C77.646 52.448 78.512 52.2 78.988 52.2C79.464 52.2 80.246 51.981 80.726 51.712C82.963 50.464 94.815 50.397 98.646 51.611Z" fill="#36AAD4"/>
<path fill-rule="evenodd" clip-rule="evenodd" d="M79.2 1.459C78.54 1.674 76.594 2.021 74.875 2.23C73.156 2.439 71.109 2.878 70.326 3.205C69.543 3.532 68.339 3.806 67.651 3.814C66.963 3.822 65.95 4.086 65.4 4.4C64.85 4.714 64.04 4.979 63.6 4.988C63.16 4.997 62.296 5.268 61.68 5.589C61.064 5.911 59.984 6.349 59.28 6.562C56.848 7.301 54.789 8.141 51.911 9.568C50.322 10.355 48.93 11 48.817 11C48.129 11 40.787 15.753 36.209 19.162C27.476 25.665 20.337 33.241 15.482 41.156C15.197 41.62 14.264 43.08 13.409 44.4C5.85701 56.052 0.897013 73.486 0.831013 88.6C0.803013 95.307 1.44001 99.759 3.86501 109.773C5.37201 115.998 9.19301 126.841 11.98 132.8C12.288 133.46 12.807 134.63 13.131 135.4C16.324 142.97 20.889 152.376 24.004 157.8C25.331 160.11 26.636 162.45 26.905 163C27.174 163.55 27.566 164.27 27.776 164.6C27.987 164.93 29.458 167.45 31.046 170.2C32.633 172.95 35.218 177.18 36.79 179.6C38.362 182.02 41.306 186.61 43.333 189.8C45.36 192.99 48.545 197.76 50.412 200.4C52.278 203.04 54.116 205.65 54.497 206.2C55.601 207.796 63.905 218.78 64.175 219C64.31 219.11 65.157 220.139 66.058 221.287C71.631 228.386 80.679 237.546 83.414 238.855C88.396 241.242 90.243 241.538 92.668 240.343C96.439 238.485 97.313 237.968 98.6 236.842C101.777 234.062 107.739 227.746 110.724 224C112.477 221.8 114.031 219.91 114.177 219.8C114.323 219.69 114.973 218.88 115.621 218C116.27 217.12 116.98 216.203 117.2 215.963C117.609 215.516 124.878 205.705 127.4 202.196C128.17 201.125 129.43 199.221 130.2 197.966C130.97 196.711 131.797 195.481 132.037 195.234C132.277 194.986 132.706 194.349 132.991 193.817C133.275 193.285 133.673 192.659 133.875 192.425C134.673 191.5 139.815 183.308 142.804 178.2C144.542 175.23 146.07 172.71 146.201 172.6C146.331 172.49 148.462 168.89 150.935 164.6C153.409 160.31 155.611 156.53 155.828 156.2C156.045 155.87 156.32 155.32 156.438 154.977C156.556 154.635 157.165 153.375 157.792 152.177C161.72 144.666 165.686 136.338 167.495 131.8C168.153 130.15 168.825 128.62 168.988 128.4C169.151 128.18 169.39 127.64 169.518 127.2C169.647 126.76 170.227 125.14 170.808 123.6C171.388 122.06 172.015 120.26 172.201 119.6C172.387 118.94 173.067 116.87 173.711 115C176.027 108.282 177.241 102.786 178.226 94.548C178.872 89.149 177.216 73.193 175.389 67.2C175.187 66.54 174.64 64.74 174.172 63.2C171.691 55.041 167.176 45.922 162.2 39.021C161.43 37.953 160.53 36.674 160.2 36.178C154.426 27.507 139.488 15.16 128.8 10.224C127.7 9.716 126.283 9.03 125.651 8.699C123.442 7.542 116.55 5.152 112.6 4.174C111.61 3.929 109.63 3.382 108.2 2.958C106.77 2.535 104.768 2.191 103.75 2.194C102.733 2.197 101.135 1.93 100.2 1.6C98.212 0.898998 81.272 0.785 79.2 1.459ZM99.2 2.384C102.72 2.914 106.229 3.54 106.997 3.774C107.766 4.008 108.912 4.2 109.544 4.2C110.73 4.2 113.897 5.101 116 6.038C116.66 6.332 117.74 6.684 118.4 6.82C119.6 7.067 120.383 7.374 123.844 8.957C124.858 9.421 125.983 9.8 126.344 9.8C126.705 9.8 127 9.946 127 10.123C127 10.301 128.215 11.03 129.7 11.743C131.185 12.455 132.94 13.388 133.6 13.815C134.26 14.242 135.25 14.815 135.8 15.088C136.35 15.36 136.89 15.678 137 15.794C137.5 16.321 140.176 18.2 140.425 18.2C140.578 18.2 141.4 18.83 142.253 19.6C143.105 20.37 143.979 21 144.195 21C145.263 21 158.991 34.908 159 36C159.002 36.22 159.633 37.085 160.402 37.922C161.171 38.76 161.8 39.548 161.8 39.674C161.8 39.801 162.43 40.781 163.2 41.853C163.97 42.925 164.6 43.981 164.6 44.201C164.6 44.42 164.915 44.927 165.3 45.326C165.685 45.725 166.302 46.67 166.67 47.426C168.026 50.207 170.484 55.651 171.173 57.4C171.563 58.39 172.055 59.531 172.266 59.935C172.642 60.653 173.688 64.378 174.868 69.2C176.905 77.525 177.932 92.192 176.857 97.603C176.507 99.362 176.118 101.79 175.992 103C175.754 105.278 175.041 108.054 173.749 111.736C173.337 112.91 173 114.359 173 114.956C173 115.552 172.836 116.211 172.637 116.42C172.437 116.629 171.792 118.24 171.205 120C169.776 124.28 168.542 127.428 167.915 128.389C167.632 128.823 167.4 129.483 167.4 129.857C167.4 130.23 167.152 131.045 166.849 131.668C166.252 132.895 165.09 135.462 163.982 138C163.597 138.88 163.128 139.87 162.939 140.2C162.749 140.53 162.388 141.25 162.135 141.8C161.062 144.139 160.053 146.125 158.985 148C158.358 149.1 157.836 150.315 157.823 150.7C157.81 151.085 157.659 151.4 157.486 151.4C157.314 151.4 156.651 152.525 156.013 153.9C155.376 155.275 154.662 156.648 154.427 156.952C153.936 157.587 151.701 161.428 150.791 163.2C150.452 163.86 149.826 164.94 149.4 165.6C148.974 166.26 148.345 167.34 148.002 168C147.046 169.84 146.385 170.927 145.752 171.697C145.434 172.084 144.748 173.21 144.226 174.2C143.704 175.19 142.765 176.774 142.138 177.72C141.512 178.666 141 179.682 141 179.977C141 180.273 140.747 180.612 140.438 180.73C140.128 180.849 139.757 181.483 139.613 182.14C139.469 182.796 139.092 183.433 138.776 183.554C138.459 183.676 138.2 184.051 138.2 184.387C138.2 184.724 138.042 185 137.849 185C137.655 185 137.272 185.544 136.996 186.209C136.721 186.875 136.294 187.55 136.048 187.709C135.552 188.031 134.85 189.076 134.106 190.6C133.837 191.15 133.388 191.744 133.108 191.92C132.829 192.096 132.6 192.418 132.6 192.637C132.6 192.855 132.42 193.251 132.199 193.517C131.288 194.615 128.961 198.07 128.506 199C128.237 199.55 127.788 200.144 127.508 200.32C127.229 200.496 127 200.901 127 201.22C127 201.539 126.853 201.8 126.674 201.8C126.495 201.8 126.056 202.385 125.699 203.1C125.342 203.815 124.679 204.85 124.224 205.4C122.552 207.423 118.724 212.452 117.524 214.2C116.845 215.19 115.814 216.54 115.233 217.2C114.652 217.86 114.047 218.58 113.888 218.8C112.448 220.793 108.836 225.03 105.8 228.287C104.59 229.585 103.448 230.951 103.263 231.323C103.078 231.696 101.759 232.99 100.332 234.2C98.905 235.41 97.415 236.7 97.021 237.067C94.998 238.951 90.097 240.699 88.704 240.035C87.972 239.686 87.115 239.4 86.799 239.4C84.088 239.4 74.667 231.048 69.502 224.064C69.008 223.396 68.458 222.748 68.281 222.625C68.104 222.501 66.888 221.056 65.579 219.414C64.271 217.772 62.93 216.137 62.6 215.78C62.27 215.424 61.73 214.725 61.4 214.227C61.07 213.73 60.016 212.305 59.057 211.061C58.099 209.818 56.686 207.855 55.918 206.7C55.15 205.545 54.36 204.6 54.161 204.6C53.962 204.6 53.8 204.439 53.8 204.243C53.8 204.047 52.855 202.516 51.7 200.842C47.169 194.274 45.023 191.079 43.209 188.2C42.169 186.55 41.02 184.75 40.654 184.2C40.288 183.65 39.727 182.69 39.408 182.066C39.089 181.442 38.462 180.535 38.014 180.051C37.566 179.566 36.966 178.727 36.68 178.185C35.29 175.548 34.928 175 34.578 175C34.37 175 34.2 174.675 34.2 174.278C34.2 173.88 33.732 172.935 33.161 172.178C32.589 171.42 31.778 170.08 31.358 169.2C30.939 168.32 30.242 167.06 29.811 166.4C29.379 165.74 28.747 164.66 28.407 164C28.066 163.34 27.082 161.54 26.22 160C25.357 158.46 24.465 156.795 24.236 156.3C24.007 155.805 23.635 155.4 23.41 155.4C23.184 155.4 23 154.961 23 154.424C23 153.887 22.802 153.325 22.559 153.175C22.317 153.025 21.864 152.339 21.553 151.651C21.242 150.963 20.831 150.13 20.639 149.8C20.446 149.47 19.796 148.161 19.193 146.891C18.589 145.622 17.939 144.486 17.748 144.368C17.557 144.25 17.4 143.804 17.4 143.377C17.4 142.951 16.77 141.393 16 139.917C15.23 138.44 14.6 137.014 14.6 136.749C14.6 136.095 12.67 132.29 12.187 131.992C11.974 131.86 11.8 131.32 11.8 130.792C11.8 130.263 11.17 128.503 10.4 126.881C9.63001 125.259 8.99901 123.587 8.99801 123.166C8.99601 122.745 8.76101 121.95 8.47501 121.4C7.61101 119.739 5.21401 112.095 4.77501 109.6C4.62001 108.72 4.27101 107.55 4.00101 107C3.73001 106.45 3.38302 104.567 3.23002 102.816C3.07702 101.064 2.69502 98.544 2.38202 97.216C1.72702 94.441 1.63501 83.707 2.23501 80.2C2.44201 78.99 2.86601 76.2 3.17801 74C3.48901 71.8 4.13801 68.74 4.62001 67.2C5.10201 65.66 5.71101 63.5 5.97301 62.4C6.44201 60.432 6.74601 59.624 8.24601 56.356C8.66001 55.452 9.00001 54.428 9.00001 54.08C9.00001 53.732 9.17401 53.34 9.38701 53.208C9.82301 52.938 11.8 49.134 11.8 48.563C11.8 48.359 12.43 47.295 13.2 46.2C13.97 45.105 14.6 43.936 14.6 43.604C14.6 43.272 14.762 43 14.96 43C15.271 43 16.853 40.765 17.354 39.618C17.446 39.408 17.671 39.048 17.855 38.818C18.038 38.588 18.641 37.834 19.194 37.142C19.747 36.45 20.2 35.793 20.2 35.681C20.2 34.664 32.874 22.169 35.497 20.6C36.048 20.27 37.017 19.6 37.65 19.112C40.506 16.906 42.629 15.4 42.882 15.4C43.259 15.4 46.368 13.272 46.533 12.9C46.607 12.735 46.917 12.6 47.223 12.6C47.529 12.6 48.999 11.988 50.49 11.24C57.84 7.552 64.878 4.985 69.8 4.197C71.01 4.003 72.72 3.666 73.6 3.448C75.086 3.079 82.057 1.963 84.8 1.655C88.301 1.261 93.487 1.524 99.2 2.384ZM79.6 14.599C77.84 14.783 74.96 15.317 73.2 15.786C71.44 16.254 69.28 16.812 68.4 17.027C67.52 17.241 65.54 17.929 64 18.555C62.46 19.182 60.12 20.105 58.8 20.607C57.48 21.109 56.116 21.762 55.769 22.06C55.421 22.357 54.97 22.6 54.765 22.6C54.227 22.6 50.533 24.61 49.889 25.253C49.589 25.554 49.156 25.8 48.927 25.8C46.669 25.8 28.995 42.758 27.753 46.116C27.608 46.507 27.199 47.069 26.845 47.363C26.49 47.657 26.2 48.04 26.2 48.214C26.2 48.388 25.57 49.487 24.8 50.656C24.03 51.825 23.4 52.934 23.4 53.119C23.4 53.305 23.13 53.727 22.8 54.057C22.47 54.387 22.2 54.982 22.2 55.38C22.2 55.777 21.942 56.317 21.626 56.579C21.31 56.841 20.938 57.57 20.8 58.2C20.662 58.83 20.29 59.559 19.974 59.821C19.658 60.083 19.394 60.681 19.386 61.149C19.379 61.617 19.025 62.72 18.6 63.6C18.175 64.48 17.821 65.481 17.814 65.824C17.806 66.166 17.536 66.796 17.213 67.224C16.89 67.651 16.62 68.562 16.613 69.248C16.606 69.934 16.24 71.623 15.8 73C15.36 74.377 15 76.102 15 76.833C15 77.563 14.73 79.198 14.4 80.465C13.608 83.506 13.582 93.283 14.358 96.027C14.665 97.112 15.018 99.087 15.143 100.415C15.268 101.744 15.647 103.493 15.985 104.302C16.323 105.112 16.6 106.388 16.6 107.138C16.6 107.888 16.846 108.706 17.146 108.955C17.447 109.205 17.798 110.18 17.927 111.122C18.056 112.065 18.44 113.368 18.779 114.018C19.118 114.668 19.396 115.673 19.398 116.251C19.399 116.829 19.67 117.526 20 117.8C20.33 118.074 20.6 118.637 20.6 119.05C20.6 119.464 20.96 120.475 21.4 121.296C21.84 122.116 22.2 123.174 22.2 123.645C22.2 124.116 22.47 124.726 22.8 125C23.13 125.274 23.4 125.697 23.4 125.941C23.4 126.416 24.877 130.404 25.422 131.4C25.602 131.73 26.231 132.99 26.819 134.2C27.408 135.41 28.05 136.67 28.247 137C28.444 137.33 28.703 137.87 28.824 138.2C28.944 138.53 29.374 139.52 29.779 140.4C30.185 141.28 30.624 142.27 30.756 142.6C30.887 142.93 31.148 143.47 31.335 143.8C31.522 144.13 31.884 144.805 32.138 145.3C32.392 145.795 32.808 146.605 33.062 147.1C33.316 147.595 33.677 148.27 33.863 148.6C34.049 148.93 34.391 149.56 34.622 150C34.852 150.44 35.469 151.52 35.992 152.4C36.515 153.28 37.509 155.08 38.2 156.4C38.891 157.72 39.887 159.52 40.413 160.4C40.938 161.28 41.573 162.495 41.823 163.1C42.074 163.705 42.42 164.2 42.592 164.2C42.765 164.2 43.022 164.515 43.163 164.9C43.304 165.285 43.861 166.32 44.402 167.2C44.942 168.08 45.511 169.07 45.667 169.4C45.823 169.73 46.547 170.853 47.275 171.896C48.004 172.939 48.6 173.885 48.6 174C48.6 174.115 49.207 175.072 49.948 176.127C50.69 177.182 51.422 178.44 51.575 178.923C51.729 179.405 52.012 179.8 52.205 179.8C52.398 179.8 52.791 180.238 53.078 180.773C54.741 183.874 56.785 187.166 58.1 188.862C58.927 189.928 60.123 191.565 60.756 192.5C61.39 193.435 62.025 194.2 62.167 194.2C62.309 194.2 62.638 194.695 62.898 195.3C63.539 196.79 64.297 197.934 64.9 198.32C65.175 198.496 65.4 198.823 65.4 199.047C65.4 199.386 67.11 201.92 67.798 202.6C68.532 203.326 71 206.589 71 206.834C71 206.998 71.262 207.418 71.581 207.766C71.901 208.115 72.548 208.822 73.019 209.338C73.49 209.853 74.265 210.849 74.741 211.551C75.217 212.253 75.834 213.091 76.111 213.413C76.388 213.736 76.977 214.45 77.42 215C82.972 221.898 88.084 226.723 89.532 226.434C90.716 226.197 97.197 219.996 99.2 217.184C99.64 216.566 100.276 215.777 100.613 215.43C100.95 215.084 101.936 213.9 102.805 212.8C103.673 211.7 104.567 210.587 104.792 210.327C105.016 210.066 105.73 209.121 106.377 208.227C107.024 207.332 107.699 206.6 107.877 206.6C108.055 206.6 108.2 206.373 108.2 206.096C108.2 205.819 108.56 205.368 109 205.093C109.44 204.818 109.8 204.407 109.8 204.18C109.8 203.952 109.982 203.549 110.204 203.283C111.658 201.547 115.4 196.58 115.4 196.387C115.4 196.258 116.03 195.327 116.8 194.318C117.57 193.31 118.201 192.286 118.202 192.042C118.203 191.799 118.833 190.915 119.602 190.078C120.371 189.24 121 188.339 121 188.074C121 187.809 121.448 187.109 121.996 186.518C122.544 185.927 123.309 184.91 123.696 184.257C124.325 183.196 125.316 181.68 128.452 176.978C128.973 176.197 129.4 175.342 129.4 175.078C129.4 174.815 129.575 174.6 129.788 174.6C130.002 174.6 130.636 173.628 131.198 172.441C131.76 171.253 132.485 170.061 132.81 169.792C133.134 169.523 133.4 169.113 133.4 168.883C133.4 168.652 133.65 168.179 133.955 167.831C134.261 167.484 135.026 166.251 135.655 165.091C136.285 163.93 137.201 162.31 137.691 161.491C138.18 160.671 138.777 159.554 139.016 159.008C139.255 158.463 139.577 157.923 139.733 157.808C139.889 157.694 140.24 157.15 140.512 156.6C140.785 156.05 141.363 155.06 141.796 154.4C142.23 153.74 143.135 152.12 143.809 150.8C144.482 149.48 145.199 148.13 145.401 147.8C145.604 147.47 146.243 146.21 146.821 145C147.4 143.79 148.755 141.09 149.832 139C150.91 136.91 151.793 134.997 151.796 134.749C151.798 134.501 152.07 134.074 152.4 133.8C152.73 133.526 153 132.896 153 132.4C153 131.904 153.27 131.274 153.6 131C153.93 130.726 154.2 130.221 154.2 129.877C154.2 129.533 154.805 128.07 155.544 126.626C156.283 125.182 157.009 123.46 157.158 122.8C157.306 122.14 157.691 121.015 158.014 120.3C159.388 117.252 159.749 116.314 160.127 114.8C160.569 113.033 161.23 111.063 162.027 109.14C162.314 108.447 162.658 107.187 162.792 106.34C162.926 105.493 163.285 103.9 163.59 102.8C165.666 95.313 165.681 81.173 163.621 74.857C163.324 73.946 162.955 72.306 162.803 71.214C162.65 70.122 162.272 68.867 161.963 68.425C161.653 67.983 161.4 67.162 161.4 66.6C161.4 66.038 161.156 65.223 160.857 64.789C160.558 64.355 160.193 63.341 160.045 62.535C159.897 61.728 159.152 59.87 158.388 58.405C157.625 56.94 157 55.568 157 55.355C157 54.967 155.437 52.58 154.932 52.196C154.784 52.084 154.541 51.506 154.392 50.912C154.243 50.319 153.869 49.623 153.561 49.367C153.252 49.111 153 48.669 153 48.384C153 48.1 152.859 47.807 152.687 47.733C152.515 47.66 151.332 46.16 150.059 44.4C144.693 36.984 130.687 24.736 125.646 23.051C125.401 22.969 123.733 22.204 121.939 21.351C120.146 20.498 118.482 19.8 118.24 19.8C117.999 19.8 116.677 19.277 115.301 18.637C113.925 17.998 112.17 17.353 111.4 17.204C110.63 17.055 108.11 16.395 105.8 15.738C101.201 14.429 87.082 13.816 79.6 14.599ZM99.903 15.607C104.87 16.344 109.771 17.532 113.341 18.865C114.803 19.412 116.54 20.024 117.2 20.225C117.86 20.427 118.94 20.846 119.6 21.156C120.26 21.466 121.88 22.213 123.2 22.815C134.383 27.918 146.666 39.475 153.952 51.749C155.408 54.202 156.6 56.305 156.6 56.422C156.6 56.538 157.163 57.837 157.851 59.309C159.269 62.343 160.511 65.737 160.957 67.8C161.124 68.57 161.454 69.56 161.69 70C161.927 70.44 162.247 71.7 162.4 72.8C162.554 73.9 162.96 75.79 163.303 77C164.244 80.323 164.268 97.992 163.335 100.8C162.97 101.9 162.56 103.584 162.424 104.542C162.288 105.5 161.912 106.796 161.589 107.422C161.265 108.048 161 108.947 161 109.42C161 109.892 160.762 110.846 160.47 111.54C159.719 113.326 158.605 116.57 158.213 118.111C158.029 118.833 157.706 119.643 157.495 119.911C157.283 120.18 156.989 120.908 156.84 121.529C156.692 122.151 155.75 124.401 154.749 126.529C153.747 128.658 152.476 131.48 151.924 132.8C151.373 134.12 149.609 137.72 148.006 140.8C146.403 143.88 144.156 148.2 143.014 150.4C140.681 154.895 140.505 155.208 138.757 158C138.069 159.1 137.38 160.405 137.226 160.9C137.072 161.395 136.796 161.8 136.612 161.8C136.429 161.8 136.073 162.295 135.823 162.9C134.989 164.916 132.197 169.605 129.759 173.084C129.342 173.68 129 174.31 128.999 174.484C128.998 174.805 128.098 176.196 123.33 183.25C117.116 192.442 113.285 198.013 113.048 198.2C112.742 198.442 110.009 202.176 108.488 204.43C107.883 205.327 106.889 206.587 106.28 207.23C105.67 207.874 104.199 209.66 103.01 211.2C97.894 217.829 90.455 225.8 89.386 225.8C88.482 225.8 78.225 215.622 78.189 214.688C78.182 214.53 77.507 213.648 76.689 212.728C75.87 211.809 74.39 209.957 73.4 208.612C72.41 207.268 70.867 205.23 69.97 204.084C69.074 202.938 67.105 200.2 65.596 198C64.086 195.8 62.3 193.244 61.626 192.321C59.11 188.874 53.078 179.728 48.83 172.917C47.966 171.533 46.508 169.23 45.59 167.8C43.933 165.217 37.8 154.387 37.8 154.043C37.8 153.944 36.941 152.364 35.892 150.532C33.933 147.111 29.4 138.129 29.4 137.668C29.4 137.526 28.425 135.383 27.234 132.905C25.015 128.289 22.84 123.147 21.606 119.6C21.224 118.5 20.672 117.06 20.38 116.4C20.088 115.74 19.465 113.85 18.996 112.2C18.526 110.55 17.955 108.66 17.727 108C17.498 107.34 17.086 105.72 16.811 104.4C16.536 103.08 16.068 101.19 15.771 100.2C15.044 97.771 15.037 78.815 15.763 76.2C16.037 75.21 16.488 73.32 16.764 72C17.039 70.68 17.475 69.206 17.733 68.726C17.99 68.246 18.201 67.526 18.202 67.126C18.204 66.727 18.457 65.917 18.765 65.327C19.073 64.737 19.443 63.715 19.588 63.055C22.409 50.213 42.234 28.592 56.8 22.474C58.12 21.919 59.74 21.182 60.4 20.835C61.06 20.489 61.827 20.204 62.105 20.202C62.383 20.201 62.923 20.021 63.305 19.803C64.225 19.277 67.207 18.239 69.2 17.75C70.08 17.535 71.52 17.16 72.4 16.918C79.186 15.052 92.028 14.44 99.903 15.607ZM80.457 38.206C76.671 38.966 73.149 39.951 71.2 40.793C70.54 41.078 69.55 41.447 69 41.613C67.675 42.013 63.262 44.363 61.226 45.753C60.332 46.364 58.88 47.355 58 47.957C55.239 49.845 48.891 56.32 47.625 58.539C47.419 58.901 46.862 59.615 46.388 60.126C45.914 60.637 44.954 62.168 44.254 63.528C43.554 64.888 42.832 66.27 42.649 66.6C41.301 69.036 39.777 72.951 39.147 75.6C38.833 76.92 38.369 78.81 38.116 79.8C37.533 82.078 37.555 96.538 38.145 99C39.406 104.263 39.816 105.776 40.476 107.6C40.874 108.7 41.311 109.69 41.446 109.8C41.581 109.91 41.826 110.429 41.99 110.954C42.154 111.478 42.898 112.948 43.644 114.221C44.39 115.493 45 116.656 45 116.804C45 116.952 45.315 117.486 45.7 117.991C46.085 118.495 46.67 119.316 47 119.815C49.246 123.214 55.03 129.224 58 131.247C58.88 131.847 60.32 132.828 61.2 133.429C63.044 134.687 68.962 137.8 69.51 137.8C69.713 137.8 70.446 138.051 71.14 138.358C81.141 142.788 97.847 142.808 108 138.403C108.66 138.117 110.19 137.466 111.4 136.958C112.61 136.45 114.519 135.441 115.641 134.717C116.764 133.993 117.807 133.4 117.958 133.4C118.11 133.4 118.451 133.223 118.717 133.006C120.892 131.232 121.756 130.6 122.006 130.6C122.524 130.6 127.399 125.677 129.73 122.8C130.977 121.26 132.089 119.91 132.199 119.8C132.776 119.225 134.2 116.98 134.2 116.645C134.2 116.432 134.436 116.019 134.726 115.729C135.015 115.438 135.742 114.12 136.341 112.8C136.941 111.48 137.604 110.087 137.816 109.705C138.445 108.568 139.424 105.749 140.005 103.4C140.304 102.19 140.769 100.39 141.038 99.4C141.673 97.06 141.697 83.94 141.072 81C139.526 73.734 139.027 72.252 136.099 66.23C133.131 60.124 126.177 51.5 121.8 48.497C116.724 45.014 113.81 43.263 111.326 42.202C109.717 41.515 108.04 40.8 107.6 40.612C100.653 37.654 88.546 36.58 80.457 38.206ZM94.6 38.4C96.03 38.715 97.982 38.978 98.938 38.986C99.894 38.994 101.154 39.262 101.738 39.582C102.322 39.901 103.61 40.334 104.6 40.544C106.582 40.963 108.87 41.715 109.8 42.254C110.13 42.445 110.85 42.781 111.4 43.001C111.95 43.22 112.67 43.582 113 43.806C113.33 44.029 114.095 44.407 114.7 44.645C115.305 44.883 115.8 45.241 115.8 45.439C115.8 45.638 115.974 45.8 116.187 45.8C118.955 45.8 133.077 60.18 134.027 63.966C134.171 64.539 134.437 65.099 134.619 65.212C135.05 65.478 136.996 69.595 137.013 70.275C137.02 70.564 137.29 71.149 137.613 71.576C137.936 72.004 138.2 72.685 138.2 73.091C138.2 73.496 138.451 74.227 138.758 74.714C139.064 75.201 139.441 76.68 139.594 78C139.747 79.32 140.126 81.383 140.436 82.584C141.206 85.565 141.202 95.566 140.43 97.886C140.117 98.829 139.733 100.68 139.576 102C139.42 103.32 139.046 104.755 138.746 105.189C138.446 105.623 138.2 106.366 138.2 106.84C138.2 107.314 137.93 107.926 137.6 108.2C137.27 108.474 136.997 108.991 136.994 109.349C136.991 109.707 136.732 110.45 136.42 111C136.107 111.55 135.282 113.08 134.585 114.4C132.517 118.32 132.44 118.438 130.384 120.867C126.941 124.933 119.816 131.8 119.039 131.8C118.883 131.8 118.135 132.269 117.378 132.842C116.62 133.416 115.46 134.138 114.8 134.448C114.14 134.758 113.33 135.175 113 135.374C111.269 136.419 108.866 137.4 108.037 137.4C107.52 137.4 106.874 137.67 106.6 138C106.326 138.33 105.855 138.6 105.553 138.6C105.25 138.6 103.967 138.943 102.702 139.363C101.436 139.783 98.69 140.23 96.6 140.356C94.51 140.483 92.113 140.781 91.274 141.019C90.101 141.352 88.904 141.307 86.103 140.826C84.099 140.482 81.451 140.2 80.219 140.2C78.932 140.2 77.633 139.958 77.169 139.633C76.723 139.321 75.648 138.936 74.78 138.776C73.911 138.617 72.845 138.242 72.411 137.943C71.977 137.644 71.144 137.4 70.56 137.4C69.976 137.4 69.283 137.142 69.021 136.826C68.759 136.51 68.03 136.138 67.4 136C66.77 135.862 66.041 135.49 65.779 135.174C65.517 134.858 65.052 134.6 64.747 134.6C64.442 134.6 63.295 133.97 62.2 133.2C61.105 132.43 60.041 131.8 59.837 131.8C59.634 131.8 59.407 131.647 59.333 131.459C59.128 130.933 54.664 127.4 54.206 127.4C53.983 127.4 53.8 127.22 53.8 127C53.8 126.78 53.485 126.272 53.1 125.871C51.242 123.935 49.471 121.869 48.582 120.6C48.042 119.83 47.51 119.11 47.4 119C46.902 118.502 45.513 116.221 44.6 114.405C44.05 113.31 43.375 112.173 43.1 111.879C42.825 111.584 42.6 111.085 42.6 110.77C42.6 110.455 42.24 109.525 41.8 108.704C41.36 107.884 41 106.916 41 106.555C41 106.194 40.73 105.674 40.4 105.4C40.018 105.083 39.8 104.199 39.8 102.965C39.8 101.9 39.494 100.167 39.12 99.114C38.108 96.263 38.094 82.038 39.1 79.286C39.485 78.233 39.8 76.68 39.8 75.835C39.8 74.957 40.057 74.085 40.4 73.8C40.73 73.526 41.001 72.919 41.003 72.451C41.004 71.983 41.363 71.06 41.8 70.4C42.237 69.74 42.596 68.898 42.597 68.529C42.599 68.159 42.826 67.619 43.101 67.329C43.377 67.038 44.142 65.758 44.801 64.485C46.661 60.894 46.766 60.731 48.498 58.705C49.395 57.657 50.867 55.9 51.77 54.8C52.673 53.7 54.444 51.933 55.706 50.873C56.968 49.813 58.36 48.643 58.8 48.273C59.691 47.524 60.706 46.883 62.2 46.124C62.75 45.845 63.344 45.388 63.52 45.108C63.696 44.829 64.079 44.6 64.371 44.6C64.663 44.6 65.114 44.344 65.374 44.031C65.634 43.718 66.545 43.344 67.4 43.2C68.255 43.056 69.166 42.682 69.426 42.369C69.686 42.056 70.286 41.8 70.76 41.8C71.234 41.8 71.999 41.536 72.46 41.213C72.921 40.89 74.076 40.501 75.026 40.35C75.976 40.198 77.213 39.833 77.776 39.539C78.339 39.245 79.61 38.996 80.6 38.985C81.59 38.974 83.48 38.721 84.8 38.424C87.975 37.707 91.412 37.699 94.6 38.4ZM83.8 50.943C82.59 51.098 81.207 51.444 80.726 51.712C80.246 51.981 79.464 52.2 78.988 52.2C78.512 52.2 77.646 52.448 77.062 52.751C76.478 53.054 74.92 53.708 73.6 54.204C71.171 55.117 66.2 58.103 66.2 58.649C66.2 58.812 65.864 59.053 65.453 59.183C64.059 59.625 57.555 66.518 56.913 68.233C56.755 68.655 56.482 69 56.307 69C56.132 69 55.569 69.945 55.056 71.1C54.543 72.255 53.959 73.47 53.759 73.8C53.559 74.13 53.335 74.58 53.262 74.8C53.189 75.02 52.808 76.1 52.416 77.2C52.023 78.3 51.615 80.01 51.508 81C51.401 81.99 51.108 83.053 50.857 83.361C50.078 84.318 50.005 92.959 50.76 94.767C51.112 95.609 51.4 97.005 51.4 97.869C51.4 98.733 51.655 99.932 51.966 100.534C52.277 101.135 52.66 102.341 52.818 103.214C52.975 104.086 53.299 105.044 53.537 105.343C54.006 105.932 54.597 106.929 55.587 108.8C57.434 112.293 58.613 113.844 62.002 117.243C65.14 120.39 68.72 123.084 71 124.013C71.33 124.148 71.87 124.426 72.2 124.632C72.53 124.837 73.25 125.205 73.8 125.448C74.35 125.691 75.25 126.119 75.8 126.4C76.35 126.68 77.61 127.036 78.6 127.19C79.59 127.345 81.171 127.725 82.114 128.036C84.158 128.709 93.566 128.797 96 128.166C96.88 127.938 98.68 127.526 100 127.251C101.32 126.975 102.76 126.563 103.2 126.334C103.64 126.106 104.9 125.489 106 124.964C112.003 122.1 121 114.805 121 112.802C121 112.493 121.225 112.096 121.5 111.92C122.059 111.562 122.723 110.585 123.618 108.8C123.949 108.14 124.743 106.7 125.383 105.6C126.023 104.5 126.565 103.15 126.588 102.6C126.61 102.05 126.886 101.15 127.2 100.6C127.514 100.05 127.778 98.947 127.786 98.149C127.794 97.351 128.07 96.051 128.4 95.262C129.181 93.392 129.179 87.817 128.396 85.236C128.068 84.156 127.8 82.654 127.8 81.897C127.8 81.14 127.546 79.954 127.235 79.26C126.924 78.567 126.56 77.343 126.425 76.54C126.289 75.737 125.914 74.86 125.589 74.591C125.265 74.322 125 73.71 125 73.231C125 72.752 124.81 72.17 124.578 71.938C124.346 71.706 123.851 70.954 123.478 70.267C121.451 66.534 114.896 59.003 113.67 58.998C113.411 58.997 112.657 58.487 111.992 57.864C110.836 56.78 109.566 55.981 107.4 54.974C106.85 54.719 105.922 54.26 105.338 53.955C104.754 53.65 104.004 53.4 103.671 53.4C103.337 53.4 102.555 53.151 101.932 52.847C98.219 51.034 89.91 50.162 83.8 50.943ZM95.75 52.036C99.331 52.627 104.303 54.211 105.18 55.041C105.389 55.238 105.872 55.4 106.252 55.4C107.73 55.4 115.493 61.04 117.689 63.709C118.52 64.719 119.667 66.098 120.237 66.773C121.285 68.014 124.6 73.512 124.6 74.009C124.6 74.158 124.856 74.846 125.169 75.54C127.807 81.388 128.634 93.328 126.799 99.075C126.469 100.106 126.2 101.18 126.2 101.461C126.2 105.121 117.398 117.101 112.2 120.516C107.195 123.804 101.323 126.6 99.422 126.6C98.83 126.6 97.368 126.892 96.173 127.249C93.216 128.131 85.584 128.131 82.627 127.249C81.432 126.892 79.93 126.6 79.289 126.6C78.648 126.6 77.646 126.359 77.062 126.065C74.347 124.696 72.373 123.798 72.084 123.799C71.91 123.8 71.28 123.46 70.684 123.045C70.088 122.629 68.57 121.625 67.31 120.813C64.409 118.942 59.881 114.288 57.915 111.159C57.082 109.832 56.173 108.399 55.895 107.973C54.574 105.95 53.514 103.174 52.165 98.2C51.12 94.349 51.412 80.698 52.572 79.208C52.747 78.984 53.015 78.26 53.168 77.6C53.551 75.952 55.971 70.607 56.871 69.421C60.414 64.754 62.616 62.302 64.9 60.48C67.767 58.192 71.931 55.401 72.481 55.399C72.656 55.398 74.15 54.833 75.8 54.143C81.64 51.701 89.011 50.923 95.75 52.036Z" fill="#74BAD5"/>
<path fill-rule="evenodd" clip-rule="evenodd" d="M78.8 0.866997C78.36 0.962997 77.64 1.198 77.2 1.39C76.76 1.582 75.198 1.846 73.729 1.978C72.261 2.109 70.421 2.483 69.642 2.808C68.863 3.134 67.725 3.401 67.113 3.402C66.501 3.404 65.484 3.674 64.854 4.002C64.224 4.331 63.485 4.6 63.211 4.6C61.497 4.6 47.744 10.544 44.6 12.643C44.05 13.01 42.52 13.997 41.2 14.836C30.975 21.333 21.661 30.647 14.835 41.2C13.554 43.18 12.211 45.25 11.85 45.8C11.164 46.845 7.469 54.323 6.613 56.4C4.423 61.712 1.40299 72.619 1.39499 75.248C1.39299 76.102 1.125 77.79 0.799999 79C-0.0290005 82.09 -0.0260027 94.825 0.803997 97.564C1.132 98.644 1.4 100.297 1.4 101.238C1.4 102.178 1.592 103.454 1.827 104.072C2.062 104.69 2.501 106.367 2.801 107.798C3.806 112.583 4.43599 114.692 6.68699 120.8C7.33499 122.56 8.013 124.59 8.193 125.311C8.373 126.033 8.68199 126.843 8.87899 127.111C9.07499 127.38 9.655 128.68 10.166 130C10.678 131.32 11.705 133.662 12.448 135.204C13.192 136.745 13.8 138.134 13.8 138.289C13.8 138.616 18.051 147.708 18.622 148.6C18.833 148.93 19.11 149.47 19.238 149.8C19.612 150.765 21.396 154.273 22.335 155.891C22.811 156.71 23.68 158.24 24.266 159.291C24.852 160.341 25.785 162.01 26.339 163C26.893 163.99 27.714 165.52 28.164 166.4C28.613 167.28 29.57 168.9 30.29 170C31.011 171.1 31.832 172.45 32.116 173C32.4 173.55 32.85 174.361 33.116 174.801C33.382 175.242 34.306 176.772 35.17 178.201C36.033 179.631 37.248 181.456 37.87 182.258C38.491 183.059 39 183.826 39 183.962C39 184.097 39.63 185.105 40.4 186.2C41.17 187.295 41.8 188.337 41.8 188.515C41.8 188.692 42.074 189.189 42.41 189.619C42.745 190.048 44.131 192.11 45.49 194.2C46.849 196.29 48.065 198.09 48.194 198.2C48.322 198.31 49.128 199.48 49.984 200.8C50.839 202.12 51.913 203.67 52.37 204.244C52.826 204.819 53.47 205.696 53.8 206.193C54.379 207.066 60.927 215.776 61.924 217C62.193 217.33 63.776 219.31 65.443 221.4C70.018 227.138 70.784 227.993 76.196 233.4C80.931 238.132 82.061 238.959 86.26 240.77C88.05 241.542 91.504 241.589 92.938 240.861C93.522 240.564 94.638 240.016 95.417 239.643C98.675 238.081 105.678 231.228 111.606 223.8C112.923 222.15 114.9 219.706 116 218.369C117.1 217.032 118.27 215.525 118.6 215.02C118.93 214.515 119.38 213.899 119.6 213.651C120.85 212.242 127.852 202.669 128.8 201.073C129.36 200.131 132.319 195.684 132.708 195.2C133.264 194.509 137.4 188.119 137.4 187.951C137.4 187.864 137.985 186.93 138.7 185.876C140.589 183.093 140.951 182.512 141.494 181.4C141.762 180.85 142.537 179.59 143.216 178.6C143.894 177.61 144.575 176.53 144.729 176.2C144.883 175.87 145.322 175.124 145.704 174.543C146.087 173.962 147.021 172.432 147.781 171.143C148.54 169.854 149.395 168.562 149.681 168.271C149.966 167.981 150.2 167.59 150.2 167.403C150.2 167.114 153.421 161.238 154.587 159.4C155.908 157.317 156.924 155.357 157.152 154.449C157.297 153.872 157.578 153.4 157.776 153.4C157.974 153.4 158.255 152.862 158.399 152.205C158.543 151.547 158.803 150.922 158.975 150.815C159.243 150.65 164.365 140.408 165.984 136.8C166.281 136.14 166.9 134.778 167.361 133.774C167.823 132.769 168.2 131.817 168.2 131.657C168.2 131.497 168.767 130.159 169.46 128.683C170.153 127.207 170.862 125.46 171.035 124.8C171.209 124.14 171.826 122.34 172.407 120.8C172.988 119.26 173.632 117.319 173.837 116.486C174.042 115.654 174.375 114.664 174.577 114.286C175.49 112.577 177.112 105.801 178.427 98.2C179.63 91.247 178.587 77.296 176.168 68C174.698 62.347 174.126 60.564 172.944 57.956C172.535 57.052 172.2 56.176 172.2 56.009C172.2 55.416 167.695 46.37 166.557 44.68C165.921 43.734 165.4 42.877 165.4 42.776C165.4 42.499 162.655 38.627 161.135 36.759C160.401 35.856 159.8 34.949 159.8 34.743C159.8 33.802 152.058 25.726 148.299 22.747C147.255 21.918 146.22 21.049 146 20.814C145.451 20.229 142.438 17.889 140.662 16.668C136.833 14.036 135.846 13.402 133.8 12.259C129.91 10.085 127.745 9 127.299 9C127.059 9 126.579 8.751 126.231 8.447C125.884 8.143 124.16 7.405 122.4 6.806C120.64 6.207 119.02 5.572 118.8 5.395C118.58 5.217 117.697 4.94 116.837 4.779C115.978 4.619 114.808 4.244 114.237 3.946C113.667 3.648 112.699 3.404 112.087 3.402C111.475 3.401 110.337 3.134 109.558 2.808C108.779 2.483 106.939 2.103 105.471 1.965C104.002 1.827 102.029 1.463 101.086 1.157C99.447 0.623998 81.015 0.384997 78.8 0.866997ZM100.2 1.6C101.135 1.93 102.733 2.197 103.75 2.194C104.768 2.191 106.77 2.535 108.2 2.958C109.63 3.382 111.61 3.929 112.6 4.174C116.55 5.152 123.442 7.542 125.651 8.699C126.283 9.03 127.7 9.716 128.8 10.224C139.488 15.16 154.426 27.507 160.2 36.178C160.53 36.674 161.43 37.953 162.2 39.021C167.176 45.922 171.691 55.041 174.172 63.2C174.64 64.74 175.187 66.54 175.389 67.2C179.715 81.387 179.083 99.418 173.711 115C173.067 116.87 172.387 118.94 172.201 119.6C172.015 120.26 171.388 122.06 170.808 123.6C170.227 125.14 169.647 126.76 169.518 127.2C169.39 127.64 169.151 128.18 168.988 128.4C168.825 128.62 168.153 130.15 167.495 131.8C165.686 136.338 161.72 144.666 157.792 152.177C157.165 153.375 156.556 154.635 156.438 154.977C156.32 155.32 156.045 155.87 155.828 156.2C155.611 156.53 153.409 160.31 150.935 164.6C148.462 168.89 146.331 172.49 146.201 172.6C146.07 172.71 144.542 175.23 142.804 178.2C139.815 183.308 134.673 191.5 133.875 192.425C133.673 192.659 133.275 193.285 132.991 193.817C132.706 194.349 132.277 194.986 132.037 195.234C131.797 195.481 130.97 196.711 130.2 197.966C129.43 199.221 128.17 201.125 127.4 202.196C124.878 205.705 117.609 215.516 117.2 215.963C116.98 216.203 116.27 217.12 115.621 218C114.973 218.88 114.323 219.69 114.177 219.8C114.031 219.91 112.477 221.8 110.724 224C107.739 227.746 101.777 234.062 98.6 236.842C97.313 237.968 96.439 238.485 92.668 240.343C90.243 241.538 88.396 241.242 83.414 238.855C80.679 237.546 71.631 228.386 66.058 221.287C65.157 220.139 64.31 219.11 64.175 219C63.905 218.78 55.601 207.796 54.497 206.2C54.116 205.65 52.278 203.04 50.412 200.4C48.545 197.76 45.36 192.99 43.333 189.8C41.306 186.61 38.362 182.02 36.79 179.6C35.218 177.18 32.633 172.95 31.046 170.2C29.458 167.45 27.987 164.93 27.776 164.6C27.566 164.27 27.174 163.55 26.905 163C26.636 162.45 25.331 160.11 24.004 157.8C20.889 152.376 16.324 142.97 13.131 135.4C12.807 134.63 12.288 133.46 11.98 132.8C5.319 118.556 0.779998 100.559 0.830998 88.6C0.896998 73.486 5.85699 56.052 13.409 44.4C14.264 43.08 15.197 41.62 15.482 41.156C20.337 33.241 27.476 25.665 36.209 19.162C40.787 15.753 48.129 11 48.817 11C48.93 11 50.322 10.355 51.911 9.568C54.789 8.141 56.848 7.301 59.28 6.562C59.984 6.349 61.064 5.911 61.68 5.589C62.296 5.268 63.16 4.997 63.6 4.988C64.04 4.979 64.85 4.714 65.4 4.4C65.95 4.086 66.963 3.822 67.651 3.814C68.339 3.806 69.543 3.532 70.326 3.205C71.109 2.878 73.156 2.439 74.875 2.23C76.594 2.021 78.54 1.674 79.2 1.459C81.272 0.785 98.212 0.898999 100.2 1.6ZM78 15.788C75.8 16.168 73.28 16.676 72.4 16.918C71.52 17.16 70.08 17.535 69.2 17.75C67.207 18.239 64.225 19.277 63.305 19.803C62.923 20.021 62.383 20.201 62.105 20.202C61.827 20.204 61.06 20.489 60.4 20.835C59.74 21.182 58.12 21.919 56.8 22.474C42.234 28.592 22.409 50.213 19.588 63.055C19.443 63.715 19.073 64.737 18.765 65.327C18.457 65.917 18.204 66.727 18.202 67.126C18.201 67.526 17.99 68.246 17.733 68.726C17.475 69.206 17.039 70.68 16.764 72C16.488 73.32 16.037 75.21 15.763 76.2C15.037 78.815 15.044 97.771 15.771 100.2C16.068 101.19 16.536 103.08 16.811 104.4C17.086 105.72 17.498 107.34 17.727 108C17.955 108.66 18.526 110.55 18.996 112.2C19.465 113.85 20.088 115.74 20.38 116.4C20.672 117.06 21.224 118.5 21.606 119.6C22.84 123.147 25.015 128.289 27.234 132.905C28.425 135.383 29.4 137.526 29.4 137.668C29.4 138.129 33.933 147.111 35.892 150.532C36.941 152.364 37.8 153.944 37.8 154.043C37.8 154.387 43.933 165.217 45.59 167.8C46.508 169.23 47.966 171.533 48.83 172.917C53.078 179.728 59.11 188.874 61.626 192.321C62.3 193.244 64.086 195.8 65.596 198C67.105 200.2 69.074 202.938 69.97 204.084C70.867 205.23 72.41 207.268 73.4 208.612C74.39 209.957 75.87 211.809 76.689 212.728C77.507 213.648 78.182 214.53 78.189 214.688C78.225 215.622 88.482 225.8 89.386 225.8C90.455 225.8 97.894 217.829 103.01 211.2C104.199 209.66 105.67 207.874 106.28 207.23C106.889 206.587 107.883 205.327 108.488 204.43C110.009 202.176 112.742 198.442 113.048 198.2C113.285 198.013 117.116 192.442 123.33 183.25C128.098 176.196 128.998 174.805 128.999 174.484C129 174.31 129.342 173.68 129.759 173.084C132.197 169.605 134.989 164.916 135.823 162.9C136.073 162.295 136.429 161.8 136.612 161.8C136.796 161.8 137.072 161.395 137.226 160.9C137.38 160.405 138.069 159.1 138.757 158C140.505 155.208 140.681 154.895 143.014 150.4C144.156 148.2 146.403 143.88 148.006 140.8C149.609 137.72 151.373 134.12 151.924 132.8C152.476 131.48 153.747 128.658 154.749 126.529C155.75 124.401 156.692 122.151 156.84 121.529C156.989 120.908 157.283 120.18 157.495 119.911C157.706 119.643 158.029 118.833 158.213 118.111C158.605 116.57 159.719 113.326 160.47 111.54C160.762 110.846 161 109.892 161 109.42C161 108.947 161.265 108.048 161.589 107.422C161.912 106.796 162.288 105.5 162.424 104.542C162.56 103.584 162.97 101.9 163.335 100.8C164.268 97.992 164.244 80.323 163.303 77C162.96 75.79 162.554 73.9 162.4 72.8C162.247 71.7 161.927 70.44 161.69 70C161.454 69.56 161.124 68.57 160.957 67.8C160.511 65.737 159.269 62.343 157.851 59.309C157.163 57.837 156.6 56.538 156.6 56.422C156.6 56.305 155.408 54.202 153.952 51.749C146.666 39.475 134.383 27.918 123.2 22.815C121.88 22.213 120.26 21.466 119.6 21.156C118.94 20.846 117.86 20.427 117.2 20.225C116.54 20.024 114.803 19.412 113.341 18.865C103.717 15.271 88.618 13.956 78 15.788ZM99.6 16.22C103.308 16.627 109.5 17.953 110.651 18.587C111.009 18.784 111.999 19.073 112.851 19.229C113.703 19.386 114.755 19.758 115.189 20.057C115.623 20.356 116.233 20.6 116.545 20.6C118.295 20.6 129.358 26.491 132.883 29.3C133.781 30.015 134.616 30.6 134.739 30.6C134.862 30.6 135.894 31.455 137.031 32.5C144.112 39.002 149.015 44.561 151.8 49.243C154.11 53.127 156.01 56.426 156.152 56.8C156.434 57.544 158.247 61.595 158.574 62.213C158.752 62.55 159.032 63.45 159.195 64.213C159.359 64.976 159.72 66.05 159.997 66.6C163.155 72.854 164.706 93.248 162.637 101.3C162.397 102.235 162.02 103.72 161.8 104.6C160.973 107.909 160.467 109.636 159.983 110.8C159.709 111.46 159.358 112.597 159.204 113.327C159.051 114.057 158.673 115.137 158.365 115.727C158.057 116.317 157.804 117.194 157.802 117.676C157.801 118.158 157.646 118.648 157.458 118.764C157.27 118.88 156.709 120.106 156.211 121.488C155.713 122.869 154.607 125.496 153.753 127.324C152.899 129.152 152.2 130.765 152.2 130.909C152.2 131.151 147.613 140.338 144.964 145.4C144.331 146.61 143.81 147.81 143.807 148.067C143.803 148.323 143.653 148.593 143.473 148.667C143.293 148.74 142.562 149.97 141.849 151.4C140.628 153.847 140.141 154.718 138.212 157.9C137.778 158.615 137.149 159.74 136.813 160.4C136.477 161.06 135.844 162.14 135.407 162.8C134.97 163.46 134.432 164.36 134.213 164.8C133.993 165.24 133.406 166.255 132.907 167.055C132.408 167.855 131.409 169.475 130.687 170.655C128.707 173.889 128.504 174.207 127.1 176.276C126.385 177.33 125.8 178.285 125.8 178.4C125.8 178.515 125.204 179.461 124.475 180.504C123.747 181.547 123.029 182.67 122.882 183C122.734 183.33 121.62 184.95 120.408 186.6C119.195 188.25 117.911 190.14 117.554 190.8C117.197 191.46 116.432 192.627 115.853 193.394C115.274 194.16 114.62 195.093 114.4 195.465C114.18 195.838 112.92 197.544 111.6 199.256C110.28 200.968 108.907 202.825 108.548 203.384C108.19 203.943 107.515 204.797 107.048 205.283C106.582 205.769 106.2 206.345 106.2 206.563C106.2 206.782 105.953 207.104 105.65 207.28C105.348 207.456 103.76 209.31 102.122 211.4C96.646 218.387 90.395 225 89.266 225C88.378 225 80.206 216.765 78.55 214.2C78.194 213.65 77.461 212.75 76.919 212.2C76.378 211.65 74.87 209.76 73.568 208C70.761 204.207 70.811 204.273 69.758 203C69.018 202.106 65.837 197.539 64.8 195.883C64.58 195.531 64.263 195.054 64.095 194.822C63.362 193.807 61.379 191.163 61.065 190.782C60.876 190.552 60.649 190.192 60.561 189.982C60.472 189.772 58.607 186.9 56.415 183.6C54.223 180.3 52.229 177.24 51.982 176.8C51.219 175.437 48.841 171.621 48.493 171.2C47.869 170.445 45.584 166.797 43.608 163.4C42.52 161.53 41.488 159.94 41.315 159.867C41.142 159.793 41 159.399 41 158.99C41 158.582 40.839 158.148 40.643 158.027C40.447 157.906 39.72 156.68 39.028 155.303C38.335 153.926 37.065 151.54 36.205 150C35.345 148.46 34.452 146.75 34.221 146.2C33.99 145.65 33.628 144.93 33.417 144.6C32.927 143.833 31.478 140.868 29.606 136.8C28.796 135.04 27.518 132.318 26.767 130.751C26.015 129.184 25.4 127.713 25.4 127.483C25.4 127.253 25.13 126.51 24.8 125.832C24.47 125.155 23.93 124.045 23.6 123.368C23.27 122.69 23 121.922 23 121.662C23 121.401 22.64 120.516 22.2 119.696C21.76 118.875 21.4 117.915 21.4 117.563C21.4 117.211 21.157 116.446 20.861 115.862C20.12 114.404 18.601 109.612 18.598 108.725C18.596 108.326 18.351 107.531 18.052 106.959C17.753 106.386 17.378 105.036 17.217 103.959C17.057 102.881 16.638 100.92 16.285 99.6C15.394 96.263 15.414 80.328 16.314 76.8C16.651 75.48 17.056 73.5 17.214 72.4C17.372 71.3 17.649 70.213 17.83 69.984C18.01 69.756 18.335 68.856 18.552 67.984C19.222 65.289 20.951 60.591 21.86 59C22.048 58.67 22.387 57.95 22.613 57.4C23.218 55.926 23.313 55.747 24.41 54C24.962 53.12 25.593 52.04 25.813 51.6C26.266 50.692 26.961 49.606 29.085 46.489C30.75 44.046 36.955 36.957 38.18 36.099C38.618 35.792 40.152 34.429 41.589 33.071C43.025 31.712 44.296 30.6 44.412 30.6C44.528 30.6 45.493 29.925 46.556 29.1C49.258 27.004 54.007 24.231 56.6 23.235C56.93 23.109 57.47 22.845 57.8 22.65C59.046 21.912 62.107 20.6 62.582 20.6C62.854 20.6 63.554 20.351 64.138 20.046C65.452 19.36 70.565 17.786 71.454 17.794C71.814 17.797 72.984 17.526 74.054 17.191C79.1 15.613 90.219 15.19 99.6 16.22ZM80 37.638C76.019 38.602 72.067 39.805 70.868 40.42C70.245 40.739 69.493 41 69.197 41C68.095 41 59.802 45.678 59.801 46.3C59.8 46.465 59.628 46.6 59.418 46.6C57.882 46.6 49.241 54.947 46.6 58.982C46.27 59.486 45.813 60.101 45.584 60.349C44.753 61.251 40.208 70.224 40.189 71C40.181 71.33 39.91 71.949 39.587 72.376C39.264 72.804 39 73.547 39 74.028C39 74.509 38.75 75.509 38.444 76.251C36.404 81.201 36.384 97.513 38.411 102.366C38.735 103.14 39 104.247 39 104.825C39 105.404 39.241 106.354 39.535 106.938C39.829 107.522 40.473 108.9 40.966 110C44.321 117.492 46.823 121.164 52.368 126.737C56.683 131.073 58.43 132.6 59.077 132.6C59.25 132.6 59.752 132.915 60.194 133.3C61.784 134.685 68.354 138.2 69.353 138.2C69.731 138.2 70.211 138.364 70.42 138.563C70.994 139.112 76.723 140.999 77.83 141.004C78.364 141.007 79.684 141.277 80.764 141.604C83.5 142.435 95.143 142.432 98.335 141.6C99.602 141.27 100.99 141 101.418 141C102.238 141 106.363 139.706 108.4 138.81C109.06 138.52 110.59 137.868 111.8 137.361C113.01 136.854 114.27 136.233 114.6 135.98C114.93 135.728 115.47 135.402 115.8 135.256C116.13 135.111 116.869 134.678 117.443 134.296C118.016 133.913 119.52 132.915 120.784 132.078C124.914 129.345 134.6 118.695 134.6 116.888C134.6 116.563 134.867 116.076 135.194 115.805C135.52 115.534 136.17 114.477 136.637 113.456C139.893 106.344 140.2 105.584 140.2 104.641C140.2 104.18 140.543 102.767 140.963 101.502C142.755 96.096 142.673 81.706 140.825 77.313C140.481 76.495 140.199 75.415 140.198 74.913C140.196 74.411 139.926 73.484 139.598 72.854C139.269 72.224 139 71.56 139 71.378C139 70.982 135.764 64.273 134.457 61.96C129.979 54.034 114.642 41 109.795 41C109.384 41 108.95 40.842 108.83 40.649C108.574 40.234 102.213 38.203 101.141 38.194C100.734 38.191 99.68 37.929 98.8 37.612C96.567 36.807 83.358 36.826 80 37.638ZM98.703 38.197C102.455 38.955 105.914 39.894 107.6 40.612C108.04 40.8 109.717 41.515 111.326 42.202C113.81 43.263 116.724 45.014 121.8 48.497C126.177 51.5 133.131 60.124 136.099 66.23C139.027 72.252 139.526 73.734 141.072 81C141.697 83.94 141.673 97.06 141.038 99.4C140.769 100.39 140.304 102.19 140.005 103.4C139.424 105.749 138.445 108.568 137.816 109.705C137.604 110.087 136.941 111.48 136.341 112.8C135.742 114.12 135.015 115.438 134.726 115.729C134.436 116.019 134.2 116.432 134.2 116.645C134.2 116.98 132.776 119.225 132.199 119.8C132.089 119.91 130.977 121.26 129.73 122.8C127.399 125.677 122.524 130.6 122.006 130.6C121.756 130.6 120.892 131.232 118.717 133.006C118.451 133.223 118.11 133.4 117.958 133.4C117.807 133.4 116.764 133.993 115.641 134.717C114.519 135.441 112.61 136.45 111.4 136.958C110.19 137.466 108.66 138.117 108 138.403C97.847 142.808 81.141 142.788 71.14 138.358C70.446 138.051 69.713 137.8 69.51 137.8C68.962 137.8 63.044 134.687 61.2 133.429C60.32 132.828 58.88 131.847 58 131.247C55.03 129.224 49.246 123.214 47 119.815C46.67 119.316 46.085 118.495 45.7 117.991C45.315 117.486 45 116.952 45 116.804C45 116.656 44.39 115.493 43.644 114.221C42.898 112.948 42.154 111.478 41.99 110.954C41.826 110.429 41.581 109.91 41.446 109.8C41.311 109.69 40.874 108.7 40.476 107.6C39.816 105.776 39.406 104.263 38.145 99C37.555 96.538 37.533 82.078 38.116 79.8C38.369 78.81 38.833 76.92 39.147 75.6C39.777 72.951 41.301 69.036 42.649 66.6C42.832 66.27 43.554 64.888 44.254 63.528C44.954 62.168 45.914 60.637 46.388 60.126C46.862 59.615 47.419 58.901 47.625 58.539C48.891 56.32 55.239 49.845 58 47.957C58.88 47.355 60.332 46.364 61.226 45.753C63.262 44.363 67.675 42.013 69 41.613C69.55 41.447 70.54 41.078 71.2 40.793C78.416 37.675 90.487 36.536 98.703 38.197ZM82.6 52.199C80.51 52.578 77.45 53.453 75.8 54.143C74.15 54.833 72.656 55.398 72.481 55.399C71.931 55.401 67.767 58.192 64.9 60.48C62.616 62.302 60.414 64.754 56.871 69.421C55.971 70.607 53.551 75.952 53.168 77.6C53.015 78.26 52.747 78.984 52.572 79.208C51.412 80.698 51.12 94.349 52.165 98.2C53.514 103.174 54.574 105.95 55.895 107.973C56.173 108.399 57.082 109.832 57.915 111.159C59.881 114.288 64.409 118.942 67.31 120.813C68.57 121.625 70.088 122.629 70.684 123.045C71.28 123.46 71.91 123.8 72.084 123.799C72.373 123.798 74.347 124.696 77.062 126.065C77.646 126.359 78.648 126.6 79.289 126.6C79.93 126.6 81.342 126.852 82.427 127.16C83.512 127.468 85.84 127.812 87.6 127.925C90.482 128.11 90.581 128.094 88.6 127.766C87.39 127.566 85.59 127.225 84.6 127.009C83.61 126.793 81.81 126.497 80.6 126.351C79.39 126.204 78.045 125.841 77.611 125.542C77.177 125.244 76.434 125 75.96 125C75.486 125 74.883 124.742 74.621 124.426C74.359 124.11 73.63 123.738 73 123.6C72.37 123.462 71.641 123.09 71.379 122.774C71.117 122.458 70.667 122.2 70.38 122.2C70.092 122.2 69.619 121.975 69.329 121.7C69.038 121.425 68.004 120.66 67.031 120C65.532 118.983 64.203 117.717 60.264 113.552C57.913 111.066 53.4 102.591 53.4 100.661C53.4 100.173 53.157 99.193 52.86 98.482C51.099 94.267 51.986 80.683 54.355 75.6C54.662 74.94 55.324 73.5 55.826 72.4C57.509 68.71 62.298 63.055 66.2 60.15C67.63 59.085 68.998 58.049 69.24 57.847C69.914 57.286 75.687 54.685 78.2 53.811C81.014 52.832 90.19 51.5 90.937 51.961C91.162 52.1 93.187 52.389 95.438 52.604C97.788 52.828 99.923 53.25 100.451 53.597C100.958 53.929 101.643 54.2 101.975 54.2C102.307 54.2 103.348 54.548 104.289 54.973C105.23 55.398 106.27 55.855 106.6 55.989C110.745 57.666 121.4 67.227 121.4 69.268C121.4 69.529 121.634 69.981 121.921 70.271C122.207 70.562 122.849 71.7 123.347 72.8C123.845 73.9 124.601 75.57 125.027 76.511C125.452 77.452 125.801 78.712 125.802 79.311C125.804 79.91 126.093 80.94 126.446 81.6C127.405 83.396 127.423 96.141 126.469 98.349C126.101 99.201 125.8 100.343 125.8 100.887C125.8 101.431 125.531 102.354 125.203 102.938C124.874 103.522 124.42 104.45 124.193 105C123.967 105.55 123.344 106.72 122.81 107.6C122.275 108.48 121.71 109.47 121.553 109.8C120.613 111.775 115.359 117.478 112.071 120.091C110.496 121.342 103.369 125 102.505 125C102.205 125 101.752 125.208 101.498 125.462C101.243 125.717 99.452 126.182 97.518 126.497C95.583 126.812 93.28 127.211 92.4 127.385L90.8 127.7L92.6 127.746C93.59 127.771 95.284 127.523 96.364 127.196C97.444 126.868 98.816 126.6 99.413 126.6C101.323 126.6 107.185 123.811 112.2 120.516C117.398 117.101 126.2 105.121 126.2 101.461C126.2 101.18 126.469 100.106 126.799 99.075C128.634 93.328 127.807 81.388 125.169 75.54C124.856 74.846 124.6 74.158 124.6 74.009C124.6 73.512 121.285 68.014 120.237 66.773C119.667 66.098 118.52 64.719 117.689 63.709C115.493 61.04 107.73 55.4 106.252 55.4C105.872 55.4 105.389 55.238 105.18 55.041C102.25 52.27 90.41 50.78 82.6 52.199Z" fill="#A7E0F3"/>
</svg>
