<svg height="511pt" viewBox="1 -1 511.99909 511" width="511pt" xmlns="http://www.w3.org/2000/svg"><path d="m322.066406 220.339844h66.0625l-8.453125-12.683594c-4.453125-6.675781-2.648437-15.699219 4.03125-20.152344 6.902344-4.605468 16.253907-2.5 20.523438 4.613282l16.929687 28.222656-16.515625 24.773437v33.03125l8.257813 33.035157-41.289063 16.515624-33.03125-16.515624 8.257813-33.035157h-24.777344c-9.121094 0-16.515625-7.394531-16.515625-16.515625s7.394531-16.515625 16.515625-16.515625h16.515625zm0 0" fill="#ff9874"/><path d="m338.582031 311.179688 8.257813-33.035157h24.773437l24.773438-24.773437-16.515625 33.03125zm0 0" fill="#fe8053"/><path d="m338.582031 245.113281h-16.515625c-9.125 0-16.519531 7.394531-16.519531 16.515625h-15.097656c-6.195313 0-12.136719-2.460937-16.515625-6.839844l-11.09375-11.09375c-4.378906-4.378906-6.839844-10.320312-6.839844-16.515624v-31.613282l8.257812-8.257812c-9.121093-9.121094-9.121093-23.910156 0-33.035156l26.191407-26.1875c4.378906-4.382813 10.320312-6.84375 16.515625-6.84375h71.488281c6.195313 0 12.136719 2.460937 16.515625 6.84375l19.351562 19.347656c4.378907 4.382812 6.839844 10.320312 6.839844 16.515625v56.390625l-16.933594-28.222656c-4.269531-7.113282-13.617187-9.214844-20.523437-4.613282-6.675781 4.453125-8.480469 13.476563-4.03125 20.152344l8.457031 12.683594h-66.066406zm0 0" fill="#12acab"/><path d="m231.226562 331.824219c0 6.851562-5.53125 12.386719-12.386718 12.386719h-12.386719l-16.515625 8.257812-16.515625-8.257812 8.257813 24.773437-33.035157 16.515625-33.03125-16.515625 8.257813-24.773437v-57.808594c0-13.707032 11.066406-24.773438 24.773437-24.773438v24.773438h74.324219l-16.515625 33.035156h12.386719c6.851562 0 12.386718 5.53125 12.386718 12.386719zm0 0" fill="#f8a398"/><path d="m63.671875 442.5625c-16.269531-2.394531-30.886719-9.992188-41.871094-21.058594-13.460937-13.375-21.800781-32.039062-21.800781-52.519531v-24.773437c0-41.292969 27.746094-38.402344 27.746094-38.402344l5.285156 63.175781zm0 0" fill="#e01a63"/><path d="m285.070312 349.414062-.828124 1.484376c-12.46875 21.636718-19.820313 26.59375-53.015626 34.601562l-21.222656 7.101562-28.328125-23.617187-8.257812-24.773437 16.515625 8.257812 16.519531-8.257812h12.386719c6.851562 0 12.386718-5.535157 12.386718-12.386719 0-6.855469-5.535156-12.386719-12.386718-12.386719h-12.386719l16.515625-33.035156h-74.324219v-24.773438c-13.707031 0-24.773437 11.066406-24.773437 24.773438v57.808594l-8.257813 24.773437h-16.515625l-25.105468-119.164063c8.753906-8.09375 20.480468-12.964843 33.363281-12.964843 0-22.792969 18.496093-41.289063 41.289062-41.289063h41.289063c22.792968 0 41.292968 18.496094 41.292968 41.289063v33.03125h2.890626c18.414062 0 35.34375 10.324219 43.601562 26.839843l.328125.742188c4.296875 8.425781 8.839844 20.894531 9.910156 32.375.828125 7.347656.167969 14.285156-2.886719 19.570312zm0 0" fill="#e01a63"/><path d="m305.546875 509.371094v-99.097656h-74.320313l-21.226562-17.671876 21.226562-7.101562c33.195313-8.011719 40.546876-12.964844 53.015626-34.601562l.824218-1.484376c3.054688-5.289062 3.71875-12.222656 2.890625-19.574218l50.621094-18.660156 33.035156 16.515624 41.289063-16.515624 8.257812-16.515626 24.773438-74.324218 49.550781 33.03125v123.871094l16.515625 132.128906zm0 0" fill="#7cdfe0"/><path d="m206.453125 459.824219 99.09375-16.515625v-33.035156h-74.320313zm0 0" fill="#f8a398"/><path d="m222.96875 129.5c9.351562 9.355469 24.296875 10.03125 34.457031 1.5625l31.605469-26.335938 140.386719 24.773438 16.515625 90.839844 49.550781 33.03125-30.476563-159.992188c-1.484374-7.789062-8.292968-13.425781-16.222656-13.425781h-183.945312c-5.523438 0-10.679688 2.761719-13.742188 7.355469zm0 0" fill="#ff9874"/><path d="m198.191406 5.628906c6.84375-6.839844 17.933594-6.839844 24.777344 0 6.839844-6.839844 17.933594-6.839844 24.773438 0 6.839843 6.84375 6.839843 17.933594 0 24.773438l-24.773438 24.777344-24.777344-24.777344c-6.839844-6.839844-6.839844-17.929688 0-24.773438zm0 0" fill="#e01a63"/><path d="m264.257812 5.628906c6.839844-6.839844 17.933594-6.839844 24.773438 0 6.839844-6.839844 17.933594-6.839844 24.773438 0 6.84375 6.84375 6.84375 17.933594 0 24.773438l-24.773438 24.777344-24.773438-24.777344c-6.839843-6.839844-6.839843-17.929688 0-24.773438zm0 0" fill="#ef4983"/><path d="m73.992188 249.820312-7.929688-37.738281 107.355469-82.582031 12.140625 6.109375c12.46875 6.195313 27.582031 3.71875 37.410156-6.109375l-33.445312-26.757812c-4.789063-3.796876-11.398438-4.707032-17.09375-2.144532l-145.261719 65.402344c-6.359375 2.890625-10.238281 9.414062-9.660157 16.433594l9.992188 120.402344.246094 2.976562 5.285156 63.171875 61.226562-22.960937zm0 0" fill="#f8a398"/><path d="m210.003906 392.601562-28.328125-23.617187-33.03125 16.515625-33.03125-16.515625h-16.515625l-4.839844-22.960937-61.226562 22.960937 30.640625 73.578125 10.652344 17.261719-8.261719 49.546875h140.390625v-49.546875l24.773437-49.550781zm0 0" fill="#fca3b7"/><path d="m173.417969 344.210938-16.515625-8.257813-8.257813-16.515625v16.515625l33.03125 33.03125zm0 0" fill="#ff9874"/></svg>