<?xml version="1.0" standalone="no"?>
<!DOCTYPE svg PUBLIC "-//W3C//DTD SVG 20010904//EN"
 "http://www.w3.org/TR/2001/REC-SVG-20010904/DTD/svg10.dtd">
<svg version="1.0" xmlns="http://www.w3.org/2000/svg"
 width="548.000000pt" height="578.000000pt" viewBox="0 0 548.000000 578.000000"
 preserveAspectRatio="xMidYMid meet">

<g transform="translate(0.000000,578.000000) scale(0.100000,-0.100000)"
fill="#c4c0c0" stroke="none">
<path d="M2892 5219 c-216 -36 -383 -211 -463 -487 -23 -78 -49 -238 -49 -299
l0 -43 -288 0 c-389 0 -356 43 -360 -457 l-3 -363 -290 0 c-308 0 -334 -4
-359 -49 -14 -28 -14 -1775 1 -1803 27 -50 -33 -48 1616 -48 l1538 0 36 30
c74 61 69 -43 69 1344 0 1055 -2 1252 -14 1281 -26 62 -43 65 -349 65 l-273 0
-18 110 c-52 330 -195 568 -400 669 -109 53 -260 72 -394 50z m188 -190 c35
-5 86 -22 113 -37 103 -56 194 -191 240 -357 20 -72 47 -209 47 -239 0 -3
-200 -6 -445 -6 l-445 0 6 73 c19 219 90 408 181 484 73 61 120 80 228 92 6 0
39 -4 75 -10z m1035 -813 c18 -8 42 -27 52 -42 17 -27 18 -77 21 -959 2 -511
-1 -1013 -5 -1114 l-9 -183 -41 -39 -42 -39 -461 0 -460 0 0 833 c0 925 4 866
-68 887 -23 6 -250 10 -619 10 l-583 0 0 275 c0 302 6 341 59 370 39 21 2105
22 2156 1z m-1130 -851 l25 -24 0 -706 c0 -757 1 -748 -49 -775 -13 -7 -301
-10 -854 -10 -831 0 -834 0 -861 21 l-26 21 2 728 c3 700 4 729 22 749 l19 21
849 0 849 0 24 -25z"/>
<path d="M2410 3968 c-122 -84 -66 -273 80 -273 110 0 182 116 132 215 -38 77
-142 105 -212 58z"/>
<path d="M3482 3970 c-121 -74 -82 -253 61 -277 57 -9 128 35 153 96 19 45 18
67 -7 117 -38 79 -134 109 -207 64z"/>
<path d="M2431 3169 c-30 -28 -41 -60 -41 -122 -1 -161 -72 -295 -184 -348
-121 -57 -252 -31 -324 66 -41 54 -80 173 -92 279 -12 101 -37 135 -98 136
-41 0 -78 -35 -87 -83 -4 -19 0 -82 9 -140 48 -331 240 -494 536 -456 157 19
284 108 353 245 67 134 97 326 62 395 -26 50 -95 65 -134 28z"/>
<path d="M2508 979 c-39 -22 -22 -60 67 -149 l85 -85 -85 -85 c-81 -81 -96
-107 -77 -137 7 -11 25 -16 51 -14 7 0 51 38 97 83 l84 82 89 -87 c49 -48 93
-87 97 -87 21 0 54 32 54 52 0 12 -34 55 -85 107 l-85 87 81 79 c44 44 82 90
86 103 6 25 -20 62 -45 62 -8 0 -54 -39 -103 -87 l-89 -87 -89 87 c-89 88
-102 95 -133 76z"/>
</g>
</svg>
